<?xml version="1.0" encoding="UTF-8"?>
<svg width="62px" height="50px" viewBox="0 0 62 50" version="1.1" xmlns="http://www.w3.org/2000/svg" xmlns:xlink="http://www.w3.org/1999/xlink">
    <!-- Generator: Sketch 45.2 (43514) - http://www.bohemiancoding.com/sketch -->
    <title>02n</title>
    <desc>Created with Sketch.</desc>
    <defs></defs>
    <g id="Page-1" stroke="none" stroke-width="1" fill="none" fill-rule="evenodd">
        <g id="02n" transform="translate(0.000000, -1.000000)" fill-rule="nonzero" fill="#575757">
            <g id="Group">
                <path d="M51.747,27.137 C50.371,19.023 43.307,13 35,13 C28.896,13 23.427,16.232 20.425,21.263 C18.006,19.627 16.397,17.046 16.068,14.174 C15.652,10.547 17.156,7.097 20.089,4.944 C20.668,4.518 21,3.874 21,3.177 C21,2.593 20.771,2.044 20.355,1.632 C19.939,1.218 19.374,0.971 18.801,1 C18.531,1.002 18.3,1.005 18.215,1.009 C13.063,1.218 8.323,3.45 4.868,7.294 C1.417,11.132 -0.297,16.096 0.042,21.272 C0.287,25.016 1.651,28.544 3.977,31.55 C1.551,33.569 0,36.604 0,40 C0,46.065 4.935,51 11,51 L50,51 C56.617,51 62,45.617 62,39 C62,33.054 57.558,27.991 51.747,27.137 Z M2.038,21.141 C1.734,16.508 3.267,12.065 6.354,8.631 C9.446,5.193 13.687,3.195 18.297,3.007 C18.374,3.004 18.58,3.002 18.819,3 C18.82,3 18.82,3 18.821,3 C18.882,3 18.923,3.028 18.947,3.052 C18.971,3.076 19,3.117 19,3.177 C19,3.256 18.926,3.317 18.905,3.332 C15.386,5.914 13.583,10.052 14.081,14.401 C14.486,17.936 16.501,21.094 19.514,23.046 C19.227,23.689 18.966,24.347 18.757,25.033 C15.416,24.739 12.319,26.316 10.519,29.01 C8.747,29.087 7.086,29.59 5.627,30.411 C3.503,27.703 2.259,24.519 2.038,21.141 Z M50,49 L11,49 C6.038,49 2,44.963 2,40 C2,35.037 6.038,31 10.961,30.999 L11.653,31.004 L11.942,30.505 C13.193,28.343 15.514,27 18,27 C18.419,27 18.857,27.043 19.302,27.126 L20.23,27.301 L20.458,26.384 C22.12,19.681 28.1,15 35,15 C42.563,15 48.959,20.66 49.876,28.165 L49.946,28.734 C49.98,29.152 50,29.573 50,30 C50,38.271 43.271,45 35,45 L35,47 C44.374,47 52,39.374 52,30 C52,29.734 51.978,29.475 51.966,29.213 C56.554,30.136 60,34.221 60,39 C60,44.514 55.514,49 50,49 Z" id="Shape"></path>
                <rect id="Rectangle-path" x="27" y="1" width="2" height="2"></rect>
                <rect id="Rectangle-path" x="29" y="3" width="2" height="2"></rect>
                <rect id="Rectangle-path" x="27" y="5" width="2" height="2"></rect>
                <rect id="Rectangle-path" x="25" y="3" width="2" height="2"></rect>
                <rect id="Rectangle-path" x="23" y="9" width="2" height="2"></rect>
                <rect id="Rectangle-path" x="25" y="11" width="2" height="2"></rect>
                <rect id="Rectangle-path" x="23" y="13" width="2" height="2"></rect>
                <rect id="Rectangle-path" x="21" y="11" width="2" height="2"></rect>
            </g>
        </g>
    </g>
</svg>