<?xml version="1.0" encoding="UTF-8"?>
<svg width="62px" height="38px" viewBox="0 0 62 38" version="1.1" xmlns="http://www.w3.org/2000/svg" xmlns:xlink="http://www.w3.org/1999/xlink">
    <!-- Generator: Sketch 45.2 (43514) - http://www.bohemiancoding.com/sketch -->
    <title>03d</title>
    <desc>Created with Sketch.</desc>
    <defs></defs>
    <g id="Page-1" stroke="none" stroke-width="1" fill="none" fill-rule="evenodd">
        <g id="03d" fill-rule="nonzero" fill="#575757">
            <path d="M51.746,14.137 C50.371,6.023 43.308,0 35,0 C27.48,0 20.925,4.904 18.757,12.034 C18.501,12.011 18.248,12 18,12 C14.996,12 12.18,13.523 10.518,16.01 C4.675,16.264 0,21.096 0,27 C0,33.065 4.935,38 11,38 L50,38 C56.617,38 62,32.617 62,26 C62,20.053 57.558,14.991 51.746,14.137 Z M50,36 L11,36 C6.037,36 2,31.962 2,27 C2,22.038 6.037,18 10.961,17.999 L11.653,18.004 L11.941,17.505 C13.192,15.343 15.515,14 18,14 C18.419,14 18.857,14.042 19.303,14.126 L20.231,14.301 L20.459,13.384 C22.12,6.681 28.1,2 35,2 C42.564,2 48.959,7.66 49.876,15.165 L49.946,15.739 C49.98,16.155 50,16.575 50,17 C50,25.271 43.271,32 35,32 L35,34 C44.374,34 52,26.374 52,17 C52,16.735 51.978,16.475 51.966,16.213 C56.554,17.136 60,21.221 60,26 C60,31.514 55.514,36 50,36 Z" id="Shape"></path>
        </g>
    </g>
</svg>