<?xml version="1.0" encoding="UTF-8"?>
<svg width="62px" height="44px" viewBox="0 0 62 44" version="1.1" xmlns="http://www.w3.org/2000/svg" xmlns:xlink="http://www.w3.org/1999/xlink">
    <!-- Generator: Sketch 45.2 (43514) - http://www.bohemiancoding.com/sketch -->
    <title>04d</title>
    <desc>Created with Sketch.</desc>
    <defs></defs>
    <g id="Page-1" stroke="none" stroke-width="1" fill="none" fill-rule="evenodd">
        <g id="04d" fill-rule="nonzero" fill="#575757">
            <path d="M51.746,20.137 C50.392,12.147 43.519,6.198 35.378,6.017 C33.235,2.292 29.317,0 25,0 C19.883,0 15.354,3.262 13.685,8.036 C11.098,7.768 8.659,8.969 7.232,11.043 C3.135,11.428 0,14.825 0,19 C0,21.513 1.178,23.827 3.13,25.327 C1.196,27.311 0,30.017 0,33 C0,39.065 4.935,44 11,44 L50,44 C56.617,44 62,38.617 62,32 C62,26.053 57.558,20.991 51.746,20.137 Z M2,19 C2,15.732 4.562,13.101 7.831,13.009 L8.39,12.993 L8.669,12.509 C9.75,10.636 11.885,9.604 14.152,10.139 L15.097,10.363 L15.347,9.424 C16.513,5.053 20.481,2 25,2 C28.235,2 31.198,3.552 33.062,6.123 C26.375,6.885 20.736,11.526 18.757,18.034 C18.501,18.011 18.248,18 18,18 C14.996,18 12.18,19.523 10.518,22.01 C8.359,22.104 6.362,22.826 4.699,23.993 C3.025,22.887 2,21.03 2,19 Z M50,42 L11,42 C6.037,42 2,37.963 2,33 C2,28.037 6.037,24 10.961,23.999 L11.653,24.004 L11.941,23.505 C13.192,21.343 15.515,20 18,20 C18.419,20 18.857,20.042 19.303,20.126 L20.231,20.301 L20.459,19.384 C22.12,12.681 28.1,8 35,8 C42.564,8 48.959,13.66 49.876,21.165 L49.946,21.739 C49.98,22.155 50,22.575 50,23 C50,31.271 43.271,38 35,38 L35,40 C44.374,40 52,32.374 52,23 C52,22.735 51.978,22.475 51.966,22.213 C56.554,23.136 60,27.222 60,32 C60,37.514 55.514,42 50,42 Z" id="Shape"></path>
        </g>
    </g>
</svg>