<?xml version="1.0" encoding="UTF-8"?>
<svg width="62px" height="62px" viewBox="0 0 62 62" version="1.1" xmlns="http://www.w3.org/2000/svg" xmlns:xlink="http://www.w3.org/1999/xlink">
    <!-- Generator: Sketch 45.2 (43514) - http://www.bohemiancoding.com/sketch -->
    <title>10d</title>
    <desc>Created with Sketch.</desc>
    <defs></defs>
    <g id="Page-1" stroke="none" stroke-width="1" fill="none" fill-rule="evenodd">
        <g id="10d" fill-rule="nonzero" fill="#575757">
            <g id="Group">
                <path d="M51.746,26.137 C50.371,18.023 43.308,12 35,12 C33.493,12 32.028,12.205 30.626,12.578 C28.188,9.083 24.284,7 20,7 C12.832,7 7,12.832 7,20 C7,22.965 7.996,25.783 9.822,28.075 C4.31,28.667 0,33.334 0,39 C0,45.065 4.935,50 11,50 L11,48 C6.037,48 2,43.962 2,39 C2,34.038 6.037,30 10.961,29.999 L11.653,30.004 L11.941,29.505 C13.192,27.343 15.515,26 18,26 C18.419,26 18.857,26.042 19.303,26.126 L20.231,26.301 L20.459,25.384 C22.12,18.681 28.1,14 35,14 C42.564,14 48.959,19.66 49.876,27.165 L49.946,27.739 C49.98,28.155 50,28.575 50,29 C50,37.271 43.271,44 35,44 L35,46 C44.374,46 52,38.374 52,29 C52,28.735 51.978,28.475 51.966,28.213 C56.554,29.136 60,33.221 60,38 C60,43.514 55.514,48 50,48 L50,50 C56.617,50 62,44.617 62,38 C62,32.053 57.558,26.991 51.746,26.137 Z M18.757,24.034 C18.501,24.011 18.248,24 18,24 C15.485,24 13.112,25.078 11.427,26.885 C9.856,24.937 9,22.531 9,20 C9,13.935 13.935,9 20,9 C23.425,9 26.571,10.567 28.649,13.237 C23.977,15.119 20.281,19.022 18.757,24.034 Z" id="Shape"></path>
                <rect id="Rectangle-path" x="0" y="19" width="5" height="2"></rect>
                <rect id="Rectangle-path" transform="translate(32.374454, 7.626136) rotate(-45.000000) translate(-32.374454, -7.626136) " x="29.8739775" y="6.62614524" width="5.00095204" height="1.99998082"></rect>
                <rect id="Rectangle-path" x="19" y="0" width="2" height="5"></rect>
                <rect id="Rectangle-path" transform="translate(7.626398, 7.625184) rotate(-45.004051) translate(-7.626398, -7.625184) " x="6.62633708" y="5.12453101" width="2.00012225" height="5.00130568"></rect>
                <rect id="Rectangle-path" transform="translate(13.685524, 4.755792) rotate(-22.507915) translate(-13.685524, -4.755792) " x="12.6855525" y="3.25583529" width="1.99994228" height="2.99991342"></rect>
                <rect id="Rectangle-path" transform="translate(4.756517, 13.686064) rotate(-67.499572) translate(-4.756517, -13.686064) " x="3.75649135" y="12.1860259" width="2.0000505" height="3.00007575"></rect>
                <rect id="Rectangle-path" transform="translate(4.755392, 26.313276) rotate(-22.507915) translate(-4.755392, -26.313276) " x="3.25543529" y="25.3133053" width="2.99991342" height="1.99994228"></rect>
                <rect id="Rectangle-path" transform="translate(26.313892, 4.757024) rotate(-67.492085) translate(-26.313892, -4.757024) " x="24.8139353" y="3.75705246" width="2.99991342" height="1.99994228"></rect>
                <rect id="Rectangle-path" x="44" y="58" width="2" height="4"></rect>
                <rect id="Rectangle-path" x="44" y="52" width="2" height="4"></rect>
                <rect id="Rectangle-path" x="44" y="46" width="2" height="4"></rect>
                <rect id="Rectangle-path" x="38" y="55" width="2" height="4"></rect>
                <rect id="Rectangle-path" x="38" y="49" width="2" height="4"></rect>
                <rect id="Rectangle-path" x="32" y="58" width="2" height="4"></rect>
                <rect id="Rectangle-path" x="32" y="52" width="2" height="4"></rect>
                <rect id="Rectangle-path" x="32" y="46" width="2" height="4"></rect>
                <rect id="Rectangle-path" x="26" y="55" width="2" height="4"></rect>
                <rect id="Rectangle-path" x="26" y="49" width="2" height="4"></rect>
                <rect id="Rectangle-path" x="20" y="58" width="2" height="4"></rect>
                <rect id="Rectangle-path" x="20" y="52" width="2" height="4"></rect>
                <rect id="Rectangle-path" x="20" y="46" width="2" height="4"></rect>
                <rect id="Rectangle-path" x="14" y="55" width="2" height="4"></rect>
                <rect id="Rectangle-path" x="14" y="49" width="2" height="4"></rect>
            </g>
        </g>
    </g>
</svg>