<?xml version="1.0" encoding="UTF-8"?>
<svg width="62px" height="61px" viewBox="0 0 62 61" version="1.1" xmlns="http://www.w3.org/2000/svg" xmlns:xlink="http://www.w3.org/1999/xlink">
    <!-- Generator: Sketch 45.2 (43514) - http://www.bohemiancoding.com/sketch -->
    <title>11d.</title>
    <desc>Created with Sketch.</desc>
    <defs></defs>
    <g id="Page-1" stroke="none" stroke-width="1" fill="none" fill-rule="evenodd">
        <g id="11d." fill-rule="nonzero" fill="#575757">
            <g id="Group">
                <path d="M51.746,14.137 C50.371,6.023 43.308,0 35,0 C27.48,0 20.925,4.904 18.757,12.034 C18.501,12.011 18.248,12 18,12 C14.996,12 12.18,13.523 10.518,16.01 C4.675,16.264 0,21.096 0,27 C0,33.065 4.935,38 11,38 L11,36 C6.037,36 2,31.962 2,27 C2,22.038 6.037,18 10.961,17.999 L11.653,18.004 L11.941,17.505 C13.192,15.343 15.515,14 18,14 C18.419,14 18.857,14.042 19.303,14.126 L20.231,14.301 L20.459,13.384 C22.12,6.681 28.1,2 35,2 C42.564,2 48.959,7.66 49.876,15.165 L49.946,15.739 C49.98,16.155 50,16.575 50,17 C50,25.271 43.271,32 35,32 L35,34 C44.374,34 52,26.374 52,17 C52,16.735 51.978,16.475 51.966,16.213 C56.554,17.136 60,21.221 60,26 C60,31.514 55.514,36 50,36 L50,38 C56.617,38 62,32.617 62,26 C62,20.053 57.558,14.991 51.746,14.137 Z" id="Shape"></path>
                <rect id="Rectangle-path" transform="translate(13.998700, 39.999800) rotate(-63.434949) translate(-13.998700, -39.999800) " x="11.762768" y="38.9998304" width="4.47186405" height="1.9999392"></rect>
                <rect id="Rectangle-path" transform="translate(10.998500, 45.999700) rotate(-63.434949) translate(-10.998500, -45.999700) " x="8.76256798" y="44.9997304" width="4.47186405" height="1.9999392"></rect>
                <rect id="Rectangle-path" transform="translate(7.998400, 51.999500) rotate(-63.434949) translate(-7.998400, -51.999500) " x="5.76246798" y="50.9995304" width="4.47186405" height="1.9999392"></rect>
                <rect id="Rectangle-path" transform="translate(4.998300, 57.999300) rotate(-63.434949) translate(-4.998300, -57.999300) " x="2.76236798" y="56.9993304" width="4.47186405" height="1.9999392"></rect>
                <rect id="Rectangle-path" transform="translate(20.998600, 40.000000) rotate(-63.434949) translate(-20.998600, -40.000000) " x="18.762668" y="39.0000304" width="4.47186405" height="1.9999392"></rect>
                <rect id="Rectangle-path" transform="translate(17.998400, 45.999900) rotate(-63.434949) translate(-17.998400, -45.999900) " x="15.762468" y="44.9999304" width="4.47186405" height="1.9999392"></rect>
                <rect id="Rectangle-path" transform="translate(14.998300, 51.999700) rotate(-63.434949) translate(-14.998300, -51.999700) " x="12.762368" y="50.9997304" width="4.47186405" height="1.9999392"></rect>
                <rect id="Rectangle-path" transform="translate(11.998200, 57.999500) rotate(-63.434949) translate(-11.998200, -57.999500) " x="9.76226798" y="56.9995304" width="4.47186405" height="1.9999392"></rect>
                <rect id="Rectangle-path" transform="translate(39.998300, 40.000500) rotate(-63.434949) translate(-39.998300, -40.000500) " x="37.762368" y="39.0005304" width="4.47186405" height="1.9999392"></rect>
                <rect id="Rectangle-path" transform="translate(36.998200, 46.000400) rotate(-63.434949) translate(-36.998200, -46.000400) " x="34.762268" y="45.0004304" width="4.47186405" height="1.9999392"></rect>
                <rect id="Rectangle-path" transform="translate(33.998100, 52.000200) rotate(-63.434949) translate(-33.998100, -52.000200) " x="31.762168" y="51.0002304" width="4.47186405" height="1.9999392"></rect>
                <rect id="Rectangle-path" transform="translate(30.997900, 58.000100) rotate(-63.434949) translate(-30.997900, -58.000100) " x="28.761968" y="57.0001304" width="4.47186405" height="1.9999392"></rect>
                <rect id="Rectangle-path" transform="translate(46.998200, 40.000700) rotate(-63.434949) translate(-46.998200, -40.000700) " x="44.762268" y="39.0007304" width="4.47186405" height="1.9999392"></rect>
                <rect id="Rectangle-path" transform="translate(43.998100, 46.000600) rotate(-63.434949) translate(-43.998100, -46.000600) " x="41.762168" y="45.0006304" width="4.47186405" height="1.9999392"></rect>
                <rect id="Rectangle-path" transform="translate(40.998000, 52.000400) rotate(-63.434949) translate(-40.998000, -52.000400) " x="38.762068" y="51.0004304" width="4.47186405" height="1.9999392"></rect>
                <rect id="Rectangle-path" transform="translate(37.997800, 58.000200) rotate(-63.434949) translate(-37.997800, -58.000200) " x="35.761868" y="57.0002304" width="4.47186405" height="1.9999392"></rect>
                <polygon id="Shape" points="24.767 48 29.857 39.515 28.143 38.485 21.233 50 27.179 50 21.156 59.463 22.844 60.537 30.821 48"></polygon>
            </g>
        </g>
    </g>
</svg>