<svg xmlns="http://www.w3.org/2000/svg" xmlns:xlink="http://www.w3.org/1999/xlink" version="1.1" x="0px" y="0px" viewBox="0 0 150 187.5" enable-background="new 0 0 150 150" xml:space="preserve"><g><g><path d="M100.5989914,151.7665253H80.6886673v-21.9050446h-12.321228v21.9050446H48.483551l0.2402878-1.3796387    c5.0620842-29.0940475,8.1512985-58.7629471,9.1848717-88.1823578l0.0390892-1.135891h33.1835022l0.0172424,1.1600342    c0.4322815,29.2090225,3.5203476,58.8629761,9.1791229,88.1375275L100.5989914,151.7665253z M83.0432281,149.4119568h14.7045364    c-5.4403305-28.5663452-8.4456253-57.4822006-8.9353867-85.9887543H60.2207375    c-1.0588646,28.6893578-4.0641556,57.6052132-8.938839,85.9887543h14.7309723v-21.9050446h17.0303574V149.4119568z"/></g><g><path d="M83.0351791,100.333992H67.8650208V89.1245117c0-3.8135147,3.1030197-6.9165344,6.9165344-6.9165344h1.3370895    c3.8135223,0,6.9165344,3.1030197,6.9165344,6.9165344V100.333992z M70.2195892,97.9794235h10.4610291v-8.8549118    c0-2.5155182-2.0464478-4.5619659-4.5619736-4.5619659h-1.3370895c-2.5155182,0-4.5619659,2.0464478-4.5619659,4.5619659    V97.9794235z"/></g><g><path d="M96.6256638,63.4231987H51.225563v-8.660614l22.6914291-23.6721153l22.7086716,23.2294846V63.4231987z     M53.5801277,61.068634h40.6909752v-5.7898407L73.9330902,34.4751549L53.5801277,55.7099266V61.068634z"/></g><g><path d="M73.9250412,58.2208519c-4.0607071,0-7.3649139-3.3042107-7.3649139-7.3649139    c0-4.0618553,3.3042068-7.3660622,7.3649139-7.3660622c4.0618515,0,7.3660583,3.3042068,7.3660583,7.3660622    C81.2910995,54.9166412,77.9868927,58.2208519,73.9250412,58.2208519z M73.9250412,45.8444405    c-2.7627029,0-5.0103531,2.2476425-5.0103531,5.0114975c0,2.7627029,2.2476501,5.0103493,5.0103531,5.0103493    c2.763855,0,5.0114975-2.2476463,5.0114975-5.0103493C78.9365387,48.092083,76.6888962,45.8444405,73.9250412,45.8444405z"/></g><g><g><rect x="99.0423431" y="45.6621246" transform="matrix(0.6790514 -0.7340907 0.7340907 0.6790514 -23.0218601 97.6984253)" width="2.3545122" height="59.0310059"/></g><g><rect x="46.3784981" y="-2.9493947" transform="matrix(0.679042 -0.7340994 0.7340994 0.679042 -4.1626272 43.4039688)" width="2.3545122" height="58.8235741"/></g><g><polygon points="115.8519287,103.4772415 93.5410461,82.8380127 97.1660233,78.9187164 98.8951569,80.5167847      96.868248,82.7092438 115.7231674,100.1500397 120.223053,95.2845535 100.5035706,77.0447235 102.1016388,75.3155899      123.5502548,95.1557846    "/></g><g><polygon points="45.749588,26.3951359 24.3009758,6.5549369 31.9992981,-1.7665187 54.3101807,18.872715 50.6852074,22.7920074      48.9560738,21.1939373 50.9829788,19.0014801 32.1280632,1.5606838 27.6281776,6.4261713 47.3476601,24.6660023    "/></g></g><g><g><rect x="70.9825745" y="25.4309826" transform="matrix(0.746007 -0.6659381 0.6659381 0.746007 7.9849091 74.1522446)" width="60.4377136" height="2.3548388"/></g><g><rect x="18.9446774" y="73.1454163" transform="matrix(0.746007 -0.6659381 0.6659381 0.746007 -37.3733826 50.6573029)" width="57.554409" height="2.3548388"/></g><g><polygon points="108.7135086,33.5209122 105.1586685,29.5372372 106.91539,27.9690609 108.9020538,30.1960106      128.0673828,13.0978222 123.6560287,8.1530056 103.6123352,26.0352821 102.0441589,24.2785568 123.844574,4.8281026      131.3922882,13.2863712    "/></g><g><polygon points="26.1542759,95.1431427 18.6077099,86.6837234 41.2864952,66.4491806 44.8413353,70.4328537 43.08461,72.0010376      41.0979462,69.774086 21.9326134,86.8722763 26.3428249,91.8182373 46.3876686,73.9348145 47.9558449,75.6915359    "/></g></g></g><text x="0" y="165" fill="#000000" font-size="5px" font-weight="bold" font-family="'Helvetica Neue', Helvetica, Arial-Unicode, Arial, Sans-serif">Created by Dinosoft Labs</text><text x="0" y="170" fill="#000000" font-size="5px" font-weight="bold" font-family="'Helvetica Neue', Helvetica, Arial-Unicode, Arial, Sans-serif">from the Noun Project</text></svg>