<svg xmlns="http://www.w3.org/2000/svg" xmlns:xlink="http://www.w3.org/1999/xlink" version="1.1" x="0px" y="0px" viewBox="0 0 100 125" enable-background="new 0 0 100 100" xml:space="preserve"><g><path d="M95,76.5h-1.5V75V45v-2.5v-4.586l2.207-2.207c0.267-0.267,0.36-0.66,0.243-1.018c-0.117-0.358-0.426-0.62-0.798-0.677   L88.5,32.988V28.5h0.367c0.553,0,1-0.448,1-1s-0.447-1-1-1H87.5h-24V26h0.367c0.553,0,1-0.448,1-1s-0.447-1-1-1H62.5h-4v-4   c0-0.552-0.447-1-1-1s-1,0.448-1,1v4h-1.75v-4c0-0.552-0.447-1-1-1s-1,0.448-1,1v4H51v-5.684c1.161-0.415,2-1.514,2-2.816   c0-1.654-1.346-3-3-3s-3,1.346-3,3c0,1.302,0.839,2.401,2,2.815V24h-1.75v-4c0-0.552-0.447-1-1-1s-1,0.448-1,1v4H43.5v-4   c0-0.552-0.447-1-1-1s-1,0.448-1,1v4h-4h-1.367c-0.553,0-1,0.448-1,1s0.447,1,1,1H36.5v0.5h-24h-1.367c-0.553,0-1,0.448-1,1   s0.447,1,1,1H11.5v4.488l-6.652,1.023c-0.372,0.057-0.681,0.319-0.798,0.677c-0.117,0.358-0.023,0.751,0.243,1.018L6.5,37.914V42.5   V45v30v1.5H5c-0.553,0-1,0.448-1,1s0.447,1,1,1h2.5h5h10h5h10h5h15h5h10h5h10h5H95c0.553,0,1-0.448,1-1S95.553,76.5,95,76.5z    M50,14.5c0.552,0,1,0.449,1,1c0,0.548-0.443,0.993-0.99,0.998c-0.004,0-0.006-0.002-0.01-0.002s-0.006,0.002-0.01,0.002   C49.443,16.493,49,16.048,49,15.5C49,14.949,49.448,14.5,50,14.5z M19,38.5v3h-3v-3H19z M24,38.5v3h-1.5H21v-3H24z M29,38.5v3h-1.5   H26v-3H29z M34,38.5v3h-3v-3H34z M39,38.5v3h-1.5H36v-3H39z M44,38.5v3h-1.5H41v-3H44z M49,38.5v3h-3v-3H49z M54,38.5v3h-3v-3H54z    M59,38.5v3h-1.5H56v-3H59z M64,38.5v3h-1.5H61v-3H64z M69,38.5v3h-3v-3H69z M74,38.5v3h-1.5H71v-3H74z M79,38.5v3h-1.5H76v-3H79z    M84,38.5v3h-3v-3H84z M91.5,38.5v3h-4H86v-3H91.5z M88.5,43.5h3V44h-3V43.5z M76.5,44h-3v-0.5h3V44z M61.5,44h-3v-0.5h3V44z    M41.5,44h-3v-0.5h3V44z M26.5,44h-3v-0.5h3V44z M14,41.5h-1.5h-4v-3H14V41.5z M11.5,44h-3v-0.5h3V44z M8.5,46h3v28h-3V46z    M13.5,75V45v-1.5h8V45v30v1.5h-8V75z M23.5,46h3v28h-3V46z M28.5,75V45v-1.5h8V45v30v1.5h-8V75z M38.5,46h3v28h-3V46z M43.5,75V45   v-1.5h13V45v30v1.5h-13V75z M58.5,46h3v28h-3V46z M63.5,75V45v-1.5h8V45v30v1.5h-8V75z M73.5,46h3v28h-3V46z M78.5,75V45v-1.5h8V45   v30v1.5h-8V75z M88.5,46h3v28h-3V46z M86.5,28.5v4.181l-23-3.539V28.5H86.5z M61.5,31.5h-23V26h23V31.5z M13.5,28.5h23v0.642   l-23,3.539V28.5z M36.5,31.166V32.5c0,0.552,0.447,1,1,1h25c0.553,0,1-0.448,1-1v-1.334l29.397,4.523L92.086,36.5H7.914   l-0.812-0.812L36.5,31.166z M8.5,76.5V76h3v0.5H8.5z M23.5,76.5V76h3v0.5H23.5z M38.5,76.5V76h3v0.5H38.5z M58.5,76.5V76h3v0.5   H58.5z M73.5,76.5V76h3v0.5H73.5z M88.5,76.5V76h3v0.5H88.5z"/><path d="M42.5,27.75c-0.553,0-1,0.448-1,1s0.447,1,1,1h15c0.553,0,1-0.448,1-1s-0.447-1-1-1H42.5z"/></g><text x="0" y="115" fill="#000000" font-size="5px" font-weight="bold" font-family="'Helvetica Neue', Helvetica, Arial-Unicode, Arial, Sans-serif">Created by Anniken &amp; Andreas</text><text x="0" y="120" fill="#000000" font-size="5px" font-weight="bold" font-family="'Helvetica Neue', Helvetica, Arial-Unicode, Arial, Sans-serif">from the Noun Project</text></svg>