<svg xmlns="http://www.w3.org/2000/svg" xmlns:xlink="http://www.w3.org/1999/xlink" version="1.1" x="0px" y="0px" viewBox="0 0 100 125" enable-background="new 0 0 100 100" xml:space="preserve"><g><path d="M37.5,73.5H39V95c0,0.552,0.448,1,1,1h20c0.552,0,1-0.448,1-1V73.5h1.5c0.552,0,1-0.448,1-1v-25V45c0-0.552-0.448-1-1-1   s-1,0.448-1,1v1.5H61v-4c0-0.011-0.006-0.02-0.006-0.03c-0.002-0.066-0.024-0.131-0.04-0.197c-0.016-0.064-0.024-0.13-0.051-0.189   c-0.004-0.01-0.003-0.021-0.008-0.03L56,32.264V27.5c0-0.048-0.021-0.09-0.027-0.137c-0.007-0.046,0.002-0.092-0.011-0.138L51,9.86   V5c0-0.552-0.448-1-1-1s-1,0.448-1,1v4.86l-4.961,17.365c-0.013,0.046-0.004,0.092-0.011,0.138C44.021,27.41,44,27.452,44,27.5   v4.764l-4.895,9.789c-0.005,0.01-0.004,0.021-0.008,0.03c-0.027,0.059-0.036,0.125-0.051,0.189   c-0.016,0.066-0.038,0.131-0.04,0.197c0,0.011-0.006,0.02-0.006,0.03v4h-0.5V45c0-0.552-0.448-1-1-1s-1,0.448-1,1v2.5v25   C36.5,73.052,36.948,73.5,37.5,73.5z M59,94h-0.5v-4c0-0.552-0.448-1-1-1s-1,0.448-1,1v4H56v-4c0-0.552-0.448-1-1-1s-1,0.448-1,1v4   h-0.5v-4c0-0.552-0.448-1-1-1s-1,0.448-1,1v4h-3v-4c0-0.552-0.448-1-1-1s-1,0.448-1,1v4H46v-4c0-0.552-0.448-1-1-1s-1,0.448-1,1v4   h-0.5v-4c0-0.552-0.448-1-1-1s-1,0.448-1,1v4H41V73.5h18V94z M61.5,71.5H60H40h-1.5v-23h23V71.5z M50,13.64l3.674,12.86h-7.349   L50,13.64z M52.5,29c-0.552,0-1,0.448-1,1v1.5H51V30c0-0.552-0.448-1-1-1s-1,0.448-1,1v1.5h-0.5V30c0-0.552-0.448-1-1-1   s-1,0.448-1,1v1.5H46v-3h8v3h-0.5V30C53.5,29.448,53.052,29,52.5,29z M45.618,33.5h8.764l4,8H41.618L45.618,33.5z M41,43.5h18v3   h-0.5V45c0-0.552-0.448-1-1-1s-1,0.448-1,1v1.5H56V45c0-0.552-0.448-1-1-1s-1,0.448-1,1v1.5h-0.5V45c0-0.552-0.448-1-1-1   s-1,0.448-1,1v1.5h-3V45c0-0.552-0.448-1-1-1s-1,0.448-1,1v1.5H46V45c0-0.552-0.448-1-1-1s-1,0.448-1,1v1.5h-0.5V45   c0-0.552-0.448-1-1-1s-1,0.448-1,1v1.5H41V43.5z"/><path d="M40,49c-0.552,0-1,0.448-1,1v20c0,0.552,0.448,1,1,1h20c0.552,0,1-0.448,1-1V50c0-0.552-0.448-1-1-1H40z M59,69H41V51h18   V69z"/><path d="M50,68.5c4.687,0,8.5-3.813,8.5-8.5s-3.813-8.5-8.5-8.5s-8.5,3.813-8.5,8.5S45.313,68.5,50,68.5z M50,53.5   c3.584,0,6.5,2.916,6.5,6.5s-2.916,6.5-6.5,6.5s-6.5-2.916-6.5-6.5S46.416,53.5,50,53.5z"/><path d="M46.906,64c0.251,0,0.502-0.094,0.696-0.282l3.094-3C50.89,60.53,51,60.271,51,60v-5.344c0-0.552-0.448-1-1-1s-1,0.448-1,1   v4.92l-2.79,2.706c-0.396,0.384-0.406,1.018-0.021,1.414C46.384,63.898,46.645,64,46.906,64z"/><path d="M45,86c0.552,0,1-0.448,1-1v-7.5c0-0.552-0.448-1-1-1s-1,0.448-1,1V85C44,85.552,44.448,86,45,86z"/><path d="M42.5,86c0.552,0,1-0.448,1-1v-7.5c0-0.552-0.448-1-1-1s-1,0.448-1,1V85C41.5,85.552,41.948,86,42.5,86z"/><path d="M47.5,86c0.552,0,1-0.448,1-1v-7.5c0-0.552-0.448-1-1-1s-1,0.448-1,1V85C46.5,85.552,46.948,86,47.5,86z"/><path d="M52.5,86c0.552,0,1-0.448,1-1v-7.5c0-0.552-0.448-1-1-1s-1,0.448-1,1V85C51.5,85.552,51.948,86,52.5,86z"/><path d="M55,86c0.552,0,1-0.448,1-1v-7.5c0-0.552-0.448-1-1-1s-1,0.448-1,1V85C54,85.552,54.448,86,55,86z"/><path d="M57.5,86c0.552,0,1-0.448,1-1v-7.5c0-0.552-0.448-1-1-1s-1,0.448-1,1V85C56.5,85.552,56.948,86,57.5,86z"/><circle cx="57.5" cy="52.5" r="0.75"/><circle cx="42.5" cy="52.5" r="0.75"/><circle cx="57.5" cy="67.5" r="0.75"/><circle cx="42.5" cy="67.5" r="0.75"/></g><text x="0" y="115" fill="#000000" font-size="5px" font-weight="bold" font-family="'Helvetica Neue', Helvetica, Arial-Unicode, Arial, Sans-serif">Created by Anniken &amp; Andreas</text><text x="0" y="120" fill="#000000" font-size="5px" font-weight="bold" font-family="'Helvetica Neue', Helvetica, Arial-Unicode, Arial, Sans-serif">from the Noun Project</text></svg>