<svg xmlns="http://www.w3.org/2000/svg" xmlns:xlink="http://www.w3.org/1999/xlink" version="1.1" x="0px" y="0px" viewBox="0 0 100 125" enable-background="new 0 0 100 100" xml:space="preserve"><g><path d="M30,93.5h6.458c0.006,0,0.011-0.002,0.017-0.002c0.084-0.001,0.168-0.012,0.25-0.035c0.033-0.009,0.062-0.026,0.093-0.039   c0.052-0.02,0.104-0.038,0.152-0.067c0.031-0.019,0.057-0.044,0.086-0.066c0.042-0.032,0.086-0.062,0.124-0.101   c0.028-0.029,0.048-0.064,0.072-0.097c0.027-0.036,0.059-0.068,0.082-0.109l0.824-1.491C40.279,87.822,46.28,78.5,52.5,78.5   s12.221,9.322,14.342,12.992l0.824,1.491c0.022,0.041,0.054,0.073,0.082,0.109c0.024,0.033,0.044,0.068,0.072,0.097   c0.038,0.039,0.081,0.069,0.124,0.101c0.029,0.022,0.055,0.048,0.086,0.066c0.048,0.029,0.1,0.047,0.152,0.067   c0.031,0.013,0.061,0.03,0.093,0.039c0.081,0.022,0.165,0.033,0.25,0.035c0.006,0,0.011,0.002,0.017,0.002H75   c0.357,0,0.688-0.19,0.866-0.5s0.178-0.691,0-1l-8.497-14.703c-0.047-0.218-0.153-0.407-0.316-0.547l-1.244-2.152   C65.92,74.436,66,74.252,66,74.042V70c0-0.552-0.448-1-1-1h-2.034c-1.487-1.968-3.256-8.465-4.235-13H60c0.552,0,1-0.448,1-1   s-0.448-1-1-1h-1.701C56.028,43.444,56,12.816,56,12.5c0-0.552-0.448-1-1-1h-1.5V5c0-0.552-0.448-1-1-1s-1,0.448-1,1v6.5H50   c-0.134,0-0.264,0.027-0.385,0.078c-0.243,0.102-0.436,0.295-0.538,0.538C49.027,12.236,49,12.366,49,12.5   c0,0.316-0.028,30.943-2.299,41.5H45c-0.552,0-1,0.448-1,1s0.448,1,1,1h1.27c-0.979,4.535-2.748,11.032-4.235,13H40   c-0.552,0-1,0.448-1,1v4.042c0,0.21,0.08,0.395,0.191,0.556L29.134,92c-0.179,0.31-0.179,0.691,0,1S29.643,93.5,30,93.5z    M44.36,80.264l0.974-1.764h1.299C45.848,79.018,45.089,79.616,44.36,80.264z M41.244,75.042h3.715L44.154,76.5h-3.752   L41.244,75.042z M47.245,75.042h10.511l0.806,1.458H46.439L47.245,75.042z M63.756,75.042l0.843,1.458h-3.752l-0.806-1.458H63.756z    M58.367,78.5h1.299l0.974,1.764C59.911,79.616,59.153,79.018,58.367,78.5z M69.145,91.5c-0.168-0.312-0.409-0.745-0.708-1.26   L61.951,78.5h3.803l7.513,13H69.145z M58.129,69c-1.526-3.209-2.374-6.359-2.75-8h2.491c0.733,2.786,1.704,5.937,2.771,8H58.129z    M55.924,69h-6.848c1.507-3.395,2.287-6.548,2.597-8h1.654C53.637,62.452,54.417,65.605,55.924,69z M56.256,54H54.8   c-0.317-2.947-1.3-12.592-1.3-19V18.5h0.546C54.168,27.908,54.616,45.817,56.256,54z M52.788,54h-0.576   c0.073-0.688,0.174-1.662,0.288-2.833C52.614,52.338,52.715,53.312,52.788,54z M54,13.5v3h-3v-3H54z M50.954,18.5H51.5V35   c0,6.408-0.982,16.053-1.3,19h-1.457C50.384,45.817,50.832,27.908,50.954,18.5z M56.686,56c0.149,0.705,0.381,1.761,0.68,3h-3.216   h-3.298h-3.216c0.299-1.239,0.531-2.295,0.68-3H56.686z M47.13,61h2.491c-0.375,1.639-1.221,4.785-2.75,8h-2.512   C45.427,66.937,46.397,63.786,47.13,61z M41,71h23v2.042H41V71z M39.246,78.5h3.803l-6.485,11.74   c-0.299,0.515-0.54,0.948-0.708,1.26h-4.123L39.246,78.5z"/></g><text x="0" y="115" fill="#000000" font-size="5px" font-weight="bold" font-family="'Helvetica Neue', Helvetica, Arial-Unicode, Arial, Sans-serif">Created by Anniken &amp; Andreas</text><text x="0" y="120" fill="#000000" font-size="5px" font-weight="bold" font-family="'Helvetica Neue', Helvetica, Arial-Unicode, Arial, Sans-serif">from the Noun Project</text></svg>