<svg xmlns="http://www.w3.org/2000/svg" xmlns:xlink="http://www.w3.org/1999/xlink" version="1.1" x="0px" y="0px" viewBox="0 0 100 125" enable-background="new 0 0 100 100" xml:space="preserve"><g><path d="M93.211,52.991c-4.49-5.481-22.549-5.913-23.315-5.929c-0.483,0-0.867,0.297-0.986,0.742l-0.69,2.581   c-0.993-0.022-1.85-0.035-2.469-0.042V50c0-0.552-0.447-1-1-1h-3.948l-2.427-7.9V35c0-0.552-0.447-1-1-1h-1.513l-4.935-12.249   c-0.157-0.388-0.546-0.652-0.954-0.626c-0.861,0.022-21.271,0.653-36.324,9.769c-0.281,0.17-0.461,0.469-0.48,0.797   c-0.085,1.418-0.607,2.919-1.017,2.919c-0.046,0-0.176-0.014-0.405-0.145c-0.354-0.203-0.8-0.17-1.12,0.087   c-0.112,0.089-2.755,2.234-3.956,6.065c-0.03,0.097-0.046,0.198-0.046,0.299V72.5c0,0.178,0.048,0.353,0.138,0.506   c0.164,0.279,0.745,0.91,2.761,1.642c0.023,0.01,0.048,0.016,0.072,0.025c4.445,1.595,15.706,3.659,44.241,3.66   c0.002,0,0.004,0,0.006,0c6.556,0,13.796-0.112,21.52-0.333l0,0c0.041-0.001,0.081-0.002,0.122-0.003   c0.006,0,0.011,0.003,0.017,0.003c0.008,0,0.014-0.004,0.021-0.004c3.198-0.082,6.507-0.09,7.634-0.09c0.285,0,0.397,0.001,0.406,0   c0.301,0,0.586-0.136,0.776-0.369c0.133-0.164,0.186-0.365,0.198-0.571c5.586-0.263,8.27-1.714,8.386-1.779   c0.317-0.176,0.515-0.511,0.515-0.874V53.625C93.438,53.394,93.357,53.17,93.211,52.991z M74.958,52.679l0.147,0.857L65.75,53.24   v-0.896C67.689,52.368,72.023,52.447,74.958,52.679z M82.563,64.22h-0.784l-0.649-0.204v-2.7c0-0.404,0.321-0.732,0.717-0.732   s0.717,0.328,0.717,0.732V64.22z M80.239,65.833h-6.802v-0.667h0.479c0.553,0,1-0.448,1-1V59.25c0-1.907-1.551-3.458-3.458-3.458   S68,57.344,68,59.25v3.071l-0.021-0.004l-2.013-7.07l9.486,0.301l1.499,8.684c0.063,0.369,0.328,0.672,0.686,0.784L80.239,65.833z    M8.625,58.079c2.175-0.625,9.442-2.533,19.703-3.332c11.164-0.87,30.804-0.981,35.422-0.995v0.873   c0,0.093,0.013,0.185,0.038,0.274l2.438,8.563c0.104,0.365,0.405,0.64,0.778,0.709l4.434,0.827v0.252H8.625V58.079z M72.916,63.167   h-0.387L70,62.695V59.25c0-0.804,0.654-1.458,1.458-1.458s1.458,0.654,1.458,1.458V63.167z M59.106,50.293   C59.235,50.713,59.623,51,60.063,51h3.688v0.752c-4.627,0.014-24.342,0.125-35.578,1.001c-9.783,0.763-16.784,2.478-19.547,3.246   v-6.035c0.397-0.676,2.866-4.04,13.598-6.488c12.075-2.755,28.3-3.619,34.152-3.559v1.334c0,0.1,0.015,0.198,0.044,0.293   L59.106,50.293z M55.188,36h1.188v1.916c-6.075-0.062-22.209,0.782-34.598,3.609c-7.408,1.69-11.214,3.842-13.152,5.477V44.95   c0.631-1.403,7.438-14.276,43.296-15.381l2.339,5.805C54.412,35.752,54.779,36,55.188,36z M11.453,36.505   c0.236,0.07,0.47,0.105,0.699,0.105c2.209,0,2.808-2.972,2.963-4.262c13.039-7.693,30.554-9,34.222-9.193l1.79,4.443   c-28.105,0.999-38.723,9.09-42.502,13.688v-0.213C9.381,38.777,10.76,37.195,11.453,36.505z M11.721,73.266   c-0.285-0.079-0.547-0.156-0.786-0.231v-1.577c0-0.75,0.239-1.244,0.393-1.414c0.153,0.17,0.394,0.664,0.394,1.414V73.266z    M17.771,74.478c-0.514-0.077-0.994-0.154-1.454-0.231v-2.788c0-0.876,0.438-1.458,0.727-1.458c0.29,0,0.728,0.582,0.728,1.458   V74.478z M23.919,75.213c-0.649-0.062-1.274-0.125-1.871-0.19v-3.564c0-0.859,0.492-1.458,0.935-1.458   c0.443,0,0.937,0.599,0.937,1.458V75.213z M30.513,75.721c-0.741-0.045-1.459-0.093-2.152-0.142v-4.12   c0-0.791,0.493-1.458,1.076-1.458s1.076,0.667,1.076,1.458V75.721z M37.788,76.069c-0.887-0.032-1.747-0.066-2.582-0.103v-4.508   c0-0.804,0.579-1.458,1.291-1.458s1.291,0.654,1.291,1.458V76.069z M45.595,76.268c-0.998-0.016-1.97-0.035-2.916-0.057v-4.752   c0-0.804,0.654-1.458,1.458-1.458s1.458,0.654,1.458,1.458V76.268z M53.401,76.332c-0.99,0-1.969-0.003-2.916-0.008v-4.865   c0-0.804,0.654-1.458,1.458-1.458s1.458,0.654,1.458,1.458V76.332z M61.208,76.285c-0.978,0.011-1.963,0.024-2.916,0.031v-4.857   c0-0.804,0.654-1.458,1.458-1.458s1.458,0.654,1.458,1.458V76.285z M69.015,76.158c-0.987,0.021-1.948,0.038-2.916,0.055v-4.754   c0-0.804,0.654-1.458,1.458-1.458s1.458,0.654,1.458,1.458V76.158z M71.015,76.109v-4.651c0-1.907-1.551-3.458-3.458-3.458   s-3.458,1.551-3.458,3.458v4.79c-0.297,0.004-0.597,0.01-0.891,0.014v-4.804c0-1.907-1.551-3.458-3.458-3.458   s-3.458,1.551-3.458,3.458v4.865c-0.297,0.001-0.596,0.003-0.891,0.004v-4.869c0-1.907-1.551-3.458-3.458-3.458   s-3.458,1.551-3.458,3.458v4.846c-0.295-0.003-0.601-0.005-0.891-0.008v-4.838c0-1.907-1.551-3.458-3.458-3.458   s-3.458,1.551-3.458,3.458v4.703c-0.301-0.008-0.596-0.018-0.891-0.026v-4.676c0-1.907-1.477-3.458-3.291-3.458   s-3.291,1.551-3.291,3.458v4.414c-0.235-0.012-0.463-0.024-0.693-0.037v-4.377c0-1.907-1.38-3.458-3.076-3.458   s-3.076,1.551-3.076,3.458v3.968c-0.147-0.012-0.297-0.024-0.441-0.036v-3.933c0-1.907-1.317-3.458-2.937-3.458   c-1.618,0-2.935,1.551-2.935,3.458v3.329c-0.093-0.012-0.185-0.023-0.276-0.035v-3.294c0-1.939-1.198-3.458-2.728-3.458   s-2.727,1.519-2.727,3.458v2.418c-0.203-0.041-0.407-0.083-0.597-0.124v-2.295c0-1.971-1.028-3.458-2.393-3.458   s-2.394,1.487-2.394,3.458v0.783c-0.131-0.071-0.232-0.134-0.31-0.186V67.25h62.813v1.313c0,0.11,0.019,0.22,0.054,0.325   l2.455,7.151C72.953,76.065,71.99,76.086,71.015,76.109z M78.75,75.935c-0.723,0.009-1.479,0.021-2.249,0.038v-4.514   c0-0.791,0.515-1.458,1.124-1.458s1.125,0.667,1.125,1.458V75.935z M80.75,75.915v-4.457c0-1.907-1.402-3.458-3.125-3.458   s-3.124,1.551-3.124,3.458v0.035l-1.063-3.098v-0.562h7.196c0.003,0.042,0.004,0.083,0.013,0.124l1.683,7.95   C81.893,75.908,81.352,75.911,80.75,75.915z M88.854,74.421c-0.313,0.067-0.652,0.131-1.015,0.192v-3.564   c0-0.64,0.333-1.048,0.507-1.048c0.175,0,0.508,0.408,0.508,1.048V74.421z M91.438,73.667c-0.155,0.062-0.357,0.135-0.584,0.212   v-2.83c0-1.709-1.102-3.048-2.508-3.048c-1.405,0-2.507,1.339-2.507,3.048v3.817c-0.354,0.033-0.719,0.061-1.105,0.083v-3.9   c0-1.506-0.855-2.722-2.021-2.99l-0.088-0.413V66.22h0.938c0.553,0,1-0.448,1-1v-3.904c0-1.506-1.219-2.732-2.717-2.732   s-2.717,1.226-2.717,2.732v2.072l-0.31-0.097L76.798,51.58c-0.076-0.443-0.439-0.781-0.888-0.825   c-1.565-0.154-3.673-0.252-5.637-0.314l0.363-1.355c5.354,0.192,17.373,1.351,20.801,4.919V73.667z"/><path d="M59.75,54.584c-1.907,0-3.458,1.551-3.458,3.458v5.542c0,0.552,0.447,1,1,1h4.916c0.553,0,1-0.448,1-1v-5.542   C63.208,56.135,61.657,54.584,59.75,54.584z M61.208,62.583h-2.916v-4.542c0-0.804,0.654-1.458,1.458-1.458   s1.458,0.654,1.458,1.458V62.583z"/><path d="M86.816,66.738h3.059c0.553,0,1-0.448,1-1v-3.904c0-1.506-1.135-2.732-2.529-2.732s-2.529,1.226-2.529,2.732v3.904   C85.816,66.29,86.264,66.738,86.816,66.738z M87.816,61.833c0-0.39,0.247-0.732,0.529-0.732c0.287,0,0.529,0.335,0.529,0.732v2.904   h-1.059V61.833z"/><path d="M22.982,56.002c-1.618,0-2.935,1.551-2.935,3.458v4.265c0,0.269,0.108,0.526,0.3,0.714c0.187,0.184,0.438,0.286,0.7,0.286   c0.006,0,0.013,0,0.019,0l3.87-0.07c0.545-0.01,0.982-0.455,0.982-1V59.46C25.919,57.554,24.602,56.002,22.982,56.002z    M23.919,62.674l-1.871,0.034V59.46c0-0.859,0.492-1.458,0.935-1.458c0.443,0,0.937,0.599,0.937,1.458V62.674z"/><path d="M29.437,55.435c-1.696,0-3.076,1.551-3.076,3.458v4.723c0,0.268,0.107,0.525,0.299,0.713   c0.187,0.184,0.438,0.287,0.701,0.287c0.005,0,0.011,0,0.016,0l4.15-0.063c0.547-0.008,0.986-0.453,0.986-1v-4.66   C32.513,56.986,31.133,55.435,29.437,55.435z M30.513,62.568l-2.152,0.032v-3.708c0-0.791,0.493-1.458,1.076-1.458   s1.076,0.667,1.076,1.458V62.568z"/><path d="M17.044,56.57c-1.529,0-2.727,1.519-2.727,3.458v3.813c0,0.269,0.108,0.526,0.301,0.714   c0.187,0.184,0.438,0.286,0.699,0.286c0.007,0,0.014,0,0.021,0l3.452-0.071c0.545-0.011,0.98-0.456,0.98-1v-3.742   C19.771,58.089,18.573,56.57,17.044,56.57z M17.771,62.79l-1.454,0.03v-2.792c0-0.876,0.438-1.458,0.727-1.458   c0.29,0,0.728,0.582,0.728,1.458V62.79z"/><path d="M11.328,57.705c-1.364,0-2.394,1.487-2.394,3.458v2.795c0,0.269,0.108,0.527,0.301,0.715   c0.188,0.183,0.438,0.285,0.699,0.285c0.008,0,0.015,0,0.022,0l2.785-0.062c0.544-0.012,0.979-0.456,0.979-1v-2.733   C13.721,59.191,12.692,57.705,11.328,57.705z M11.721,62.918l-0.786,0.018v-1.773c0-0.75,0.239-1.244,0.393-1.414   c0.153,0.17,0.394,0.664,0.394,1.414V62.918z"/><path d="M51.943,54.584c-1.907,0-3.458,1.551-3.458,3.458v5.369c0,0.552,0.447,1,1,1c1.859,0,3.487,0.006,4.909,0.016   c0,0,0.005,0,0.007,0c0.264,0,0.518-0.104,0.704-0.291c0.189-0.188,0.296-0.443,0.296-0.709v-5.385   C55.401,56.135,53.851,54.584,51.943,54.584z M53.401,62.421c-0.896-0.005-1.866-0.008-2.916-0.009v-4.37   c0-0.804,0.654-1.458,1.458-1.458s1.458,0.654,1.458,1.458V62.421z"/><path d="M36.497,55.151c-1.814,0-3.291,1.551-3.291,3.458v4.908c0,0.268,0.107,0.523,0.297,0.711   c0.188,0.185,0.44,0.289,0.703,0.289c0.004,0,0.008,0,0.013,0c1.608-0.02,3.132-0.037,4.579-0.051c0.549-0.005,0.99-0.452,0.99-1   v-4.857C39.788,56.703,38.312,55.151,36.497,55.151z M37.788,62.477c-0.835,0.009-1.695,0.019-2.582,0.029v-3.896   c0-0.804,0.579-1.458,1.291-1.458s1.291,0.654,1.291,1.458V62.477z"/><path d="M44.137,54.868c-1.907,0-3.458,1.551-3.458,3.458v5.117c0,0.267,0.106,0.522,0.296,0.71c0.188,0.186,0.44,0.29,0.704,0.29   c0.003,0,0.005,0,0.008,0c1.771-0.013,3.397-0.021,4.911-0.026c0.551-0.001,0.997-0.449,0.997-1v-5.091   C47.595,56.419,46.044,54.868,44.137,54.868z M45.595,62.42c-0.928,0.003-1.897,0.009-2.916,0.016v-4.11   c0-0.804,0.654-1.458,1.458-1.458s1.458,0.654,1.458,1.458V62.42z"/><path d="M22.982,44.075c-1.618,0-2.935,1.551-2.935,3.458v4.322c0,0.293,0.129,0.571,0.352,0.761   c0.182,0.155,0.412,0.239,0.648,0.239c0.053,0,0.105-0.004,0.159-0.013c1.19-0.191,2.476-0.38,3.845-0.563   c0.496-0.066,0.867-0.49,0.867-0.991v-3.755C25.919,45.626,24.602,44.075,22.982,44.075z M23.919,50.415   c-0.644,0.089-1.268,0.18-1.871,0.271v-3.153c0-0.859,0.492-1.458,0.935-1.458c0.443,0,0.937,0.599,0.937,1.458V50.415z"/><path d="M29.437,42.738c-1.696,0-3.076,1.551-3.076,3.458v4.786c0,0.286,0.122,0.558,0.336,0.748   c0.184,0.164,0.421,0.252,0.664,0.252c0.039,0,0.078-0.002,0.117-0.007c1.305-0.154,2.68-0.303,4.13-0.441   c0.514-0.049,0.905-0.48,0.905-0.996v-4.343C32.513,44.29,31.133,42.738,29.437,42.738z M30.513,49.632   c-0.737,0.074-1.454,0.15-2.152,0.228v-3.664c0-0.791,0.493-1.458,1.076-1.458s1.076,0.667,1.076,1.458V49.632z"/><path d="M16.882,45.809c-1.529,0-2.727,1.519-2.727,3.458v3.651c0,0.302,0.137,0.587,0.371,0.777   c0.18,0.146,0.402,0.223,0.629,0.223c0.069,0,0.14-0.007,0.209-0.022c1.023-0.219,2.172-0.444,3.422-0.668   c0.477-0.085,0.823-0.5,0.823-0.984v-2.977C19.609,47.328,18.411,45.809,16.882,45.809z M17.609,51.411   c-0.504,0.094-0.989,0.188-1.454,0.28v-2.424c0-0.876,0.438-1.458,0.727-1.458c0.29,0,0.728,0.582,0.728,1.458V51.411z"/><path d="M11.328,48.469c-1.342,0-2.394,1.378-2.394,3.137v2.662c0,0.316,0.149,0.613,0.402,0.802   c0.175,0.13,0.385,0.198,0.598,0.198c0.096,0,0.191-0.014,0.285-0.042c0.822-0.245,1.744-0.494,2.741-0.74   c0.446-0.11,0.76-0.511,0.76-0.971v-1.91C13.721,49.847,12.67,48.469,11.328,48.469z M11.721,52.737   c-0.269,0.069-0.53,0.138-0.786,0.208v-1.339c0-0.697,0.295-1.097,0.374-1.14c0.117,0.043,0.412,0.444,0.412,1.14V52.737z"/><path d="M51.943,41.036c-1.907,0-3.458,1.551-3.458,3.458v5.034c0,0.269,0.108,0.527,0.301,0.715   c0.187,0.183,0.438,0.285,0.699,0.285c0.007,0,0.015,0,0.021,0c1.578-0.035,3.22-0.054,4.901-0.065c0.55-0.003,0.993-0.45,0.993-1   v-4.969C55.401,42.587,53.851,41.036,51.943,41.036z M53.401,48.47c-0.989,0.009-1.963,0.021-2.916,0.038v-4.014   c0-0.804,0.654-1.458,1.458-1.458s1.458,0.654,1.458,1.458V48.47z"/><path d="M36.497,41.887c-1.814,0-3.291,1.551-3.291,3.458V50.3c0,0.279,0.117,0.546,0.322,0.736   c0.186,0.17,0.428,0.264,0.678,0.264c0.027,0,0.055-0.001,0.082-0.003c1.455-0.12,2.973-0.23,4.562-0.329   c0.527-0.033,0.938-0.47,0.938-0.998v-4.625C39.788,43.438,38.312,41.887,36.497,41.887z M37.788,49.032   c-0.883,0.058-1.742,0.12-2.582,0.186v-3.872c0-0.804,0.579-1.458,1.291-1.458s1.291,0.654,1.291,1.458V49.032z"/><path d="M44.137,41.32c-1.907,0-3.458,1.551-3.458,3.458v5.031c0,0.274,0.112,0.536,0.311,0.725   c0.187,0.177,0.434,0.275,0.689,0.275c0.017,0,0.033,0,0.051-0.001c1.573-0.079,3.197-0.149,4.897-0.203   c0.539-0.017,0.968-0.459,0.968-1v-4.827C47.595,42.871,46.044,41.32,44.137,41.32z M45.595,48.638   c-0.995,0.036-1.966,0.077-2.916,0.121v-3.981c0-0.804,0.654-1.458,1.458-1.458s1.458,0.654,1.458,1.458V48.638z"/><path d="M38.788,32.313c-0.553,0-1,0.448-1,1v2.813c0,0.552,0.447,1,1,1s1-0.448,1-1v-2.813   C39.788,32.76,39.341,32.313,38.788,32.313z"/><path d="M26.563,34.625c-0.553,0-1,0.448-1,1v2.438c0,0.552,0.447,1,1,1s1-0.448,1-1v-2.438   C27.563,35.073,27.115,34.625,26.563,34.625z"/><path d="M17.031,38.469c-0.553,0-1,0.448-1,1v1.125c0,0.552,0.447,1,1,1s1-0.448,1-1v-1.125   C18.031,38.917,17.584,38.469,17.031,38.469z"/><path d="M80.469,56.467c0.553,0,1-0.448,1-1v-2.719c0-0.552-0.447-1-1-1s-1,0.448-1,1v2.719   C79.469,56.02,79.916,56.467,80.469,56.467z"/><path d="M86.839,57.165c0.553,0,1-0.448,1-1v-1.761c0-0.552-0.447-1-1-1s-1,0.448-1,1v1.761   C85.839,56.717,86.286,57.165,86.839,57.165z"/></g><text x="0" y="115" fill="#000000" font-size="5px" font-weight="bold" font-family="'Helvetica Neue', Helvetica, Arial-Unicode, Arial, Sans-serif">Created by Anniken &amp; Andreas</text><text x="0" y="120" fill="#000000" font-size="5px" font-weight="bold" font-family="'Helvetica Neue', Helvetica, Arial-Unicode, Arial, Sans-serif">from the Noun Project</text></svg>