<?xml version="1.0" encoding="UTF-8"?>
<svg width="201px" height="248px" viewBox="0 0 201 248" version="1.1" xmlns="http://www.w3.org/2000/svg" xmlns:xlink="http://www.w3.org/1999/xlink">
    <!-- Generator: Sketch 45.2 (43514) - http://www.bohemiancoding.com/sketch -->
    <title>amsterdam</title>
    <desc>Created with Sketch.</desc>
    <defs></defs>
    <g id="Page-1" stroke="none" stroke-width="1" fill="none" fill-rule="evenodd">
        <g id="amsterdam" fill-rule="nonzero" fill="#575757">
            <path d="M200.367,148.00447 C200.367,108.084689 176.693143,72.0472742 140.052553,56.1901992 C138.500219,55.5288498 136.696817,56.2330644 136.026283,57.7853983 C135.355748,59.3377321 136.069148,61.138072 137.621482,61.8116685 C154.219513,68.997719 167.948635,80.623383 177.749465,94.915877 L138.555331,94.915877 L123.246319,79.6068646 L127.839023,79.6068646 C129.5322,79.6068646 130.900825,78.235177 130.900825,76.5450621 L130.900825,3.06180248 C130.900825,1.37168751 129.5322,0 127.839023,0 L100.2828,0 C98.5896237,0 97.2209979,1.37168751 97.2209979,3.06180248 L97.2209979,62.8557432 C94.5511062,63.4252384 92.0924788,64.7326281 90.1176162,66.7074907 L81.9119855,74.9131214 L81.9119855,67.3596546 C81.9119855,65.6695397 80.5433598,64.2978521 78.850183,64.2978521 L57.9993081,64.2978521 C59.6679905,63.4527947 61.3305492,62.5863046 63.0420968,61.8453484 C64.5944307,61.1717518 65.3047689,59.3683501 64.6342341,57.8190781 C63.9636994,56.269806 62.1572359,55.5594679 60.6079639,56.2269408 C58.3759098,57.1975322 56.1805975,58.2691631 54.0159031,59.40203 C53.7740207,59.5275639 53.5321383,59.6439124 53.2933177,59.7725081 C51.2296628,60.874757 49.2149968,62.0596745 47.2370724,63.3027663 C46.6890098,63.6242556 46.6737008,63.6548736 46.6461445,63.6732444 C46.3185317,63.8845088 45.9817334,64.083526 45.6541205,64.2947903 L5.36692345,64.2947903 C3.67374668,64.2947903 2.30512097,65.6664779 2.30512097,67.3565928 L2.30512097,94.9128152 C2.30512097,96.6029301 3.67374668,97.9746177 5.36692345,97.9746177 L13.8266837,97.9746177 C5.03931059,113.145849 0.367,130.319499 0.367,148.00447 C0.367,172.535632 9.26153621,195.018447 23.9734971,212.43398 C24.2031323,212.988166 24.6225993,213.416818 25.1155495,213.750555 C27.8129975,216.83379 30.6849682,219.757811 33.7375853,222.488939 C51.7409839,238.462363 74.9555703,248.006001 100.365469,248.006001 C130.478297,248.006001 157.501765,234.607553 175.851148,213.484178 C191.181593,195.725724 200.367,172.924481 200.367,148.00447 Z M172.330075,208.202569 L158.457048,208.202569 L158.457048,202.078964 C158.457048,202.07284 158.453986,202.066717 158.453986,202.060593 C158.450924,201.708486 158.368255,201.365564 158.245783,201.031827 C158.212103,200.943035 158.181485,200.857305 158.141682,200.774636 C158.108002,200.704215 158.092693,200.62767 158.055951,200.56031 L146.075118,179.590025 L143.88593,167.073376 L158.848958,128.595704 L192.185864,128.595704 C193.514686,134.899956 194.243395,141.390977 194.243395,148.007532 C194.243395,170.897567 185.994899,191.892347 172.330075,208.202569 Z M163.536578,217.387976 L158.457048,217.387976 L158.457048,214.326174 L166.745347,214.326174 C165.69821,215.37331 164.629641,216.39289 163.536578,217.387976 Z M130.227229,236.983512 L133.33802,223.511581 L142.064157,223.511581 L138.980922,233.538984 C136.133446,234.828003 133.215548,235.979241 130.227229,236.983512 Z M114.030294,240.878125 L115.365239,223.511581 L127.05214,223.511581 L123.479016,238.995116 C120.386596,239.782 117.232939,240.406607 114.030294,240.878125 Z M77.0773994,238.955313 L73.5134613,223.511581 L85.2003614,223.511581 L86.5322455,240.856692 C83.3265383,240.379051 80.1728817,239.74832 77.0773994,238.955313 Z M61.5601844,233.453254 L58.5014437,223.511581 L67.2306426,223.511581 L70.3261249,236.922276 C67.3316821,235.90882 64.4076607,234.751458 61.5601844,233.453254 Z M37.1974221,217.387976 C36.1043586,216.39289 35.0327277,215.37331 33.9886531,214.326174 L42.1085533,214.326174 L42.1085533,217.387976 L37.1974221,217.387976 Z M45.1703557,223.511581 L52.096153,223.511581 L53.9577289,229.555579 C50.7397745,227.715436 47.6289831,225.706894 44.6620965,223.511581 L45.1703557,223.511581 Z M48.2321582,217.387976 L48.2321582,214.326174 L152.333443,214.326174 L152.333443,217.387976 L48.2321582,217.387976 Z M48.2321582,205.140766 L152.333443,205.140766 L152.333443,208.202569 L48.2321582,208.202569 L48.2321582,205.140766 Z M35.9849483,91.8540745 L35.9849483,82.3502396 L45.1703557,82.3502396 L45.1703557,91.8540745 L35.9849483,91.8540745 Z M20.6759359,91.8540745 L20.6759359,82.3502396 L29.8613433,82.3502396 L29.8613433,91.8540745 L20.6759359,91.8540745 Z M45.1703557,70.4214571 L45.1703557,76.2266346 L35.9849483,76.2266346 L35.9849483,70.4214571 L45.1703557,70.4214571 Z M29.8613433,76.2266346 L20.6759359,76.2266346 L20.6759359,70.4214571 L29.8613433,70.4214571 L29.8613433,76.2266346 Z M51.2939607,82.3502396 L60.4793682,82.3502396 L60.4793682,91.8540745 L51.2939607,91.8540745 L51.2939607,82.3502396 Z M91.6270848,97.8705164 C92.8671148,101.480382 96.2565302,104.101284 100.2828,104.101284 L100.2828,110.175901 L65.3047689,110.126912 C62.9012539,106.915081 63.1492599,102.337686 66.0579723,99.425912 L67.5062048,97.9776795 L91.097393,97.9776795 C91.2872247,97.9776795 91.4495003,97.9041962 91.6270848,97.8705164 Z M100.2828,91.8540745 L103.344603,91.8540745 C105.034718,91.8540745 106.406405,93.2288238 106.406405,94.915877 C106.406405,96.6029301 105.034718,97.9776795 103.344603,97.9776795 L100.2828,97.9776795 C98.5957473,97.9776795 97.2209979,96.6029301 97.2209979,94.915877 C97.2209979,93.2288238 98.5957473,91.8540745 100.2828,91.8540745 Z M170.704258,122.472099 L170.704258,116.348494 L176.827863,116.348494 L176.827863,122.472099 L170.704258,122.472099 Z M161.231041,122.472099 L163.613123,116.348494 L164.580653,116.348494 L164.580653,122.472099 L161.231041,122.472099 Z M137.6521,131.437057 C139.029911,131.17068 140.077047,130.037813 140.129098,128.595704 L152.27833,128.595704 L141.846769,155.423218 L137.6521,131.437057 Z M78.850183,183.708149 L78.850183,177.584544 L84.973788,177.584544 L84.973788,183.708149 L78.850183,183.708149 Z M66.7928049,125.426739 L66.7928049,116.253578 L72.7265781,116.259702 L72.7265781,125.426739 L66.7928049,125.426739 L66.7928049,125.426739 Z M78.850183,131.657507 L84.973788,131.657507 L84.973788,140.842914 L78.850183,140.842914 L78.850183,131.657507 Z M78.850183,146.966519 L84.973788,146.966519 L84.973788,156.151927 L78.850183,156.151927 L78.850183,146.966519 Z M91.097393,146.966519 L100.2828,146.966519 L100.2828,156.151927 L91.097393,156.151927 L91.097393,146.966519 Z M91.097393,140.842914 L91.097393,131.657507 L100.2828,131.657507 L100.2828,140.842914 L91.097393,140.842914 Z M78.850183,162.275532 L84.973788,162.275532 L84.973788,171.460939 L78.850183,171.460939 L78.850183,162.275532 Z M91.097393,162.275532 L100.2828,162.275532 L100.2828,171.460939 L91.097393,171.460939 L91.097393,162.275532 Z M100.2828,125.426739 L91.097393,125.426739 L91.097393,116.348494 L100.2828,116.348494 L100.2828,125.426739 Z M78.850183,116.348494 L84.973788,116.348494 L84.973788,125.426739 L78.850183,125.426739 L78.850183,116.348494 Z M91.097393,177.584544 L100.2828,177.584544 L100.2828,183.708149 L91.097393,183.708149 L91.097393,177.584544 Z M106.406405,116.305629 L121.715418,116.327062 L121.715418,125.426739 L106.406405,125.426739 L106.406405,116.305629 Z M106.406405,103.537913 C107.8577,103.020468 109.128348,102.163163 110.141804,101.039482 L121.715418,101.039482 L121.715418,110.203457 L106.406405,110.182024 L106.406405,103.537913 Z M149.27164,122.472099 L140.150531,122.472099 L140.150531,116.348494 L149.27164,116.348494 L149.27164,122.472099 Z M155.395245,116.348494 L157.042495,116.348494 L155.395245,120.586029 L155.395245,116.348494 Z M127.839023,116.348494 L133.962628,116.348494 L133.962628,122.472099 L127.839023,122.472099 L127.839023,116.348494 Z M133.962628,110.221828 L127.839023,110.212642 L127.839023,101.039482 L133.962628,101.039482 L133.962628,110.221828 Z M182.951467,116.348494 L188.701533,116.348494 C189.424118,118.36316 190.082405,120.402321 190.66721,122.472099 L182.951467,122.472099 L182.951467,116.348494 Z M182.951467,110.224889 L182.951467,103.424626 C184.148632,105.641371 185.241696,107.913229 186.258214,110.224889 L182.951467,110.224889 Z M176.827863,110.224889 L170.704258,110.224889 L170.704258,101.039482 L176.827863,101.039482 L176.827863,110.224889 Z M164.580653,110.224889 L161.51885,110.224889 L155.395245,110.224889 L155.395245,101.039482 L164.580653,101.039482 L164.580653,110.224889 Z M149.27164,110.224889 L142.140702,110.224889 C142.704074,108.672556 143.043934,107.028368 143.040872,105.326005 C143.03781,103.844093 142.750001,102.417293 142.315225,101.039482 L149.27164,101.039482 L149.27164,110.224889 Z M112.53001,94.915877 C112.53001,89.8516557 108.408824,85.7304695 103.344603,85.7304695 L103.344603,79.6068646 L114.587542,79.6068646 L129.896554,94.915877 L112.53001,94.915877 Z M106.042051,71.0613738 L108.463937,73.4832596 L103.344603,73.4832596 L103.344603,69.3100228 C104.339689,69.6988717 105.264353,70.283676 106.042051,71.0613738 Z M110.37144,66.7319851 C109.367168,65.7277139 108.212869,64.9530779 107.000395,64.2978521 L112.53001,64.2978521 L112.53001,68.8905559 L110.37144,66.7319851 Z M103.344603,58.1742472 L103.344603,48.9888397 L112.53001,48.9888397 L112.53001,58.1742472 L103.344603,58.1742472 Z M124.77722,42.8652348 L118.653615,42.8652348 L118.653615,33.6798273 L124.77722,33.6798273 L124.77722,42.8652348 Z M112.53001,42.8652348 L103.344603,42.8652348 L103.344603,33.6798273 L112.53001,33.6798273 L112.53001,42.8652348 Z M118.653615,48.9888397 L124.77722,48.9888397 L124.77722,58.1742472 L118.653615,58.1742472 L118.653615,48.9888397 Z M124.77722,27.5562223 L118.653615,27.5562223 L118.653615,18.3708149 L124.77722,18.3708149 L124.77722,27.5562223 Z M112.53001,27.5562223 L103.344603,27.5562223 L103.344603,18.3708149 L112.53001,18.3708149 L112.53001,27.5562223 Z M73.6298098,91.8540745 L75.7883806,89.6955037 L75.7883806,91.8540745 L73.6298098,91.8540745 Z M66.6029731,90.2221338 L66.6029731,82.3502396 L74.4779291,82.3502396 L66.6029731,90.2221338 Z M60.6691999,116.308691 L60.6691999,128.485479 C60.6691999,129.918403 61.6704093,131.063517 62.9961698,131.400315 L58.7433261,155.493639 L43.523106,116.348494 L60.4793682,116.348494 C60.5467278,116.348494 60.6049021,116.314815 60.6691999,116.308691 Z M60.0752102,182.165001 C60.249733,181.85882 60.3722051,181.525084 60.4334411,181.1791 L69.1901962,131.550344 L72.7265781,131.550344 L72.7265781,186.769951 C72.7265781,188.460066 74.0952038,189.831754 75.7883806,189.831754 L103.344603,189.831754 C105.03778,189.831754 106.406405,188.460066 106.406405,186.769951 L106.406405,131.550344 L131.455012,131.550344 L140.13216,181.172977 C140.196458,181.522022 140.315868,181.85882 140.490391,182.165001 L150.116698,199.017161 L50.4458414,199.017161 L60.0752102,182.165001 Z M148.47251,223.511581 L155.395245,223.511581 L156.071903,223.511581 C153.043781,225.752821 149.868692,227.801167 146.577254,229.671928 L148.47251,223.511581 Z M124.77722,73.4832596 L118.653615,73.4832596 L118.653615,64.2978521 L124.77722,64.2978521 L124.77722,73.4832596 Z M124.77722,12.2472099 L118.653615,12.2472099 L118.653615,6.12360497 L124.77722,6.12360497 L124.77722,12.2472099 Z M112.53001,6.12360497 L112.53001,12.2472099 L103.344603,12.2472099 L103.344603,6.12360497 L112.53001,6.12360497 Z M94.4470049,71.0399412 C95.2430735,70.2438726 96.1952941,69.6621301 97.2209979,69.276343 L97.2209979,86.296903 C94.6276512,87.2215673 92.585429,89.2637896 91.6607646,91.8571363 L81.9119855,91.8571363 L81.9119855,83.5749606 L94.4470049,71.0399412 Z M75.7883806,70.4214571 L75.7883806,76.2266346 L66.6029731,76.2266346 L66.6029731,70.4214571 L75.7883806,70.4214571 Z M60.4793682,76.2266346 L51.2939607,76.2266346 L51.2939607,70.4214571 L60.4793682,70.4214571 L60.4793682,76.2266346 Z M14.5523309,70.4214571 L14.5523309,76.2266346 L8.42872594,76.2266346 L8.42872594,70.4214571 L14.5523309,70.4214571 Z M8.42872594,82.3502396 L14.5523309,82.3502396 L14.5523309,91.8540745 L8.42872594,91.8540745 L8.42872594,82.3502396 Z M20.9606835,97.9776795 L59.5608274,97.9776795 C57.3624532,101.71614 56.9950369,106.223114 58.4861347,110.224889 L39.0467508,110.224889 C38.0363559,110.224889 37.090259,110.723963 36.5207637,111.559835 C35.9482067,112.392646 35.8257346,113.455091 36.1931509,114.398126 L56.6949803,167.119303 L54.4935443,179.593086 L42.5096494,200.563372 C42.4698459,200.630731 42.4545369,200.707276 42.4208571,200.777698 C42.3810537,200.863428 42.3504356,200.946097 42.3167558,201.031827 C42.1942837,201.365564 42.1116151,201.708486 42.1085533,202.060593 C42.1116151,202.066717 42.1085533,202.07284 42.1085533,202.078964 L42.1085533,208.202569 L28.4008635,208.202569 C14.7360391,191.892347 6.49060497,170.897567 6.49060497,148.007532 C6.49060497,130.203151 11.511961,112.94377 20.9606835,97.9776795 Z M92.7293337,241.545598 L91.3423372,223.511581 L109.223264,223.511581 L107.836267,241.557845 C105.368454,241.7538 102.882271,241.882396 100.365469,241.882396 C97.793555,241.882396 95.252259,241.750739 92.7293337,241.545598 Z M121.715418,177.584544 L121.715418,168.399137 C121.715418,166.70596 123.084044,165.337334 124.77722,165.337334 C126.470397,165.337334 127.839023,166.70596 127.839023,168.399137 L127.839023,177.584544 C127.839023,179.277721 126.470397,180.646347 124.77722,180.646347 C123.084044,180.646347 121.715418,179.277721 121.715418,177.584544 Z" id="Shape"></path>
        </g>
    </g>
</svg>