<svg xmlns="http://www.w3.org/2000/svg" xmlns:xlink="http://www.w3.org/1999/xlink" version="1.1" x="0px" y="0px" viewBox="0 0 100 125" enable-background="new 0 0 100 100" xml:space="preserve"><g><path d="M50,76.556c-1.71,0-3,2.149-3,5s1.29,5,3,5c1.71,0,3-2.149,3-5S51.71,76.556,50,76.556z M50,84.556c-0.249,0-1-1.064-1-3   s0.751-3,1-3s1,1.064,1,3S50.249,84.556,50,84.556z M63,60v-2c0-0.553,0.447-1,1-1s1,0.447,1,1v2c0,0.553-0.447,1-1,1   S63,60.553,63,60z M62,57v2c0,0.553-0.447,1-1,1s-1-0.447-1-1v-2c0-0.553,0.447-1,1-1S62,56.447,62,57z M59,56v2   c0,0.553-0.447,1-1,1s-1-0.447-1-1v-2c0-0.553,0.447-1,1-1S59,55.447,59,56z M63,70v-2c0-0.553,0.447-1,1-1s1,0.447,1,1v2   c0,0.553-0.447,1-1,1S63,70.553,63,70z M62,66v2c0,0.553-0.447,1-1,1s-1-0.447-1-1v-2c0-0.553,0.447-1,1-1S62,65.447,62,66z M59,64   v2c0,0.553-0.447,1-1,1s-1-0.447-1-1v-2c0-0.553,0.447-1,1-1S59,63.447,59,64z M65,75c0,0.553-0.447,1-1,1s-1-0.447-1-1v-2   c0-0.553,0.447-1,1-1s1,0.447,1,1V75z M62,71v2c0,0.553-0.447,1-1,1s-1-0.447-1-1v-2c0-0.553,0.447-1,1-1S62,70.447,62,71z M59,69   v2c0,0.553-0.447,1-1,1s-1-0.447-1-1v-2c0-0.553,0.447-1,1-1S59,68.447,59,69z M72,75.583v-2c0-0.553,0.447-1,1-1s1,0.447,1,1v2   c0,0.553-0.447,1-1,1S72,76.136,72,75.583z M71,76.583v2c0,0.553-0.447,1-1,1s-1-0.447-1-1v-2c0-0.553,0.447-1,1-1   S71,76.03,71,76.583z M76.322,41.439c0.084-0.301,0.144-0.611,0.144-0.939c0-1.93-1.57-3.5-3.5-3.5   c-0.185,0-0.362,0.027-0.54,0.055c-2.577-2.427-5.499-4.401-8.697-5.879c-0.921-5.268-1.647-10.08-1.715-15.392   c1.428-0.441,2.476-1.758,2.476-3.329c0-1.93-1.57-3.5-3.5-3.5s-3.5,1.57-3.5,3.5c0,1.578,1.056,2.899,2.493,3.335   c-0.08,7.016-1.199,13.308-2.498,20.544c-0.386,2.145-0.782,4.356-1.177,6.712c-0.041-0.008-0.092-0.022-0.132-0.029   c-0.543-0.103-1.063,0.263-1.162,0.806c-0.098,0.543,0.263,1.064,0.807,1.162c0.049,0.009,0.11,0.025,0.162,0.036   c-0.961,5.979-1.931,13.396-1.98,23.223c-2.51-0.9-5.499-0.903-8.009-0.003c-0.048-9.826-1.018-17.242-1.98-23.22   c0.052-0.01,0.113-0.027,0.162-0.036c0.543-0.098,0.904-0.619,0.806-1.162c-0.098-0.543-0.618-0.907-1.162-0.806   c-0.04,0.007-0.09,0.021-0.132,0.029c-0.395-2.356-0.791-4.567-1.176-6.712c-1.3-7.236-2.419-13.528-2.499-20.544   c1.437-0.436,2.493-1.757,2.493-3.335c0-1.93-1.57-3.5-3.5-3.5s-3.5,1.57-3.5,3.5c0,1.571,1.048,2.889,2.477,3.33   c-0.067,5.329-0.798,10.154-1.722,15.441c-3.161,1.475-6.042,3.441-8.588,5.84C27.466,37.026,27.254,37,27.035,37   c-1.93,0-3.5,1.57-3.5,3.5c0,0.365,0.072,0.71,0.176,1.041c-4.127,5.624-6.32,12.276-6.32,19.286   c0,18.009,14.651,32.66,32.66,32.66c18.008,0,32.66-14.651,32.66-32.66C82.711,53.775,80.496,47.083,76.322,41.439z M69.947,65.361   c0.763-4.687,1.63-8.652,2.376-12.059c0.216-0.988,0.422-1.928,0.61-2.822c0.218,1.078,0.463,2.208,0.724,3.411   c0.698,3.221,1.501,6.93,2.202,11.502C73.951,65.605,71.817,65.598,69.947,65.361z M75.61,53.467   c-0.819-3.782-1.476-6.837-1.587-9.648c0.408-0.13,0.78-0.33,1.108-0.591c3.639,5.171,5.58,11.225,5.58,17.599   c0,3.846-0.718,7.525-2.017,10.92C77.862,63.858,76.626,58.153,75.61,53.467z M74.466,40.5c0,0.827-0.673,1.5-1.5,1.5   s-1.5-0.673-1.5-1.5s0.673-1.5,1.5-1.5S74.466,39.673,74.466,40.5z M70.501,38.019c-0.638,0.634-1.035,1.512-1.035,2.481   c0,1.582,1.062,2.907,2.505,3.338c-0.136,2.322-0.792,5.33-1.603,9.036c-0.765,3.497-1.656,7.58-2.436,12.417   c-0.222-7.802-1.103-14.282-1.895-20.085l-0.025-0.185c0.055-0.012,0.12-0.029,0.172-0.039c0.543-0.102,0.9-0.625,0.798-1.167   c-0.101-0.542-0.615-0.901-1.167-0.798c-0.027,0.005-0.061,0.014-0.089,0.02c-0.492-3.348-1.029-6.405-1.554-9.357   c-0.003-0.017-0.006-0.034-0.009-0.052C66.451,34.817,68.572,36.288,70.501,38.019z M64,78c-0.553,0-1,0.447-1,1v9.609   c-0.331,0.155-0.663,0.31-1,0.453V76c0-0.553-0.447-1-1-1s-1,0.447-1,1v13.821c-0.332,0.114-0.663,0.228-1,0.33V75   c0-0.553-0.447-1-1-1s-1,0.447-1,1v15.683c-0.332,0.077-0.664,0.153-1,0.22V69c0-8.701,0.737-15.511,1.565-21.11   C57.698,47.956,57.842,48,58,48c0.553,0,1-0.448,1-1v-1.251c0.337,0.071,0.671,0.131,1,0.175V49c0,0.552,0.447,1,1,1s1-0.448,1-1   v-3.073c0.331-0.043,0.665-0.102,1-0.172v4.291c0,0.552,0.447,1,1,1c0.302,0,0.565-0.141,0.748-0.353   c0.681,5.423,1.24,11.25,1.24,18.306v18.01c-0.324,0.198-0.655,0.385-0.987,0.572V79C65,78.447,64.553,78,64,78z M59.491,12.454   c0-0.827,0.673-1.5,1.5-1.5s1.5,0.673,1.5,1.5s-0.673,1.5-1.5,1.5S59.491,13.281,59.491,12.454z M61.045,27.223   c0.34,2.209,0.738,4.451,1.157,6.807c0.533,2.993,1.077,6.093,1.572,9.488C62.82,43.764,61.81,44,61,44   c-0.775,0-1.784-0.236-2.742-0.481c0.401-2.398,0.804-4.65,1.196-6.833C60.047,33.391,60.604,30.291,61.045,27.223z M54,70.414   v3.602c-1.406-1.74-3.09-3.029-3.402-3.262c-0.354-0.264-0.841-0.264-1.195,0c-0.312,0.233-1.996,1.523-3.402,3.262v-3.604   C48.408,69.293,51.589,69.293,54,70.414z M44,90.885c-0.336-0.068-0.668-0.147-1-0.225V75c0-0.553-0.448-1-1-1s-1,0.447-1,1v15.123   c-0.337-0.104-0.668-0.221-1-0.336V77c0-0.553-0.448-1-1-1s-1,0.447-1,1v12.016c-0.337-0.145-0.669-0.297-1-0.453V80   c0-0.553-0.448-1-1-1s-1,0.447-1,1v7.523c-0.332-0.188-0.663-0.378-0.987-0.578V69c0-7.057,0.558-12.884,1.239-18.307   c0.183,0.212,0.445,0.353,0.748,0.353c0.552,0,1-0.448,1-1v-4.291c0.335,0.07,0.669,0.129,1,0.172V49c0,0.552,0.448,1,1,1   s1-0.448,1-1v-3.076c0.329-0.044,0.663-0.104,1-0.175V47c0,0.552,0.448,1,1,1c0.158,0,0.302-0.044,0.435-0.11   C43.264,53.488,44,60.298,44,69V90.885z M24.141,65.393c0.701-4.572,1.504-8.281,2.202-11.502c0.261-1.202,0.506-2.333,0.724-3.411   c0.188,0.894,0.395,1.833,0.61,2.822c0.746,3.407,1.612,7.372,2.376,12.059C28.183,65.598,26.05,65.605,24.141,65.393z    M29.632,52.874c-0.811-3.705-1.467-6.714-1.603-9.035c1.444-0.432,2.506-1.757,2.506-3.339c0-0.944-0.38-1.799-0.989-2.429   c1.911-1.724,4.013-3.192,6.282-4.383c-0.525,2.95-1.061,6.004-1.553,9.349c-0.028-0.006-0.062-0.015-0.09-0.02   c-0.547-0.102-1.065,0.256-1.167,0.798c-0.102,0.543,0.256,1.065,0.798,1.167c0.053,0.01,0.117,0.027,0.173,0.039l-0.025,0.185   c-0.792,5.804-1.672,12.284-1.895,20.086C31.288,60.454,30.397,56.372,29.632,52.874z M41.742,43.519   C40.784,43.765,39.775,44,39,44c-0.81,0-1.82-0.236-2.775-0.483c0.495-3.393,1.04-6.493,1.572-9.484   c0.419-2.357,0.818-4.6,1.158-6.81c0.441,3.068,0.999,6.168,1.59,9.463C40.938,38.869,41.341,41.121,41.742,43.519z M37.508,12.454   c0-0.827,0.673-1.5,1.5-1.5s1.5,0.673,1.5,1.5s-0.673,1.5-1.5,1.5S37.508,13.281,37.508,12.454z M27.035,39   c0.172,0,0.335,0.035,0.489,0.089c0.031,0.014,0.062,0.019,0.094,0.029c0.538,0.228,0.917,0.762,0.917,1.382   c0,0.827-0.673,1.5-1.5,1.5s-1.5-0.673-1.5-1.5S26.208,39,27.035,39z M24.934,43.282c0.312,0.236,0.662,0.415,1.043,0.537   c-0.111,2.811-0.768,5.866-1.588,9.648c-1.007,4.646-2.231,10.29-3.063,18.074c-1.249-3.337-1.935-6.946-1.935-10.714   C19.391,54.475,21.319,48.442,24.934,43.282z M27.659,81.74C27.865,81.557,28,81.297,28,81v-2c0-0.553-0.448-1-1-1s-1,0.447-1,1   v0.809c-0.372-0.47-0.73-0.95-1.074-1.441C24.971,78.253,25,78.13,25,78v-2c0-0.553-0.448-1-1-1c-0.372,0-0.683,0.212-0.855,0.513   c-0.06-0.11-0.117-0.222-0.176-0.333c0.006-0.033,0.025-0.061,0.028-0.095c0.17-2.005,0.368-3.87,0.585-5.627   c0.128,0.06,0.268,0.099,0.419,0.099c0.552,0,1-0.447,1-1v-1.074c0.331,0.023,0.663,0.042,1,0.054V69c0,0.553,0.448,1,1,1   s1-0.447,1-1v-1.466c0.337-0.013,0.67-0.034,1-0.059v1.081c0,0.553,0.448,1,1,1c0.248,0,0.468-0.1,0.643-0.25   c0.11,0.811,0.216,1.644,0.317,2.495C30.865,71.347,30.482,71,30,71c-0.552,0-1,0.447-1,1v2c0,0.553,0.448,1,1,1s1-0.447,1-1v-1.84   c0.465,3.998,0.812,8.445,0.958,13.399C30.407,84.421,28.969,83.142,27.659,81.74z M46,91.211V78.556c0-1.969,2.504-4.474,4-5.724   c1.497,1.248,4,3.749,4,5.724v12.669c-1.294,0.167-2.61,0.263-3.949,0.263C48.677,91.487,47.327,91.387,46,91.211z M68.04,85.633   c0.144-4.983,0.493-9.454,0.96-13.472v1.422c0,0.553,0.447,1,1,1s1-0.447,1-1v-2c0-0.553-0.447-1-1-1   c-0.386,0-0.71,0.225-0.877,0.544c0.076-0.615,0.153-1.226,0.234-1.821c0.175,0.15,0.395,0.249,0.643,0.249c0.553,0,1-0.447,1-1   v-1.081c0.33,0.025,0.663,0.046,1,0.059V69c0,0.553,0.447,1,1,1s1-0.447,1-1v-1.465c0.337-0.011,0.669-0.03,1-0.054v1.074   c0,0.553,0.447,1,1,1c0.151,0,0.291-0.039,0.419-0.098c0.217,1.757,0.415,3.622,0.585,5.627c0.007,0.08,0.041,0.148,0.065,0.221   c-0.031,0.057-0.06,0.114-0.09,0.171c-0.056-0.5-0.464-0.893-0.978-0.893c-0.553,0-1,0.447-1,1v2c0,0.257,0.104,0.486,0.263,0.663   c-0.401,0.579-0.823,1.143-1.263,1.693v-1.355c0-0.553-0.447-1-1-1s-1,0.447-1,1v2c0,0.431,0.276,0.791,0.658,0.931   C71.263,83.037,69.714,84.416,68.04,85.633z M60,7c0-0.552,0.448-1,1-1s1,0.448,1,1c0,0.552-0.448,1-1,1S60,7.552,60,7z M65,12   c0-0.552,0.448-1,1-1s1,0.448,1,1c0,0.552-0.448,1-1,1S65,12.552,65,12z M55,12c0-0.552,0.448-1,1-1s1,0.448,1,1   c0,0.552-0.448,1-1,1S55,12.552,55,12z M72,35c0-0.552,0.448-1,1-1s1,0.448,1,1c0,0.552-0.448,1-1,1S72,35.552,72,35z M67,40   c0-0.552,0.448-1,1-1s1,0.448,1,1c0,0.552-0.448,1-1,1S67,40.552,67,40z M77,40c0-0.552,0.448-1,1-1s1,0.448,1,1   c0,0.552-0.448,1-1,1S77,40.552,77,40z M37,58v2c0,0.553-0.448,1-1,1s-1-0.447-1-1v-2c0-0.553,0.448-1,1-1S37,57.447,37,58z M40,57   v2c0,0.553-0.448,1-1,1s-1-0.447-1-1v-2c0-0.553,0.448-1,1-1S40,56.447,40,57z M43,56v2c0,0.553-0.448,1-1,1s-1-0.447-1-1v-2   c0-0.553,0.448-1,1-1S43,55.447,43,56z M37,68v2c0,0.553-0.448,1-1,1s-1-0.447-1-1v-2c0-0.553,0.448-1,1-1S37,67.447,37,68z M40,66   v2c0,0.553-0.448,1-1,1s-1-0.447-1-1v-2c0-0.553,0.448-1,1-1S40,65.447,40,66z M43,64v2c0,0.553-0.448,1-1,1s-1-0.447-1-1v-2   c0-0.553,0.448-1,1-1S43,63.447,43,64z M37,73v2c0,0.553-0.448,1-1,1s-1-0.447-1-1v-2c0-0.553,0.448-1,1-1S37,72.447,37,73z M40,71   v2c0,0.553-0.448,1-1,1s-1-0.447-1-1v-2c0-0.553,0.448-1,1-1S40,70.447,40,71z M43,69v2c0,0.553-0.448,1-1,1s-1-0.447-1-1v-2   c0-0.553,0.448-1,1-1S43,68.447,43,69z M28,74v2c0,0.553-0.448,1-1,1s-1-0.447-1-1v-2c0-0.553,0.448-1,1-1S28,73.447,28,74z M31,77   v2c0,0.553-0.448,1-1,1s-1-0.447-1-1v-2c0-0.553,0.448-1,1-1S31,76.447,31,77z M38,7c0-0.552,0.448-1,1-1s1,0.448,1,1   c0,0.552-0.448,1-1,1S38,7.552,38,7z M33,12c0-0.552,0.448-1,1-1s1,0.448,1,1c0,0.552-0.448,1-1,1S33,12.552,33,12z M43,12   c0-0.552,0.448-1,1-1s1,0.448,1,1c0,0.552-0.448,1-1,1S43,12.552,43,12z M26,35c0-0.552,0.448-1,1-1s1,0.448,1,1   c0,0.552-0.448,1-1,1S26,35.552,26,35z M32,41c-0.552,0-1-0.448-1-1c0-0.552,0.448-1,1-1s1,0.448,1,1C33,40.552,32.552,41,32,41z    M21,40c0-0.552,0.448-1,1-1s1,0.448,1,1c0,0.552-0.448,1-1,1S21,40.552,21,40z"/></g><g display="none"><path display="inline" fill="#000000" stroke="#231F20" stroke-width="2" stroke-linecap="round" stroke-linejoin="round" stroke-miterlimit="10" d="   M62.615,31.757c11.236,4.862,19.097,16.048,19.097,29.07c0,17.485-14.175,31.66-31.66,31.66s-31.66-14.175-31.66-31.66   c0-13.012,7.849-24.19,19.071-29.058"/></g><text x="0" y="115" fill="#000000" font-size="5px" font-weight="bold" font-family="'Helvetica Neue', Helvetica, Arial-Unicode, Arial, Sans-serif">Created by Fabien Jouin</text><text x="0" y="120" fill="#000000" font-size="5px" font-weight="bold" font-family="'Helvetica Neue', Helvetica, Arial-Unicode, Arial, Sans-serif">from the Noun Project</text></svg>