<?xml version="1.0" encoding="UTF-8"?>
<svg width="200px" height="267px" viewBox="0 0 200 267" version="1.1" xmlns="http://www.w3.org/2000/svg" xmlns:xlink="http://www.w3.org/1999/xlink">
    <!-- Generator: Sketch 45.2 (43514) - http://www.bohemiancoding.com/sketch -->
    <title>berlin</title>
    <desc>Created with Sketch.</desc>
    <defs></defs>
    <g id="Page-1" stroke="none" stroke-width="1" fill="none" fill-rule="evenodd">
        <g id="berlin" fill-rule="nonzero" fill="#575757">
            <path d="M137.566667,76.0060606 C136.015152,75.3424242 134.245455,76.0515152 133.581818,77.5848485 C132.918182,79.1212121 133.624242,80.9030303 135.160606,81.569697 C170.318182,96.7848485 193.939394,130.981818 193.939394,166.666667 C193.939394,211.460606 160.7,250.124242 118.1,258.784848 L117.321212,242.424242 L118.181818,242.424242 C119.857576,242.424242 121.212121,241.069697 121.212121,239.393939 C121.212121,237.718182 119.857576,236.363636 118.181818,236.363636 L117.030303,236.363636 L116.163636,218.181818 L118.181818,218.181818 C119.857576,218.181818 121.212121,216.827273 121.212121,215.151515 C121.212121,213.475758 119.857576,212.121212 118.181818,212.121212 L115.875758,212.121212 L115.181818,197.548485 C130.336364,191.493939 141.087879,176.693939 141.087879,159.40303 C141.087879,158.375758 141.036364,157.363636 140.963636,156.357576 C139.787879,140.309091 129.306061,126.881818 115.075758,121.212121 L121.212121,121.212121 C122.887879,121.212121 124.242424,119.854545 124.242424,118.181818 C124.242424,116.509091 122.887879,115.151515 121.212121,115.151515 L112.121212,115.151515 L112.121212,96.969697 L118.181818,96.969697 C119.857576,96.969697 121.212121,95.6121212 121.212121,93.9393939 C121.212121,92.2666667 119.857576,90.9090909 118.181818,90.9090909 L109.090909,90.9090909 L109.090909,3.03030303 C109.090909,1.35757576 107.736364,0 106.060606,0 L93.9393939,0 C92.2666667,0 90.9090909,1.35757576 90.9090909,3.03030303 L90.9090909,90.9090909 L81.8181818,90.9090909 C80.1454545,90.9090909 78.7878788,92.2666667 78.7878788,93.9393939 C78.7878788,95.6121212 80.1454545,96.969697 81.8181818,96.969697 L87.8787879,96.969697 L87.8787879,115.151515 L78.7878788,115.151515 C77.1151515,115.151515 75.7575758,116.509091 75.7575758,118.181818 C75.7575758,119.854545 77.1151515,121.212121 78.7878788,121.212121 L84.9242424,121.212121 C70.6939394,126.881818 60.2181818,140.30303 59.0363636,156.348485 C59.0363636,156.351515 59.0333333,156.354545 59.0333333,156.357576 C58.9606061,157.363636 58.9090909,158.375758 58.9090909,159.40303 C58.9090909,176.693939 69.6606061,191.493939 84.8151515,197.548485 L84.1242424,212.121212 L81.8181818,212.121212 C80.1454545,212.121212 78.7878788,213.475758 78.7878788,215.151515 C78.7878788,216.827273 80.1454545,218.181818 81.8181818,218.181818 L83.8333333,218.181818 L82.9666667,236.363636 L81.8181818,236.363636 C80.1454545,236.363636 78.7878788,237.718182 78.7878788,239.393939 C78.7878788,241.069697 80.1454545,242.424242 81.8181818,242.424242 L82.6787879,242.424242 L81.9030303,258.739394 C39.2787879,249.978788 6.06060606,211.372727 6.06060606,166.666667 C6.06060606,131.018182 29.6818182,96.8212121 64.8424242,81.5666667 C66.3787879,80.9 67.0818182,79.1151515 66.4181818,77.5818182 C65.7515152,76.0484848 63.9636364,75.3393939 62.4333333,76.0060606 C25.0878788,92.2060606 0,128.639394 0,166.666667 C0,220.872727 45.8666667,266.666667 100.154545,266.666667 C155.212121,266.666667 200,221.806061 200,166.666667 C200,128.6 174.912121,92.169697 137.566667,76.0060606 Z M79.6818182,187.878788 L120.321212,187.878788 C114.581818,191.984848 107.578788,194.430303 100.00303,194.430303 C92.4212121,194.430303 85.4181818,191.984848 79.6818182,187.878788 Z M96.969697,125.854545 L96.969697,153.551515 L88.4757576,153.551515 C89.3242424,139.781818 93.0636364,129.515152 96.969697,125.854545 Z M103.030303,125.854545 C106.936364,129.515152 110.675758,139.781818 111.524242,153.551515 L103.030303,153.551515 L103.030303,125.854545 Z M117.584848,153.551515 C117.033333,144.3 115.127273,135.260606 111.99697,128.642424 C118.684848,133.678788 123.621212,142.751515 124.948485,153.551515 L117.584848,153.551515 Z M88.0030303,128.642424 C84.8727273,135.260606 82.9666667,144.3 82.4151515,153.551515 L75.0515152,153.551515 C76.3787879,142.748485 81.3151515,133.678788 88.0030303,128.642424 Z M71.7454545,159.612121 L85.3060606,159.612121 L114.690909,159.612121 L128.254545,159.612121 L135.027273,159.612121 C135.018182,160.975758 134.912121,162.315152 134.751515,163.636364 L65.2454545,163.636364 C65.0848485,162.315152 64.9787879,160.975758 64.969697,159.612121 L71.7454545,159.612121 Z M133.472727,169.69697 C132.087879,174.184848 129.833333,178.293939 126.890909,181.818182 L73.1090909,181.818182 C70.1666667,178.293939 67.9121212,174.184848 66.5272727,169.69697 L133.472727,169.69697 Z M134.530303,153.551515 L131.018182,153.551515 C130.284848,146.830303 128.315152,140.645455 125.406061,135.393939 C130.066667,140.315152 133.348485,146.566667 134.530303,153.551515 Z M103.030303,45.4545455 L96.969697,45.4545455 L96.969697,6.06060606 L103.030303,6.06060606 L103.030303,45.4545455 Z M96.969697,51.5151515 L103.030303,51.5151515 L103.030303,66.6666667 L96.969697,66.6666667 L96.969697,51.5151515 Z M96.969697,72.7272727 L103.030303,72.7272727 L103.030303,90.9090909 L96.969697,90.9090909 L96.969697,72.7272727 Z M93.9393939,96.969697 L106.060606,96.969697 L106.060606,115.151515 L93.9393939,115.151515 L93.9393939,96.969697 Z M74.6,135.384848 C71.6909091,140.636364 69.7181818,146.827273 68.9848485,153.551515 L65.4727273,153.551515 C66.6515152,146.563636 69.9363636,140.309091 74.6,135.384848 Z M90.7969697,199.415152 C93.7606061,200.09697 96.8333333,200.490909 100,200.490909 C103.166667,200.490909 106.239394,200.09697 109.20303,199.415152 L109.809091,212.121212 L90.1909091,212.121212 L90.7969697,199.415152 Z M89.9030303,218.181818 L110.09697,218.181818 L110.963636,236.363636 L89.0393939,236.363636 L89.9030303,218.181818 Z M87.9242424,259.745455 L88.7484848,242.424242 L111.251515,242.424242 L112.078788,259.781818 C108.163636,260.306061 104.187879,260.606061 100.154545,260.606061 C96.0181818,260.606061 91.9393939,260.293939 87.9242424,259.745455 Z M118.684848,176.239394 L121.715152,171.660606 C122.639394,170.263636 124.515152,169.878788 125.915152,170.806061 C127.312121,171.730303 127.693939,173.612121 126.769697,175.006061 L123.739394,179.584848 C123.157576,180.466667 122.190909,180.942424 121.209091,180.942424 C120.636364,180.942424 120.054545,180.778788 119.539394,180.439394 C118.142424,179.515152 117.760606,177.633333 118.684848,176.239394 Z M106.563636,176.239394 L109.593939,171.660606 C110.518182,170.263636 112.39697,169.878788 113.793939,170.806061 C115.190909,171.730303 115.572727,173.612121 114.648485,175.006061 L111.618182,179.584848 C111.036364,180.466667 110.069697,180.942424 109.087879,180.942424 C108.515152,180.942424 107.933333,180.778788 107.418182,180.439394 C106.021212,179.515152 105.639394,177.633333 106.563636,176.239394 Z M73.230303,175.006061 C72.3060606,173.612121 72.6878788,171.730303 74.0848485,170.806061 C75.4727273,169.878788 77.3606061,170.263636 78.2848485,171.660606 L81.3151515,176.239394 C82.2393939,177.633333 81.8575758,179.515152 80.4606061,180.439394 C79.9484848,180.778788 79.3666667,180.942424 78.7909091,180.942424 C77.8090909,180.942424 76.8424242,180.466667 76.2606061,179.584848 L73.230303,175.006061 Z M85.3515152,175.006061 C84.4272727,173.612121 84.8090909,171.730303 86.2060606,170.806061 C87.5969697,169.878788 89.4818182,170.263636 90.4060606,171.660606 L93.4363636,176.239394 C94.3606061,177.633333 93.9787879,179.515152 92.5818182,180.439394 C92.069697,180.778788 91.4878788,180.942424 90.9121212,180.942424 C89.930303,180.942424 88.9636364,180.466667 88.3818182,179.584848 L85.3515152,175.006061 Z M96.969697,177.912121 L96.969697,173.333333 C96.969697,171.657576 98.3272727,170.30303 100,170.30303 C101.672727,170.30303 103.030303,171.657576 103.030303,173.333333 L103.030303,177.912121 C103.030303,179.587879 101.672727,180.942424 100,180.942424 C98.3272727,180.942424 96.969697,179.587879 96.969697,177.912121 Z" id="Shape"></path>
        </g>
    </g>
</svg>