<?xml version="1.0" encoding="UTF-8"?>
<svg width="201px" height="224px" viewBox="0 0 201 224" version="1.1" xmlns="http://www.w3.org/2000/svg" xmlns:xlink="http://www.w3.org/1999/xlink">
    <!-- Generator: Sketch 45.2 (43514) - http://www.bohemiancoding.com/sketch -->
    <title>brussels</title>
    <desc>Created with Sketch.</desc>
    <defs></defs>
    <g id="Page-1" stroke="none" stroke-width="1" fill="none" fill-rule="evenodd">
        <g id="brussels" fill-rule="nonzero" fill="#575757">
            <path d="M42.4289608,98.2358171 L69.2989286,113.590084 L69.2989286,113.590084 L42.4289608,98.2358171 L42.4289608,98.2358171 Z M194.790537,104.436579 C196.562183,111.818438 197.448006,119.200297 197.448006,126.877431 C197.448006,180.026818 154.042673,223.432151 100.893286,223.432151 C47.7438995,223.432151 4.33856683,180.026818 4.33856683,126.877431 C4.33856683,119.495572 5.22438995,112.113713 6.99603618,105.027128 C2.86219497,100.302738 0.5,94.3972502 0.5,87.6059397 C0.5,72.8422211 12.3109749,61.0312462 27.0746935,61.0312462 C28.255791,61.0312462 29.4368884,61.0312462 30.3227116,61.3265206 C39.4762171,51.5824663 50.4013688,43.9053327 62.5076181,38.590394 C63.9839899,37.9998452 65.7556362,38.590394 66.3461849,40.0667658 C66.9367337,41.5431377 66.3461849,43.3147839 64.8698131,43.9053327 C54.53521,48.3344482 44.7911558,54.8304844 36.8187477,63.0981668 C38.2951196,63.6887156 39.4762171,64.2792643 40.6573146,65.1650874 L74.0233186,47.1533508 C74.0233186,46.8580764 74.0233186,46.8580764 74.0233186,46.562802 C74.0233186,32.9801809 84.3579216,21.7597548 97.349994,20.2833829 L97.349994,15.2637186 L88.4917628,15.2637186 C86.7201166,15.2637186 85.5390191,14.0826211 85.5390191,12.3109749 L85.5390191,3.45274372 C85.5390191,1.68109749 86.7201166,0.5 88.4917628,0.5 L100.302738,0.5 C102.074384,0.5 103.255481,1.68109749 103.255481,3.45274372 L103.255481,19.6928342 C116.542828,21.169206 127.172706,32.3896322 127.172706,45.9722533 C127.172706,46.2675276 127.172706,46.562802 127.172706,46.562802 L160.243435,64.5745387 C161.719807,63.6887156 162.900905,63.0981668 164.377276,62.5076181 C156.404868,54.53521 146.956088,48.0391739 136.326211,43.6100583 C134.849839,43.0195095 134.25929,41.2478633 134.849839,39.7714915 C135.440388,38.2951196 137.212034,37.7045709 138.688406,38.2951196 C151.08993,43.6100583 161.719807,51.287192 170.873313,61.0312462 C171.759136,61.0312462 172.644959,60.7359719 173.826056,60.7359719 C188.589775,60.7359719 200.40075,72.5469467 200.40075,87.3106653 C200.991298,94.1019759 198.924378,100.007463 194.790537,104.436579 Z M153.747399,87.6059397 C153.747399,89.6728603 154.042673,92.0350553 154.633222,93.8067015 L154.633222,93.8067015 L160.833984,90.263409 C164.672551,88.1964884 169.396941,89.3775859 171.463861,93.2161528 C172.349684,94.987799 172.644959,97.0547196 172.05441,99.1216402 C171.463861,101.188561 170.282764,102.664933 168.511118,103.84603 L164.967825,105.912951 C167.920569,107.389323 170.873313,108.275146 174.121331,108.275146 C185.637031,108.275146 194.790537,99.1216402 194.790537,87.6059397 C194.790537,76.0902392 185.637031,66.9367337 174.121331,66.9367337 C162.60563,66.9367337 153.747399,76.0902392 153.747399,87.6059397 Z M174.416605,114.180633 L174.416605,114.180633 L171.463861,145.479717 C171.463861,146.36554 172.05441,146.956088 172.940233,146.956088 C173.530782,146.956088 174.121331,146.660814 174.416605,146.36554 C174.711879,145.774991 174.711879,145.479717 174.711879,145.184442 L177.369349,113.885359 C176.483526,114.180633 175.597703,114.180633 174.416605,114.180633 Z M146.660814,166.739471 C145.774991,164.082002 145.184442,161.424533 145.184442,158.471789 C145.184442,157.290691 145.479717,155.81432 145.479717,154.633222 L131.897095,146.36554 C127.763254,153.747399 120.971944,159.652886 112.704261,162.310356 L115.657005,176.483526 C117.428651,177.664623 119.200297,179.140995 120.676669,180.912641 L146.660814,166.739471 Z M123.924687,185.637031 C124.515236,186.818129 125.105785,187.999226 125.401059,189.180324 L159.357612,170.873313 C159.948161,170.578038 160.243435,170.282764 160.243435,169.692215 C160.53871,169.101666 160.243435,168.806392 160.243435,168.215843 C159.948161,167.625294 159.357612,167.33002 158.471789,167.33002 C158.176515,167.33002 157.88124,167.33002 157.585966,167.625294 L123.924687,185.637031 Z M117.723926,186.522854 L120.971944,202.172396 C121.267218,200.696024 121.562492,199.514927 121.562492,198.038555 C121.267218,193.904714 120.086121,189.770872 117.723926,186.522854 Z M86.4248422,176.483526 L89.3775859,162.310356 C81.1099035,159.357612 74.318593,153.452125 70.1847518,146.070265 L56.3068563,154.633222 C56.6021307,155.81432 56.6021307,157.290691 56.6021307,158.471789 C56.6021307,161.424533 56.0115819,164.082002 55.1257588,166.739471 L81.4051779,180.912641 C82.8815497,179.140995 84.653196,177.664623 86.4248422,176.483526 Z M80.8146291,198.038555 C80.8146291,199.514927 81.1099035,200.696024 81.4051779,202.172396 L84.653196,186.522854 C82.291001,189.770872 80.8146291,193.904714 80.8146291,198.038555 Z M43.9053327,167.33002 C43.6100583,167.33002 43.3147839,167.034746 43.0195095,167.034746 C42.4289608,167.034746 41.5431377,167.33002 41.2478633,167.920569 C40.9525889,168.511118 40.9525889,168.806392 41.2478633,169.396941 C41.5431377,169.987489 41.8384121,170.282764 42.1336864,170.578038 L76.3855136,189.180324 C76.6807879,187.999226 77.2713367,186.818129 77.8618854,185.637031 L43.9053327,167.33002 Z M71.6611236,128.944352 C71.6611236,141.345875 79.3382573,152.271027 90.5586834,156.404868 L92.0350553,148.137186 L92.0350553,139.278955 C92.0350553,137.507309 93.2161528,136.326211 94.987799,136.326211 C96.7594452,136.326211 97.9405427,137.507309 97.9405427,139.278955 L97.9405427,145.184442 L103.84603,145.184442 L103.84603,139.278955 C103.84603,137.507309 105.027128,136.326211 106.798774,136.326211 C108.57042,136.326211 109.751518,137.507309 109.751518,139.278955 L109.751518,148.137186 L111.818438,156.404868 C123.038864,151.975753 130.715998,141.050601 130.715998,128.944352 C130.715998,112.704261 117.428651,99.4169146 101.188561,99.4169146 C84.9484704,99.4169146 71.6611236,112.704261 71.6611236,128.944352 Z M101.188561,93.5114271 C102.074384,93.5114271 102.960207,93.5114271 103.84603,93.5114271 L103.84603,62.5076181 C103.84603,60.7359719 102.664933,59.5548744 100.893286,59.5548744 C99.1216402,59.5548744 97.9405427,60.7359719 97.9405427,62.5076181 L97.9405427,93.5114271 C99.1216402,93.5114271 100.007463,93.5114271 101.188561,93.5114271 Z M147.841912,87.6059397 C147.841912,83.7673729 148.727735,80.2240804 150.204107,76.9760623 L122.448316,61.9170693 C119.200297,66.0509106 115.066456,69.594203 109.751518,71.3658492 L109.751518,94.6925246 C118.0192,96.7594452 125.105785,101.77911 129.830175,108.57042 L149.613558,97.349994 L149.613558,97.349994 C148.43246,93.8067015 147.841912,90.8539578 147.841912,87.6059397 Z M133.078193,113.29481 C133.668742,114.475908 134.25929,115.657005 134.554565,116.838103 L165.853648,98.8263658 C166.444197,98.5310915 166.739471,98.2358171 166.739471,97.6452683 C166.739471,97.0547196 166.739471,96.7594452 166.444197,96.1688965 C165.853648,95.2830734 164.672551,94.987799 163.786728,95.5783477 L133.078193,113.29481 Z M107.684597,165.853648 L106.798774,162.310356 L101.77911,165.853648 L107.684597,165.853648 Z M98.2358171,180.617367 L110.342066,180.617367 L110.046792,178.845721 L110.046792,178.845721 L108.865694,172.940233 L98.2358171,180.617367 Z M105.617676,156.109594 L104.731853,151.08993 L97.6452683,151.08993 L95.2830734,163.196179 L105.617676,156.109594 Z M93.5114271,171.759136 L92.3303296,177.664623 L100.598012,171.759136 L93.5114271,171.759136 Z M90.5586834,186.522854 L89.0823116,193.314165 L101.188561,186.522854 L90.5586834,186.522854 Z M97.6452683,195.381085 L113.590084,195.381085 L112.113713,187.408677 L97.6452683,195.381085 Z M92.0350553,71.3658492 C87.015391,69.594203 82.5862754,66.3461849 79.6335317,61.9170693 L51.5824663,76.9760623 C53.0588382,80.2240804 53.9446613,83.7673729 53.9446613,87.6059397 C53.9446613,90.8539578 53.3541126,94.1019759 52.1730151,97.0547196 L52.1730151,97.0547196 L72.2516724,108.57042 C76.9760623,101.77911 84.0626472,96.7594452 92.0350553,94.6925246 L92.0350553,71.3658492 L92.0350553,71.3658492 Z M42.4289608,98.2358171 L42.4289608,98.2358171 L38.2951196,95.8736221 C37.4092965,95.2830734 36.228199,95.5783477 35.6376503,96.4641709 C35.3423759,96.7594452 35.3423759,97.349994 35.3423759,97.9405427 C35.3423759,98.5310915 35.9329246,98.8263658 36.228199,99.1216402 L67.8225568,117.133377 C68.1178312,115.952279 68.7083799,114.771182 69.2989286,113.590084 L69.2989286,113.590084 L69.2989286,113.590084 L42.4289608,98.2358171 Z M42.4289608,109.456243 C39.7714915,111.227889 36.5234734,112.704261 33.5707296,113.590084 L35.6376503,135.145114 C40.6573146,135.735662 45.3817045,137.802583 49.2202714,141.050601 L66.0509106,130.715998 C66.0509106,130.125449 66.0509106,129.534901 66.0509106,129.239626 C66.0509106,127.172706 66.3461849,125.401059 66.6414593,123.334139 L42.4289608,109.456243 Z M43.9053327,153.15685 C44.200607,153.747399 44.7911558,154.042673 45.3817045,154.042673 C45.6769789,154.042673 45.9722533,154.042673 46.562802,153.747399 L67.5272824,140.755327 C67.232008,139.574229 66.6414593,138.393132 66.3461849,136.91676 L44.4958814,150.499381 C44.200607,150.794655 43.9053327,151.08993 43.6100583,151.680478 C43.6100583,151.975753 43.9053327,152.566302 43.9053327,153.15685 Z M87.015391,204.239317 L115.361731,204.239317 L114.771182,201.286573 L87.6059397,201.286573 L87.015391,204.239317 Z M155.223771,153.747399 C155.519045,154.042673 156.109594,154.042673 156.404868,154.042673 C156.995417,154.042673 157.585966,153.747399 157.88124,153.15685 C158.176515,152.861576 158.176515,152.271027 158.176515,151.680478 C158.176515,151.08993 157.88124,150.794655 157.290691,150.499381 L135.735662,137.212034 C135.440388,138.393132 135.145114,139.574229 134.554565,141.050601 L155.223771,153.747399 Z M166.444197,134.849839 L168.511118,113.29481 C165.263099,112.408987 162.310356,111.227889 159.652886,109.160969 L136.326211,122.74359 C136.621485,124.810511 136.91676,126.877431 136.91676,128.944352 C136.91676,129.534901 136.91676,130.125449 136.91676,130.715998 L153.452125,140.755327 C156.700143,137.507309 161.424533,135.440388 166.444197,134.849839 Z M118.314474,48.6297226 C117.723926,48.3344482 117.428651,48.3344482 116.838103,48.3344482 C116.247554,48.3344482 115.952279,48.924997 115.657005,49.2202714 C115.066456,50.1060945 115.361731,51.287192 116.247554,51.8777407 L153.15685,71.956398 L155.519045,69.0036543 L118.314474,48.6297226 Z M97.9405427,9.35823116 L97.9405427,6.40548744 L92.0350553,6.40548744 L92.0350553,9.35823116 L97.9405427,9.35823116 Z M80.5193548,43.6100583 L80.5193548,43.6100583 C82.291001,42.4289608 84.653196,42.4289608 86.4248422,43.0195095 C88.4917628,43.6100583 89.9681347,44.7911558 91.1492322,46.8580764 C93.2161528,50.6966432 91.7397809,55.4210332 88.1964884,57.4879538 L84.653196,59.2596 C86.7201166,61.621795 89.0823116,63.6887156 92.0350553,65.1650874 L92.0350553,62.5076181 C92.0350553,57.4879538 95.8736221,53.6493869 100.893286,53.6493869 C105.912951,53.6493869 109.751518,57.4879538 109.751518,62.5076181 L109.751518,64.8698131 C112.704261,63.3934412 115.361731,61.621795 117.133377,58.9643256 L113.590084,56.897405 C109.751518,54.8304844 108.57042,50.1060945 110.637341,46.2675276 C111.523164,44.4958814 113.29481,43.0195095 115.361731,42.4289608 C117.428651,41.8384121 119.495572,42.1336864 121.267218,43.0195095 L121.562492,43.3147839 C120.381395,32.9801809 111.523164,25.3030472 101.188561,25.3030472 C90.5586834,25.5983216 81.9957266,33.2754553 80.5193548,43.6100583 Z M45.9722533,69.0036543 L48.3344482,71.956398 L85.2437447,51.8777407 C86.1295678,51.287192 86.4248422,50.1060945 85.8342935,49.2202714 C85.5390191,48.924997 85.2437447,48.3344482 84.653196,48.3344482 C84.0626472,48.3344482 83.7673729,48.3344482 83.1768241,48.6297226 L45.9722533,69.0036543 Z M27.3699678,108.275146 C30.6179859,108.275146 33.866004,107.389323 36.5234734,105.912951 L32.9801809,104.141305 C31.2085347,103.255481 29.7321628,101.483835 29.4368884,99.4169146 C28.8463397,97.349994 29.1416141,95.2830734 30.0274372,93.5114271 C32.0943578,89.6728603 36.8187477,88.4917628 40.6573146,90.5586834 L46.8580764,94.1019759 L46.8580764,94.1019759 C47.4486251,92.0350553 47.7438995,89.9681347 47.7438995,87.9012141 C47.7438995,76.3855136 38.590394,67.232008 27.0746935,67.232008 C15.558993,67.232008 6.40548744,76.3855136 6.40548744,87.9012141 C6.70076181,98.8263658 15.8542673,108.275146 27.3699678,108.275146 Z M27.3699678,114.180633 L27.3699678,114.180633 C26.1888704,114.180633 25.3030472,114.180633 24.4172241,114.180633 L27.0746935,145.184442 C27.0746935,145.479717 27.0746935,145.774991 27.3699678,146.070265 C27.6652422,146.660814 28.255791,146.660814 28.8463397,146.660814 C29.7321628,146.660814 30.3227116,146.070265 30.3227116,145.184442 L27.3699678,114.180633 Z M12.9015236,146.660814 C14.6731698,143.412796 17.6259136,140.460052 20.8739317,138.393132 L18.5117367,112.704261 C16.4448161,111.818438 14.3778955,110.932615 12.3109749,109.456243 C11.1298774,115.066456 10.5393286,120.971944 10.5393286,126.877431 C10.5393286,133.668742 11.4251518,140.164778 12.9015236,146.660814 Z M36.8187477,181.798464 C35.6376503,182.093739 34.4565528,182.093739 32.9801809,182.093739 C31.503809,182.093739 30.3227116,181.798464 28.8463397,181.798464 C30.6179859,184.160659 32.3896322,186.22758 34.4565528,188.589775 L36.8187477,181.798464 Z M38.2951196,175.302428 C37.1140221,174.416605 36.228199,172.940233 35.6376503,171.463861 C35.0471015,169.396941 35.0471015,167.33002 36.228199,165.558374 C37.7045709,162.900905 40.3620402,161.424533 43.0195095,161.424533 C44.200607,161.424533 45.3817045,161.719807 46.562802,162.310356 L49.8108201,164.082002 C50.4013688,162.310356 50.6966432,160.53871 50.6966432,158.767063 L50.6966432,158.471789 L50.6966432,158.471789 L49.5155457,159.062338 C48.0391739,159.948161 46.562802,160.243435 44.7911558,160.243435 C42.4289608,159.948161 40.0667658,158.767063 38.590394,156.700143 C37.4092965,154.928496 37.1140221,152.861576 37.7045709,150.794655 C38.2951196,148.727735 39.4762171,146.956088 41.2478633,146.070265 L43.3147839,144.889168 C40.9525889,143.117522 38.2951196,142.231698 35.6376503,141.64115 L35.9329246,145.479717 C35.9329246,145.479717 35.9329246,145.774991 35.9329246,146.070265 C35.9329246,150.204107 32.6849065,153.452125 28.5510653,153.452125 C25.893596,153.452125 23.531401,152.271027 22.0550291,149.908832 C21.4644804,148.137186 21.169206,146.660814 21.169206,145.479717 C17.9211879,148.43246 16.1495417,152.271027 15.558993,156.404868 C17.6259136,162.310356 20.2833829,167.920569 23.2361266,173.235508 L23.2361266,173.235508 C27.9605166,176.188251 33.5707296,176.7788 38.2951196,175.302428 Z M74.318593,204.239317 L75.7949648,204.239317 C75.2044161,202.172396 74.9091417,200.105475 74.9091417,198.038555 C74.9091417,197.152732 74.9091417,196.266909 75.2044161,195.381085 L44.7911558,178.845721 C44.4958814,179.140995 44.200607,179.140995 43.9053327,179.436269 L39.4762171,193.01889 C48.0391739,200.991298 57.7832281,207.19206 68.7083799,211.325902 L68.7083799,209.84953 C68.7083799,206.896786 71.0705749,204.239317 74.318593,204.239317 Z M127.46798,210.144804 L74.318593,210.144804 L74.6138673,213.392822 C83.1768241,216.050291 92.0350553,217.526663 101.188561,217.526663 C110.342066,217.526663 119.495572,216.050291 127.763254,213.392822 L127.46798,210.144804 Z M162.60563,193.314165 L157.88124,179.436269 C157.585966,179.140995 157.290691,179.140995 156.995417,178.845721 L127.172706,195.085811 C127.172706,195.971634 127.46798,197.152732 127.46798,198.038555 C127.46798,200.105475 127.172706,202.172396 126.582157,204.239317 L128.058529,204.239317 C131.306547,204.239317 133.668742,206.896786 133.668742,209.84953 L133.668742,211.325902 C144.298619,207.19206 154.337948,200.991298 162.60563,193.314165 Z M173.235508,181.50319 C171.759136,181.798464 170.282764,182.093739 168.511118,182.093739 C167.33002,182.093739 165.853648,182.093739 164.672551,181.798464 L167.034746,188.885049 C169.396941,186.522854 171.463861,184.160659 173.235508,181.50319 Z M186.522854,156.995417 C186.522854,156.700143 186.22758,156.700143 186.22758,156.404868 C185.637031,151.975753 183.570111,148.137186 180.617367,145.479717 C180.617367,146.956088 180.322092,148.137186 179.436269,149.318283 C177.959897,151.385204 175.597703,152.861576 172.940233,152.861576 C168.806392,152.861576 165.558374,149.613558 165.558374,145.479717 C165.558374,145.184442 165.558374,144.889168 165.558374,144.889168 L165.853648,141.050601 C163.196179,141.345875 160.53871,142.526973 158.176515,144.298619 L160.243435,145.479717 C162.015081,146.660814 163.196179,148.43246 163.786728,150.204107 C164.377276,152.271027 163.786728,154.337948 162.900905,156.109594 C161.719807,158.176515 159.357612,159.652886 156.700143,159.652886 C154.928496,159.652886 153.452125,159.357612 151.975753,158.471789 L151.08993,157.88124 L151.08993,157.88124 L151.08993,158.176515 C151.08993,159.948161 151.385204,162.015081 151.975753,163.491453 L155.223771,161.719807 C156.404868,161.129258 157.585966,160.833984 158.767063,160.833984 C161.719807,160.833984 164.377276,162.310356 165.558374,164.967825 C166.444197,166.739471 166.739471,168.806392 166.148923,170.873313 C165.558374,172.349684 164.672551,173.826056 163.491453,174.711879 C168.511118,176.188251 174.121331,175.597703 178.550446,172.644959 C178.845721,172.644959 179.140995,172.349684 179.140995,172.349684 C182.093739,167.920569 184.455934,162.60563 186.522854,156.995417 Z M191.542519,126.877431 C191.542519,120.971944 190.95197,115.066456 189.770872,109.160969 C187.703952,110.637341 185.637031,111.818438 183.274836,112.704261 L181.207916,138.393132 C184.751208,140.460052 187.408677,143.70807 189.475598,146.956088 C190.95197,140.755327 191.542519,133.964016 191.542519,126.877431 Z" id="Shape"></path>
        </g>
    </g>
</svg>