<?xml version="1.0" encoding="UTF-8"?>
<svg width="196px" height="253px" viewBox="0 0 196 253" version="1.1" xmlns="http://www.w3.org/2000/svg" xmlns:xlink="http://www.w3.org/1999/xlink">
    <!-- Generator: Sketch 45.2 (43514) - http://www.bohemiancoding.com/sketch -->
    <title>copenhagen</title>
    <desc>Created with Sketch.</desc>
    <defs></defs>
    <g id="Page-1" stroke="none" stroke-width="1" fill="none" fill-rule="evenodd">
        <g id="copenhagen" fill-rule="nonzero" fill="#575757">
            <path d="M136.841791,65.6835821 C135.334328,65.038806 133.570149,65.7253731 132.916418,67.238806 C132.262687,68.7522388 132.958209,70.5074627 134.471642,71.1641791 C168.008955,85.6776119 189.677612,118.662687 189.677612,155.2 C189.677612,195.271642 163.78209,229.385075 127.853731,241.749254 L127.853731,212.432836 C129.504478,212.432836 130.838806,211.098507 130.838806,209.447761 C130.838806,207.797015 129.504478,206.462687 127.853731,206.462687 L127.853731,197.507463 C129.504478,197.507463 130.838806,196.173134 130.838806,194.522388 C130.838806,192.871642 129.504478,191.537313 127.853731,191.537313 C127.325373,191.537313 126.38806,191.549254 125.161194,191.597015 C125.056716,191.585075 124.970149,191.537313 124.865672,191.537313 C124.704478,191.537313 124.567164,191.602985 124.414925,191.626866 C123.659701,191.662687 122.814925,191.710448 121.880597,191.776119 L121.880597,155.716418 L121.880597,146.761194 C123.531343,146.761194 124.865672,145.426866 124.865672,143.776119 C124.865672,142.125373 123.531343,140.791045 121.880597,140.791045 L121.880597,131.835821 C123.531343,131.835821 124.865672,130.501493 124.865672,128.850746 C124.865672,127.2 123.531343,125.865672 121.880597,125.865672 L119.931343,125.865672 C119.659701,125.865672 119.286567,125.874627 118.967164,125.880597 C118.940299,125.880597 118.919403,125.865672 118.895522,125.865672 C118.865672,125.865672 118.844776,125.880597 118.814925,125.880597 C117.298507,125.904478 115.304478,125.98806 112.925373,126.19403 L112.925373,101.985075 C114.576119,101.985075 115.910448,100.647761 115.910448,99 C115.910448,97.3522388 114.576119,96.0149254 112.925373,96.0149254 L112.925373,90.0447761 C114.576119,90.0447761 115.910448,88.7074627 115.910448,87.0597015 C115.910448,85.4119403 114.576119,84.0746269 112.925373,84.0746269 C112.044776,84.0746269 111.161194,84.1044776 110.280597,84.1432836 C110.164179,84.1283582 110.059701,84.0746269 109.940299,84.0746269 C109.758209,84.0746269 109.6,84.1462687 109.429851,84.1791045 C108.602985,84.2238806 107.779104,84.2925373 106.955224,84.3731343 L106.955224,78.1044776 C108.60597,78.1044776 109.940299,76.7671642 109.940299,75.119403 C109.940299,73.4716418 108.60597,72.1343284 106.955224,72.1343284 L106.955224,69.1492537 C108.60597,69.1492537 109.940299,67.8119403 109.940299,66.1641791 C109.940299,64.5164179 108.60597,63.1791045 106.955224,63.1791045 L102.832836,63.1791045 C102.791045,63.1791045 102.755224,63.1791045 102.713433,63.1791045 C102.104478,63.1791045 101.567164,63.2626866 100.985075,63.2955224 L100.985075,60.1940299 L103.970149,60.1940299 C105.620896,60.1940299 106.955224,58.8567164 106.955224,57.2089552 C106.955224,55.561194 105.620896,54.2238806 103.970149,54.2238806 L100.985075,54.2238806 L100.985075,50.8149254 C106.122388,49.480597 109.940299,44.8447761 109.940299,39.2985075 C109.940299,33.7223881 106.083582,29.0626866 100.904478,27.758209 C100.922388,27.6208955 100.985075,27.4985075 100.985075,27.358209 L100.985075,18.4029851 L118.895522,18.4029851 C118.916418,18.4029851 118.940299,18.4029851 118.955224,18.4029851 C120.60597,18.4029851 121.880597,17.0656716 121.880597,15.4179104 C121.880597,14.2716418 121.292537,13.2746269 120.343284,12.7761194 L117.877612,10.9402985 L120.677612,8.85671642 C121.710448,8.08955224 122.134328,6.74328358 121.731343,5.52238806 C121.328358,4.30149254 120.18209,3.47761194 118.895522,3.47761194 L100.985075,3.47761194 C100.985075,1.82985075 99.6477612,0.492537313 98,0.492537313 C96.3522388,0.492537313 95.0149254,1.82985075 95.0149254,3.47761194 L95.0149254,6.46268657 L95.0149254,15.4179104 L95.0149254,27.358209 C95.0149254,27.4985075 95.0776119,27.6208955 95.0955224,27.758209 C89.919403,29.0626866 86.0597015,33.7223881 86.0597015,39.2985075 C86.0597015,44.8447761 89.880597,49.480597 95.0149254,50.8149254 L95.0149254,54.2238806 L92.0298507,54.2238806 C90.3820896,54.2238806 89.0447761,55.561194 89.0447761,57.2089552 C89.0447761,58.8567164 90.3820896,60.1940299 92.0298507,60.1940299 L95.0149254,60.1940299 L95.0149254,64.2776119 C92.7223881,65.0179104 90.8029851,66.1223881 89.3373134,67.5850746 C87.1641791,69.7522388 86.0597015,72.561194 86.0597015,75.9283582 L86.0597015,84.8835821 L86.0597015,90.0447761 L86.0597015,91.0119403 C86.0597015,91.2567164 86.1432836,91.4776119 86.2,91.7044776 C80.7014925,95.9671642 77.1044776,102.214925 77.1044776,110.940299 L77.1044776,122.880597 L77.1044776,140.80597 C71.2149254,147.071642 68.1492537,155.107463 68.1492537,164.671642 L68.1492537,173.626866 L68.1492537,176.859701 L68.1492537,182.58209 L68.1492537,209.447761 L68.1492537,214.331343 C62.5671642,220.740299 58.8686567,228.346269 57.2208955,237.023881 C27.2537313,221.970149 6.62985075,190.958209 6.62985075,155.2 C6.62985075,118.698507 28.2716418,85.7253731 61.761194,71.1970149 C63.2746269,70.5402985 63.9671642,68.7820896 63.3134328,67.2716418 C62.6597015,65.758209 60.8955224,65.0656716 59.3880597,65.719403 C23.7134328,81.1970149 0.662686567,116.319403 0.662686567,155.2 C0.662686567,208.958209 44.3970149,252.692537 98.1552239,252.692537 C151.910448,252.692537 195.647761,208.958209 195.647761,155.2 C195.644776,116.283582 172.564179,81.1462687 136.841791,65.6835821 Z M110.292537,9.44776119 C110.032836,9.89552239 109.892537,10.4089552 109.892537,10.9402985 C109.892537,11.4716418 110.032836,11.9850746 110.292537,12.4328358 L100.985075,12.4328358 L100.985075,9.44776119 L110.292537,9.44776119 Z M92.0298507,39.2985075 C92.0298507,36.0059701 94.7074627,33.3283582 98,33.3283582 C101.292537,33.3283582 103.970149,36.0059701 103.970149,39.2985075 C103.970149,42.5910448 101.292537,45.2686567 98,45.2686567 C94.7074627,45.2686567 92.0298507,42.5910448 92.0298507,39.2985075 Z M121.880597,206.704478 C120.958209,206.770149 119.970149,206.850746 118.895522,206.958209 L118.895522,198.029851 C119.955224,197.919403 120.967164,197.826866 121.880597,197.758209 L121.880597,206.704478 Z M115.910448,152.731343 C114.259701,152.731343 112.925373,154.065672 112.925373,155.716418 L112.925373,192.785075 C111.032836,193.074627 109.038806,193.420896 106.955224,193.856716 L106.955224,161.686567 C106.955224,160.035821 105.620896,158.701493 103.970149,158.701493 L100.985075,158.701493 C99.3373134,158.701493 98,160.035821 98,161.686567 L98,196.161194 C96.0268657,196.770149 94.0268657,197.456716 92.0298507,198.235821 L92.0298507,167.656716 C92.0298507,166.00597 90.6925373,164.671642 89.0447761,164.671642 L86.0597015,164.671642 C84.4119403,164.671642 83.0746269,166.00597 83.0746269,167.656716 L83.0746269,202.453731 C80.9671642,203.626866 78.9731343,204.886567 77.1044776,206.229851 L77.1044776,173.626866 C77.1044776,172.38806 76.3492537,171.325373 75.2776119,170.874627 C80.8059701,151.140299 105.01791,147.501493 115.910448,146.883582 L115.910448,152.731343 Z M103.970149,142.402985 L103.970149,133.549254 C104.98806,133.331343 105.979104,133.146269 106.955224,132.976119 L106.955224,141.871642 C105.979104,142.026866 104.99403,142.2 103.970149,142.402985 Z M98.0149254,143.853731 C96.1850746,144.38209 94.3432836,144.967164 92.5044776,145.689552 C92.3402985,145.755224 92.1910448,145.826866 92.0268657,145.892537 L92.0268657,137.468657 C93.9820896,136.549254 95.9910448,135.779104 97.9970149,135.134328 L97.9970149,143.776119 C98,143.802985 98.0149254,143.826866 98.0149254,143.853731 Z M86.0597015,148.779104 C85.0208955,149.373134 84.0268657,149.997015 83.0746269,150.650746 L83.0746269,143.776119 L83.0746269,143.331343 C84.0208955,142.468657 85.0208955,141.677612 86.0597015,140.940299 L86.0597015,148.779104 Z M77.1074627,155.728358 C76.2298507,156.662687 75.4059701,157.629851 74.6567164,158.644776 C75.1552239,155.886567 75.9970149,153.41791 77.1074627,151.197015 L77.1074627,155.716418 C77.1044776,155.722388 77.1074627,155.725373 77.1074627,155.728358 Z M74.119403,216.543284 C75.0537313,215.576119 76.0597015,214.653731 77.1044776,213.755224 L77.1044776,221.104478 C76.0895522,221.829851 75.0895522,222.576119 74.119403,223.376119 L74.119403,216.543284 Z M83.0597015,209.376119 C84.0507463,208.749254 85.0776119,208.143284 86.1402985,207.561194 L86.1402985,215.749254 C85.1104478,216.253731 84.0895522,216.791045 83.0746269,217.352239 L83.0746269,209.447761 C83.0746269,209.420896 83.0597015,209.4 83.0597015,209.376119 Z M92.1104478,204.671642 C92.7970149,204.379104 93.4686567,204.080597 94.1791045,203.80597 C94.4597015,203.698507 94.7373134,203.602985 95.0149254,203.498507 L95.0149254,212.056716 C94.0477612,212.391045 93.080597,212.749254 92.1104478,213.128358 L92.1104478,204.671642 Z M100.985075,201.504478 C101.991045,201.208955 102.985075,200.937313 103.970149,200.683582 L103.970149,209.447761 C103.970149,209.450746 103.973134,209.453731 103.973134,209.456716 C102.98806,209.692537 101.99403,209.946269 100.985075,210.21791 L100.985075,201.504478 Z M109.940299,199.349254 C110.961194,199.155224 111.958209,198.976119 112.925373,198.820896 L112.925373,207.707463 C111.961194,207.853731 110.961194,208.023881 109.940299,208.20597 L109.940299,199.349254 Z M115.910448,131.958209 L115.910448,140.910448 C114.99403,140.958209 114,141.029851 112.925373,141.122388 L112.925373,132.18209 C114.002985,132.080597 115,132.008955 115.910448,131.958209 Z M106.955224,126.946269 C105.979104,127.101493 104.99403,127.274627 103.970149,127.477612 L103.970149,117.256716 C103.970149,115.608955 102.635821,114.271642 100.985075,114.271642 C99.3373134,114.271642 98,115.608955 98,117.256716 L98,128.934328 C96.1761194,129.459701 94.3402985,130.044776 92.5074627,130.767164 C92.3432836,130.832836 92.1940299,130.904478 92.0298507,130.970149 L92.0298507,122.570149 C92.0298507,120.922388 90.6925373,119.585075 89.0447761,119.585075 C87.3970149,119.585075 86.0597015,120.922388 86.0597015,122.570149 L86.0597015,133.853731 C85.0208955,134.447761 84.0268657,135.071642 83.0746269,135.725373 L83.0746269,122.880597 C83.0746269,118.361194 84.9552239,104.438806 106.955224,102.292537 L106.955224,126.946269 Z M95.0149254,93.3253731 C95.9373134,92.9044776 96.9313433,92.5164179 98,92.161194 L98,97.9731343 C96.9850746,98.2597015 95.9910448,98.5791045 95.0149254,98.9313433 L95.0149254,93.3253731 Z M106.955224,96.3134328 C105.955224,96.4119403 104.961194,96.5402985 103.970149,96.6895522 L103.970149,90.7074627 C104.910448,90.558209 105.928358,90.4507463 106.955224,90.3522388 L106.955224,96.3134328 Z M92.0298507,88.2179104 L92.0298507,84.880597 C92.0298507,83.1343284 92.5283582,81.7880597 93.5522388,80.7671642 C94.9910448,79.3343284 97.6447761,78.5223881 100.985075,78.238806 L100.985075,85.2955224 C97.8358209,85.9641791 94.8149254,86.9283582 92.0298507,88.2179104 Z M100.985075,69.2865672 L100.985075,72.2537313 C97.5313433,72.4477612 94.5373134,73.1731343 92.1791045,74.4776119 C92.3910448,73.4149254 92.8358209,72.5283582 93.5522388,71.8149254 C94.9910448,70.3791045 97.6447761,69.5701493 100.985075,69.2865672 Z M89.0447761,97.2 L89.0447761,101.725373 C87.1223881,102.874627 85.3522388,104.197015 83.8089552,105.743284 C84.5671642,103.053731 86.0925373,99.9462687 89.0447761,97.2 Z M68.1492537,229.185075 C66.5761194,230.985075 65.1044776,232.916418 63.7820896,235.014925 C64.7731343,231.20597 66.241791,227.680597 68.1492537,224.420896 L68.1492537,229.185075 Z M92.0298507,246.495522 L92.0298507,236.313433 C92.0298507,234.662687 90.6925373,233.328358 89.0447761,233.328358 L83.0746269,233.328358 C81.4268657,233.328358 80.0895522,234.662687 80.0895522,236.313433 L80.0895522,244.925373 C75.6298507,244.029851 71.2865672,242.80597 67.0835821,241.286567 C78.8358209,218.408955 108.698507,213.653731 121.880597,212.683582 L121.880597,243.58806 C118.949254,244.376119 115.964179,245.020896 112.925373,245.516418 L112.925373,230.343284 C112.925373,228.692537 111.591045,227.358209 109.940299,227.358209 L103.970149,227.358209 C102.319403,227.358209 100.985075,228.692537 100.985075,230.343284 L100.985075,246.650746 C100.041791,246.680597 99.1014925,246.722388 98.1522388,246.722388 C96.0925373,246.722388 94.0567164,246.629851 92.0298507,246.495522 Z" id="Shape"></path>
        </g>
    </g>
</svg>