<?xml version="1.0" encoding="UTF-8"?>
<svg width="200px" height="267px" viewBox="0 0 200 267" version="1.1" xmlns="http://www.w3.org/2000/svg" xmlns:xlink="http://www.w3.org/1999/xlink">
    <!-- Generator: Sketch 45.2 (43514) - http://www.bohemiancoding.com/sketch -->
    <title>london</title>
    <desc>Created with Sketch.</desc>
    <defs></defs>
    <g id="Page-1" stroke="none" stroke-width="1" fill="none" fill-rule="evenodd">
        <g id="london" fill-rule="nonzero" fill="#575757">
            <path d="M100.154545,176.293939 C113.160606,176.293939 123.745455,165.712121 123.745455,152.706061 C123.745455,139.7 113.163636,129.118182 100.154545,129.118182 C87.1484848,129.118182 76.5666667,139.7 76.5666667,152.706061 C76.5666667,165.712121 87.1484848,176.293939 100.154545,176.293939 Z M100.154545,135.175758 C109.821212,135.175758 117.684848,143.039394 117.684848,152.70303 C117.684848,162.366667 109.821212,170.230303 100.154545,170.230303 C90.4909091,170.230303 82.6272727,162.366667 82.6272727,152.70303 C82.6272727,143.039394 90.4909091,135.175758 100.154545,135.175758 Z M94.7757576,153.863636 C94.7757576,152.093939 95.6454545,150.533333 96.969697,149.551515 L96.969697,141.621212 C96.969697,139.945455 98.3272727,138.590909 100,138.590909 C101.672727,138.590909 103.030303,139.945455 103.030303,141.621212 L103.030303,149.333333 C104.530303,150.287879 105.533333,151.957576 105.533333,153.863636 C105.533333,156.830303 103.121212,159.242424 100.154545,159.242424 C97.1878788,159.242424 94.7757576,156.830303 94.7757576,153.863636 Z M137.566667,76.0060606 C136.015152,75.3424242 134.245455,76.0515152 133.581818,77.5848485 C132.918182,79.1212121 133.624242,80.9030303 135.160606,81.569697 C170.318182,96.7848485 193.939394,130.981818 193.939394,166.666667 C193.939394,208.187879 165.378788,244.448485 127.272727,256.421212 L127.272727,187.878788 L133.333333,187.878788 C135.009091,187.878788 136.363636,186.524242 136.363636,184.848485 L136.363636,124.242424 L142.424242,124.242424 C144.1,124.242424 145.454545,122.884848 145.454545,121.212121 L145.454545,112.121212 C145.454545,110.448485 144.1,109.090909 142.424242,109.090909 L133.333333,109.090909 L133.333333,96.969697 C135.009091,96.969697 136.363636,95.6121212 136.363636,93.9393939 C136.363636,92.2666667 135.009091,90.9090909 133.333333,90.9090909 L130.30303,90.9090909 L128.530303,90.9090909 L117.293939,79.6757576 C116.727273,79.1060606 115.957576,78.7878788 115.151515,78.7878788 L115.151515,66.6666667 C115.175758,66.669697 115.19697,66.6666667 115.212121,66.6666667 C116.887879,66.6666667 118.242424,65.3090909 118.242424,63.6363636 C118.242424,62.9424242 118.012121,62.3060606 117.621212,61.7939394 L103.184848,32.9242424 L103.184848,3.03030303 C103.184848,1.35757576 101.830303,0 100.154545,0 C98.4787879,0 97.1242424,1.35757576 97.1242424,3.03030303 L97.1242424,32.3060606 L82.1363636,62.2818182 C81.6666667,63.2212121 81.7181818,64.3363636 82.269697,65.230303 C82.8242424,66.1212121 83.7969697,66.6666667 84.8484848,66.6666667 L84.8484848,78.7878788 C84.0454545,78.7878788 83.2727273,79.1060606 82.7060606,79.6757576 L71.4727273,90.9090909 L69.6969697,90.9090909 L66.6666667,90.9090909 C64.9939394,90.9090909 63.6363636,92.2666667 63.6363636,93.9393939 C63.6363636,95.6121212 64.9939394,96.969697 66.6666667,96.969697 L66.6666667,109.090909 L57.5757576,109.090909 C55.9030303,109.090909 54.5454545,110.448485 54.5454545,112.121212 L54.5454545,121.212121 C54.5454545,122.884848 55.9030303,124.242424 57.5757576,124.242424 L63.6363636,124.242424 L63.6363636,184.848485 C63.6363636,186.524242 64.9939394,187.878788 66.6666667,187.878788 L72.7272727,187.878788 L72.7272727,256.357576 C34.6060606,244.315152 6.06060606,208.109091 6.06060606,166.666667 C6.06060606,131.018182 29.6818182,96.8212121 64.8424242,81.5666667 C66.3787879,80.9 67.0818182,79.1151515 66.4181818,77.5818182 C65.7515152,76.0484848 63.9636364,75.3393939 62.4333333,76.0060606 C25.0878788,92.2060606 0,128.639394 0,166.666667 C0,220.872727 45.8666667,266.666667 100.154545,266.666667 C155.212121,266.666667 200,221.806061 200,166.666667 C200,128.6 174.912121,92.169697 137.566667,76.0060606 Z M100,40.1090909 L110.248485,60.6060606 L89.7515152,60.6060606 L100,40.1090909 Z M90.9090909,66.6666667 L109.090909,66.6666667 L109.090909,78.7878788 L90.9090909,78.7878788 L90.9090909,66.6666667 Z M86.1030303,84.8484848 L113.89697,84.8484848 L119.957576,90.9090909 L80.0424242,90.9090909 L86.1030303,84.8484848 Z M72.7272727,96.969697 L127.272727,96.969697 L127.272727,109.090909 L72.7272727,109.090909 L72.7272727,96.969697 Z M60.6060606,115.151515 L69.6969697,115.151515 L130.30303,115.151515 L139.393939,115.151515 L139.393939,118.181818 L133.333333,118.181818 L66.6666667,118.181818 L60.6060606,118.181818 L60.6060606,115.151515 Z M69.6969697,124.242424 L130.30303,124.242424 L130.30303,181.818182 L124.245455,181.818182 L75.7606061,181.784848 L75.7606061,181.784848 C75.7030303,181.784848 75.6545455,181.815152 75.5969697,181.818182 L69.6969697,181.818182 L69.6969697,124.242424 Z M78.7878788,187.878788 L121.212121,187.878788 L121.212121,257.575758 C121.212121,257.745455 121.281818,257.893939 121.309091,258.057576 C119.278788,258.548485 117.227273,258.978788 115.151515,259.330303 L115.151515,230.30303 C115.151515,228.627273 113.79697,227.272727 112.121212,227.272727 C110.445455,227.272727 109.090909,228.627273 109.090909,230.30303 L109.090909,260.148485 C107.087879,260.348485 105.063636,260.463636 103.030303,260.530303 L103.030303,230.30303 C103.030303,228.627273 101.672727,227.272727 100,227.272727 C98.3272727,227.272727 96.969697,228.627273 96.969697,230.30303 L96.969697,260.521212 C94.9363636,260.448485 92.9121212,260.333333 90.9090909,260.127273 L90.9090909,230.30303 C90.9090909,228.627273 89.5515152,227.272727 87.8787879,227.272727 C86.2060606,227.272727 84.8484848,228.627273 84.8484848,230.30303 L84.8484848,259.278788 C82.8060606,258.927273 80.7878788,258.506061 78.7878788,258.021212 L78.7878788,187.878788 Z M109.090909,221.212121 L109.090909,192.439394 C109.090909,190.763636 110.445455,189.409091 112.121212,189.409091 C113.79697,189.409091 115.151515,190.763636 115.151515,192.439394 L115.151515,221.212121 C115.151515,222.887879 113.79697,224.242424 112.121212,224.242424 C110.445455,224.242424 109.090909,222.887879 109.090909,221.212121 Z M96.969697,221.212121 L96.969697,192.439394 C96.969697,190.763636 98.3272727,189.409091 100,189.409091 C101.672727,189.409091 103.030303,190.763636 103.030303,192.439394 L103.030303,221.212121 C103.030303,222.887879 101.672727,224.242424 100,224.242424 C98.3272727,224.242424 96.969697,222.887879 96.969697,221.212121 Z M84.8484848,221.212121 L84.8484848,192.439394 C84.8484848,190.763636 86.2060606,189.409091 87.8787879,189.409091 C89.5515152,189.409091 90.9090909,190.763636 90.9090909,192.439394 L90.9090909,221.212121 C90.9090909,222.887879 89.5515152,224.242424 87.8787879,224.242424 C86.2060606,224.242424 84.8484848,222.887879 84.8484848,221.212121 Z M121.212121,100.906061 L121.212121,105.124242 C121.212121,106.79697 119.857576,108.154545 118.181818,108.154545 C116.506061,108.154545 115.151515,106.79697 115.151515,105.124242 L115.151515,100.906061 C115.151515,99.2333333 116.506061,97.8757576 118.181818,97.8757576 C119.857576,97.8757576 121.212121,99.2333333 121.212121,100.906061 Z M112.121212,100.906061 L112.121212,105.124242 C112.121212,106.79697 110.766667,108.154545 109.090909,108.154545 C107.415152,108.154545 106.060606,106.79697 106.060606,105.124242 L106.060606,100.906061 C106.060606,99.2333333 107.415152,97.8757576 109.090909,97.8757576 C110.766667,97.8757576 112.121212,99.2333333 112.121212,100.906061 Z M103.030303,100.906061 L103.030303,105.124242 C103.030303,106.79697 101.672727,108.154545 100,108.154545 C98.3272727,108.154545 96.969697,106.79697 96.969697,105.124242 L96.969697,100.906061 C96.969697,99.2333333 98.3272727,97.8757576 100,97.8757576 C101.672727,97.8757576 103.030303,99.2333333 103.030303,100.906061 Z M93.9393939,100.906061 L93.9393939,105.124242 C93.9393939,106.79697 92.5818182,108.154545 90.9090909,108.154545 C89.2363636,108.154545 87.8787879,106.79697 87.8787879,105.124242 L87.8787879,100.906061 C87.8787879,99.2333333 89.2363636,97.8757576 90.9090909,97.8757576 C92.5818182,97.8757576 93.9393939,99.2333333 93.9393939,100.906061 Z M84.8484848,100.906061 L84.8484848,105.124242 C84.8484848,106.79697 83.4909091,108.154545 81.8181818,108.154545 C80.1454545,108.154545 78.7878788,106.79697 78.7878788,105.124242 L78.7878788,100.906061 C78.7878788,99.2333333 80.1454545,97.8757576 81.8181818,97.8757576 C83.4909091,97.8757576 84.8484848,99.2333333 84.8484848,100.906061 Z" id="Shape"></path>
        </g>
    </g>
</svg>