<?xml version="1.0" encoding="UTF-8"?>
<svg width="200px" height="267px" viewBox="0 0 200 267" version="1.1" xmlns="http://www.w3.org/2000/svg" xmlns:xlink="http://www.w3.org/1999/xlink">
    <!-- Generator: Sketch 45.2 (43514) - http://www.bohemiancoding.com/sketch -->
    <title>paris</title>
    <desc>Created with Sketch.</desc>
    <defs></defs>
    <g id="Page-1" stroke="none" stroke-width="1" fill="none" fill-rule="evenodd">
        <g id="paris" fill-rule="nonzero" fill="#575757">
            <path d="M137.566667,76.0060606 C136.015152,75.3424242 134.245455,76.0515152 133.581818,77.5848485 C132.918182,79.1212121 133.624242,80.9030303 135.160606,81.569697 C170.318182,96.7848485 193.939394,130.981818 193.939394,166.666667 C193.939394,189.490909 185.293939,210.709091 171.193939,227.19697 L170.266667,225.912121 C165.678788,219.542424 160.993939,212.972727 156.815152,206.060606 L157.575758,206.060606 C159.251515,206.060606 160.606061,204.706061 160.606061,203.030303 L160.606061,181.818182 C160.606061,180.142424 159.251515,178.787879 157.575758,178.787879 L141.363636,178.787879 C137.193939,169.430303 133.978788,161.50303 131.439394,154.315152 C132.548485,153.866667 133.333333,152.787879 133.333333,151.515152 L133.333333,130.30303 C133.333333,128.630303 131.978788,127.272727 130.30303,127.272727 L120.021212,127.272727 C115.630303,106.587879 113.154545,85.2060606 112.645455,63.6363636 L115.151515,63.6363636 C116.827273,63.6363636 118.181818,62.2787879 118.181818,60.6060606 L118.181818,39.3939394 C118.181818,37.7212121 116.827273,36.3636364 115.151515,36.3636364 L111.475758,36.3636364 C110.354545,32.0909091 106.966667,28.7515152 102.657576,27.730303 L102.657576,3.78484848 C102.657576,2.11212121 101.3,0.754545455 99.6272727,0.754545455 C97.9545455,0.754545455 96.5969697,2.11212121 96.5969697,3.78484848 L96.5969697,27.8969697 C92.5454545,29.0636364 89.3878788,32.2757576 88.3151515,36.3636364 L84.8484848,36.3636364 C83.1757576,36.3636364 81.8181818,37.7212121 81.8181818,39.3939394 L81.8181818,60.6060606 C81.8181818,62.2787879 83.1757576,63.6363636 84.8484848,63.6363636 L87.4181818,63.6363636 C86.9090909,85.2090909 84.4272727,106.590909 80.0363636,127.272727 L69.6969697,127.272727 C68.0242424,127.272727 66.6666667,128.630303 66.6666667,130.30303 L66.6666667,151.515152 C66.6666667,152.787879 67.4515152,153.866667 68.5606061,154.315152 C66.0030303,161.560606 62.7878788,169.484848 58.6393939,178.787879 L42.4242424,178.787879 C40.7515152,178.787879 39.3939394,180.142424 39.3939394,181.818182 L39.3939394,203.030303 C39.3939394,204.706061 40.7515152,206.060606 42.4242424,206.060606 L43.1727273,206.060606 C38.869697,213.190909 33.9939394,220.051515 28.8393939,227.151515 C14.7181818,210.669697 6.06060606,189.469697 6.06060606,166.666667 C6.06060606,131.018182 29.6818182,96.8212121 64.8424242,81.5666667 C66.3787879,80.9 67.0818182,79.1151515 66.4181818,77.5818182 C65.7515152,76.0484848 63.9636364,75.3393939 62.4333333,76.0060606 C25.0878788,92.2060606 0,128.639394 0,166.666667 C0,220.872727 45.8666667,266.666667 100.154545,266.666667 C155.212121,266.666667 200,221.806061 200,166.666667 C200,128.6 174.912121,92.169697 137.566667,76.0060606 Z M83.4272727,178.787879 C87.4030303,169.730303 90.5848485,161.727273 93.0545455,154.545455 L95.7242424,154.545455 C93.1818182,161.709091 89.9515152,169.690909 85.9,178.787879 L83.4272727,178.787879 Z M100,160.536364 C102.084848,166.112121 104.584848,172.187879 107.481818,178.787879 L92.5181818,178.787879 C95.4181818,172.178788 97.9181818,166.106061 100,160.536364 Z M114.1,178.787879 C110.054545,169.709091 106.827273,161.724242 104.275758,154.545455 L106.942424,154.545455 C109.421212,161.742424 112.60303,169.745455 116.572727,178.787879 L114.1,178.787879 Z M123.190909,178.787879 C119.145455,169.709091 115.918182,161.724242 113.369697,154.545455 L125.106061,154.545455 C127.578788,161.742424 130.681818,169.572727 134.733333,178.787879 L123.190909,178.787879 Z M99.8939394,33.4393939 C102.066667,33.4393939 103.951515,34.6212121 104.990909,36.3636364 L94.7939394,36.3636364 C95.8363636,34.6212121 97.7212121,33.4393939 99.8939394,33.4393939 Z M87.8787879,42.4242424 L112.121212,42.4242424 L112.121212,57.5757576 L87.8787879,57.5757576 L87.8787879,42.4242424 Z M93.4818182,63.6363636 L106.581818,63.6363636 C107.081818,85.1939394 109.521212,106.569697 113.836364,127.272727 L86.2212121,127.272727 C90.5393939,106.566667 92.9818182,85.1939394 93.4818182,63.6363636 Z M72.7272727,133.333333 L127.272727,133.333333 L127.272727,148.484848 L72.7272727,148.484848 L72.7272727,133.333333 Z M74.8939394,154.545455 L86.6333333,154.545455 C84.0909091,161.709091 80.8606061,169.690909 76.8090909,178.787879 L65.2727273,178.787879 C69.2969697,169.630303 72.4030303,161.8 74.8939394,154.545455 Z M45.4545455,184.848485 L154.545455,184.848485 L154.545455,200 L45.4545455,200 L45.4545455,184.848485 Z M53.3969697,247.718182 C53.5969697,247.554545 53.8272727,247.433333 53.9848485,247.212121 C61.3121212,236.915152 69.5484848,229.754545 78.8575758,225.587879 C72.9333333,231.669697 67.1787879,240.442424 61.5272727,251.981818 C58.7454545,250.690909 56.0333333,249.266667 53.3969697,247.718182 Z M67.1090909,254.363636 C77.9242424,232.384848 88.9848485,221.212121 100,221.212121 C110.881818,221.212121 121.951515,232.409091 132.915152,254.436364 C122.660606,258.40303 111.612121,260.606061 100.154545,260.606061 C88.5939394,260.606061 77.4484848,258.375758 67.1090909,254.363636 Z M138.5,252.051515 C132.887879,240.727273 127.212121,232.063636 121.406061,225.987879 C130.575758,230.281818 138.89697,237.412121 146.033333,247.236364 C146.2,247.466667 146.421212,247.621212 146.633333,247.787879 C143.99697,249.339394 141.284848,250.760606 138.5,252.051515 Z M151.436364,244.784848 C151.348485,244.39697 151.184848,244.018182 150.933333,243.672727 C137.378788,225.015152 119.763636,215.151515 100,215.151515 C79.6666667,215.151515 62.5242424,224.757576 49.0454545,243.69697 C48.8212121,244.012121 48.6818182,244.360606 48.5939394,244.712121 C42.9575758,240.936364 37.7393939,236.572727 33.0181818,231.721212 C39.2636364,223.121212 45.1515152,214.921212 50.2121212,206.060606 L149.784848,206.060606 C154.524242,214.363636 160.012121,222.039394 165.354545,229.454545 L167.024242,231.775758 C162.3,236.636364 157.075758,241.006061 151.436364,244.784848 Z M121.212121,190.909091 L121.212121,193.939394 C121.212121,195.615152 119.857576,196.969697 118.181818,196.969697 C116.506061,196.969697 115.151515,195.615152 115.151515,193.939394 L115.151515,190.909091 C115.151515,189.233333 116.506061,187.878788 118.181818,187.878788 C119.857576,187.878788 121.212121,189.233333 121.212121,190.909091 Z M112.121212,190.909091 L112.121212,193.939394 C112.121212,195.615152 110.766667,196.969697 109.090909,196.969697 C107.415152,196.969697 106.060606,195.615152 106.060606,193.939394 L106.060606,190.909091 C106.060606,189.233333 107.415152,187.878788 109.090909,187.878788 C110.766667,187.878788 112.121212,189.233333 112.121212,190.909091 Z M139.393939,190.909091 L139.393939,193.939394 C139.393939,195.615152 138.039394,196.969697 136.363636,196.969697 C134.687879,196.969697 133.333333,195.615152 133.333333,193.939394 L133.333333,190.909091 C133.333333,189.233333 134.687879,187.878788 136.363636,187.878788 C138.039394,187.878788 139.393939,189.233333 139.393939,190.909091 Z M148.484848,190.909091 L148.484848,193.939394 C148.484848,195.615152 147.130303,196.969697 145.454545,196.969697 C143.778788,196.969697 142.424242,195.615152 142.424242,193.939394 L142.424242,190.909091 C142.424242,189.233333 143.778788,187.878788 145.454545,187.878788 C147.130303,187.878788 148.484848,189.233333 148.484848,190.909091 Z M130.30303,190.909091 L130.30303,193.939394 C130.30303,195.615152 128.948485,196.969697 127.272727,196.969697 C125.59697,196.969697 124.242424,195.615152 124.242424,193.939394 L124.242424,190.909091 C124.242424,189.233333 125.59697,187.878788 127.272727,187.878788 C128.948485,187.878788 130.30303,189.233333 130.30303,190.909091 Z M103.030303,190.909091 L103.030303,193.939394 C103.030303,195.615152 101.672727,196.969697 100,196.969697 C98.3272727,196.969697 96.969697,195.615152 96.969697,193.939394 L96.969697,190.909091 C96.969697,189.233333 98.3272727,187.878788 100,187.878788 C101.672727,187.878788 103.030303,189.233333 103.030303,190.909091 Z M93.9393939,190.909091 L93.9393939,193.939394 C93.9393939,195.615152 92.5818182,196.969697 90.9090909,196.969697 C89.2363636,196.969697 87.8787879,195.615152 87.8787879,193.939394 L87.8787879,190.909091 C87.8787879,189.233333 89.2363636,187.878788 90.9090909,187.878788 C92.5818182,187.878788 93.9393939,189.233333 93.9393939,190.909091 Z M84.8484848,190.909091 L84.8484848,193.939394 C84.8484848,195.615152 83.4909091,196.969697 81.8181818,196.969697 C80.1454545,196.969697 78.7878788,195.615152 78.7878788,193.939394 L78.7878788,190.909091 C78.7878788,189.233333 80.1454545,187.878788 81.8181818,187.878788 C83.4909091,187.878788 84.8484848,189.233333 84.8484848,190.909091 Z M75.7575758,190.909091 L75.7575758,193.939394 C75.7575758,195.615152 74.4,196.969697 72.7272727,196.969697 C71.0545455,196.969697 69.6969697,195.615152 69.6969697,193.939394 L69.6969697,190.909091 C69.6969697,189.233333 71.0545455,187.878788 72.7272727,187.878788 C74.4,187.878788 75.7575758,189.233333 75.7575758,190.909091 Z M66.6666667,190.909091 L66.6666667,193.939394 C66.6666667,195.615152 65.3090909,196.969697 63.6363636,196.969697 C61.9636364,196.969697 60.6060606,195.615152 60.6060606,193.939394 L60.6060606,190.909091 C60.6060606,189.233333 61.9636364,187.878788 63.6363636,187.878788 C65.3090909,187.878788 66.6666667,189.233333 66.6666667,190.909091 Z M57.5757576,190.909091 L57.5757576,193.939394 C57.5757576,195.615152 56.2181818,196.969697 54.5454545,196.969697 C52.8727273,196.969697 51.5151515,195.615152 51.5151515,193.939394 L51.5151515,190.909091 C51.5151515,189.233333 52.8727273,187.878788 54.5454545,187.878788 C56.2181818,187.878788 57.5757576,189.233333 57.5757576,190.909091 Z M121.212121,139.393939 L121.212121,142.424242 C121.212121,144.1 119.857576,145.454545 118.181818,145.454545 C116.506061,145.454545 115.151515,144.1 115.151515,142.424242 L115.151515,139.393939 C115.151515,137.718182 116.506061,136.363636 118.181818,136.363636 C119.857576,136.363636 121.212121,137.718182 121.212121,139.393939 Z M112.121212,139.393939 L112.121212,142.424242 C112.121212,144.1 110.766667,145.454545 109.090909,145.454545 C107.415152,145.454545 106.060606,144.1 106.060606,142.424242 L106.060606,139.393939 C106.060606,137.718182 107.415152,136.363636 109.090909,136.363636 C110.766667,136.363636 112.121212,137.718182 112.121212,139.393939 Z M103.030303,139.393939 L103.030303,142.424242 C103.030303,144.1 101.672727,145.454545 100,145.454545 C98.3272727,145.454545 96.969697,144.1 96.969697,142.424242 L96.969697,139.393939 C96.969697,137.718182 98.3272727,136.363636 100,136.363636 C101.672727,136.363636 103.030303,137.718182 103.030303,139.393939 Z M93.9393939,139.393939 L93.9393939,142.424242 C93.9393939,144.1 92.5818182,145.454545 90.9090909,145.454545 C89.2363636,145.454545 87.8787879,144.1 87.8787879,142.424242 L87.8787879,139.393939 C87.8787879,137.718182 89.2363636,136.363636 90.9090909,136.363636 C92.5818182,136.363636 93.9393939,137.718182 93.9393939,139.393939 Z M109.090909,48.4848485 L109.090909,51.5030303 C109.090909,53.1757576 107.736364,54.5333333 106.060606,54.5333333 C104.384848,54.5333333 103.030303,53.1757576 103.030303,51.5030303 L103.030303,48.4848485 C103.030303,46.8121212 104.384848,45.4545455 106.060606,45.4545455 C107.736364,45.4545455 109.090909,46.8121212 109.090909,48.4848485 Z M96.969697,48.4848485 L96.969697,51.5030303 C96.969697,53.1757576 95.6121212,54.5333333 93.9393939,54.5333333 C92.2666667,54.5333333 90.9090909,53.1757576 90.9090909,51.5030303 L90.9090909,48.4848485 C90.9090909,46.8121212 92.2666667,45.4545455 93.9393939,45.4545455 C95.6121212,45.4545455 96.969697,46.8121212 96.969697,48.4848485 Z M84.8484848,139.393939 L84.8484848,142.424242 C84.8484848,144.1 83.4909091,145.454545 81.8181818,145.454545 C80.1454545,145.454545 78.7878788,144.1 78.7878788,142.424242 L78.7878788,139.393939 C78.7878788,137.718182 80.1454545,136.363636 81.8181818,136.363636 C83.4909091,136.363636 84.8484848,137.718182 84.8484848,139.393939 Z" id="Shape"></path>
        </g>
    </g>
</svg>