<?xml version="1.0" encoding="UTF-8"?>
<svg width="196px" height="248px" viewBox="0 0 196 248" version="1.1" xmlns="http://www.w3.org/2000/svg" xmlns:xlink="http://www.w3.org/1999/xlink">
    <!-- Generator: Sketch 45.2 (43514) - http://www.bohemiancoding.com/sketch -->
    <title>rome</title>
    <desc>Created with Sketch.</desc>
    <defs></defs>
    <g id="Page-1" stroke="none" stroke-width="1" fill="none" fill-rule="evenodd">
        <g id="rome" transform="translate(-2.000000, 0.000000)" fill-rule="nonzero" fill="#575757">
            <path d="M160.597015,73.761194 L164.358209,57.5820896 C164.626866,56.4179104 164.626866,55.2238806 164.41791,54.0895522 L168.089552,54.8059701 C168.268657,54.8358209 168.477612,54.8656716 168.656716,54.8656716 C170.059701,54.8656716 171.313433,53.880597 171.58209,52.4477612 C171.910448,50.8358209 170.835821,49.2537313 169.223881,48.9552239 L154.776119,46.1791045 L161.701493,16.1492537 L164.746269,16.6268657 C164.895522,16.6567164 165.074627,16.6567164 165.223881,16.6567164 C166.656716,16.6567164 167.940299,15.6119403 168.179104,14.1492537 C168.447761,12.5074627 167.313433,10.9850746 165.701493,10.7164179 L160.089552,9.82089552 C160.029851,9.79104478 159.970149,9.76119403 159.910448,9.76119403 L140.626866,6.74626866 L101.552239,0.537313433 C99.9402985,0.298507463 98.3880597,1.40298507 98.119403,3.01492537 C97.8507463,4.65671642 98.9850746,6.17910448 100.597015,6.44776119 L103.283582,6.86567164 L96.5671642,34.9552239 L81.880597,32.119403 C80.2686567,31.8208955 78.6865672,32.8656716 78.3880597,34.4776119 C78.0895522,36.0895522 79.1343284,37.6716418 80.7462687,37.9701493 L84,38.5970149 C83.4925373,39.4029851 83.1044776,40.2686567 82.8656716,41.2238806 L76.238806,69.3731343 L73.1343284,68.7164179 C71.5223881,68.358209 69.9402985,69.4029851 69.5820896,71.0149254 C69.2238806,72.6268657 70.2686567,74.2089552 71.880597,74.5671642 L74.8656716,75.1940299 L68.0298507,104.298507 L64.9850746,103.61194 C63.3731343,103.253731 61.7910448,104.268657 61.4029851,105.850746 C61.0447761,107.462687 62.0298507,109.044776 63.641791,109.432836 L66.6268657,110.119403 L59.7910448,139.19403 L56.8059701,138.507463 C55.1940299,138.149254 53.5820896,139.134328 53.2238806,140.746269 C52.8358209,142.358209 53.8507463,143.970149 55.4626866,144.328358 L58.4477612,145.014925 L51.6119403,174.059701 L48.6567164,173.373134 C47.0447761,173.014925 45.4328358,174 45.0746269,175.61194 C44.6865672,177.223881 45.7014925,178.835821 47.3134328,179.19403 L50.2686567,179.880597 L43.4328358,208.955224 L40.5074627,208.268657 C38.8955224,207.910448 37.2835821,208.895522 36.9253731,210.507463 C36.5373134,212.119403 37.5522388,213.731343 39.1641791,214.089552 L42.0895522,214.776119 L40.8656716,219.940299 C21.1343284,203.134328 8.59701493,178.149254 8.59701493,150.268657 C8.59701493,113.761194 30.238806,80.8059701 63.7313433,66.2686567 C65.2537313,65.6119403 65.9402985,63.8507463 65.2835821,62.3283582 C64.6268657,60.8059701 62.8656716,60.119403 61.3432836,60.7761194 C25.7014925,76.238806 2.65671642,111.343284 2.65671642,150.238806 C2.65671642,204 46.3880597,247.731343 100.149254,247.731343 C153.910448,247.731343 197.641791,204 197.641791,150.238806 C197.641791,120.179104 184.149254,92.3880597 160.597015,73.761194 Z M109.19403,7.85074627 L139.044776,12.5373134 L155.791045,15.1940299 L148.925373,44.9253731 L143.402985,43.880597 L145.641791,34.3880597 C146.38806,31.1641791 144.38806,27.9701493 141.19403,27.2238806 C137.970149,26.4776119 134.776119,28.4776119 134.029851,31.6716418 L131.671642,41.7014925 L125.61194,40.5671642 L119.910448,39.4626866 L122.358209,28.9552239 C123.104478,25.7313433 121.104478,22.5373134 117.910448,21.7910448 C114.686567,21.0447761 111.492537,23.0447761 110.746269,26.238806 L108.179104,37.1940299 L102.447761,36.0895522 L109.19403,7.85074627 Z M88.6865672,42.5970149 C89.0746269,40.9850746 90.6567164,40 92.3880597,40.3880597 L156,52.5671642 C157.701493,52.9552239 158.895522,54.7164179 158.537313,56.238806 L151.731343,85.4925373 L149.104478,84.9253731 L153.373134,66.7462687 C153.761194,65.1343284 152.746269,63.5223881 151.134328,63.1641791 C149.522388,62.7761194 147.910448,63.7910448 147.552239,65.4029851 L143.283582,83.7014925 L137.432836,82.4477612 L141.731343,64.0298507 C142.119403,62.4179104 141.104478,60.8059701 139.492537,60.4477612 C137.880597,60.0597015 136.268657,61.0746269 135.910448,62.6865672 L131.58209,81.1940299 L125.731343,79.9402985 L130.089552,61.3134328 C130.477612,59.7014925 129.462687,58.0895522 127.850746,57.7313433 C126.238806,57.3432836 124.626866,58.358209 124.268657,59.9701493 L119.880597,78.7164179 L113.761194,77.4029851 L118.179104,58.5373134 C118.567164,56.9253731 117.552239,55.3134328 115.940299,54.9552239 C114.328358,54.5671642 112.716418,55.5820896 112.358209,57.1940299 L107.940299,76.119403 L102.38806,74.9253731 L106.865672,55.8208955 C107.253731,54.2089552 106.238806,52.5970149 104.626866,52.238806 C103.044776,51.8507463 101.402985,52.8656716 101.044776,54.4776119 L96.5373134,73.6716418 L90.6865672,72.4179104 L95.2238806,53.1044776 C95.6119403,51.4925373 94.5970149,49.880597 92.9850746,49.5223881 C91.3731343,49.1343284 89.761194,50.1492537 89.4029851,51.761194 L84.8656716,71.1940299 L82.0895522,70.6268657 L88.6865672,42.5970149 Z M80.7462687,76.4179104 L98,80.0895522 C98.0597015,80.0895522 98.0895522,80.1492537 98.1492537,80.1492537 C98.2686567,80.1791045 98.3880597,80.1791045 98.4776119,80.1791045 L150.447761,91.2537313 L143.462687,121.343284 L140.776119,120.746269 L145.253731,101.58209 C145.641791,99.9701493 144.626866,98.358209 143.014925,98 C141.402985,97.6119403 139.791045,98.6268657 139.432836,100.238806 L134.925373,119.432836 L129.104478,118.119403 L133.61194,98.8656716 C134,97.2537313 132.985075,95.641791 131.373134,95.2835821 C129.761194,94.8955224 128.149254,95.9104478 127.791045,97.5223881 L123.283582,116.80597 L117.462687,115.492537 L122,96.1791045 C122.38806,94.5671642 121.373134,92.9552239 119.761194,92.5970149 C118.149254,92.2089552 116.537313,93.2238806 116.179104,94.8358209 L111.641791,114.208955 L105.522388,112.80597 L110.059701,93.4029851 C110.447761,91.7910448 109.432836,90.1791045 107.820896,89.8208955 C106.208955,89.4328358 104.597015,90.4477612 104.238806,92.0597015 L99.7014925,111.492537 L94.1791045,110.238806 L98.7462687,90.7761194 C99.1343284,89.1641791 98.119403,87.5522388 96.5074627,87.1940299 C94.8955224,86.8059701 93.2835821,87.8208955 92.9253731,89.4328358 L88.358209,108.955224 L82.5373134,107.641791 L87.1044776,88.0895522 C87.4925373,86.4776119 86.4776119,84.8656716 84.8656716,84.5074627 C83.2537313,84.119403 81.641791,85.1343284 81.2835821,86.7462687 L76.6865672,106.328358 L73.880597,105.701493 L80.7462687,76.4179104 Z M72.5074627,111.432836 L142.059701,127.223881 L135.19403,156.80597 L132.447761,156.149254 L137.044776,136.477612 C137.432836,134.865672 136.41791,133.253731 134.80597,132.895522 C133.19403,132.507463 131.58209,133.522388 131.223881,135.134328 L126.626866,154.80597 L120.80597,153.432836 L125.402985,133.761194 C125.791045,132.149254 124.776119,130.537313 123.164179,130.179104 C121.552239,129.820896 119.940299,130.80597 119.58209,132.41791 L114.985075,152.089552 L109.164179,150.716418 L113.761194,131.044776 C114.149254,129.432836 113.134328,127.820896 111.522388,127.462687 C109.910448,127.104478 108.298507,128.089552 107.940299,129.701493 L103.343284,149.373134 L97.2238806,147.940299 L101.820896,128.268657 C102.208955,126.656716 101.19403,125.044776 99.5820896,124.686567 C97.9701493,124.328358 96.358209,125.313433 96,126.925373 L91.4029851,146.597015 L85.880597,145.313433 L90.4776119,125.641791 C90.8656716,124.029851 89.8507463,122.41791 88.238806,122.059701 C86.6268657,121.701493 85.0149254,122.686567 84.6567164,124.298507 L80.0597015,143.970149 L74.238806,142.597015 L78.8358209,122.925373 C79.2238806,121.313433 78.2089552,119.701493 76.5970149,119.343284 C74.9850746,118.955224 73.3731343,119.970149 73.0149254,121.58209 L68.4179104,141.253731 L65.5820896,140.597015 L72.5074627,111.432836 Z M64.2985075,146.358209 L133.820896,162.626866 L127.074627,191.701493 L124.268657,191.044776 L128.865672,171.373134 C129.253731,169.761194 128.238806,168.149254 126.626866,167.791045 C125.014925,167.432836 123.402985,168.41791 123.044776,170.029851 L118.447761,189.701493 L112.626866,188.328358 L117.253731,168.656716 C117.641791,167.044776 116.626866,165.432836 115.014925,165.074627 C113.402985,164.716418 111.791045,165.701493 111.432836,167.313433 L106.835821,186.985075 L101.014925,185.61194 L105.61194,165.940299 C105.970149,164.328358 104.985075,162.716418 103.373134,162.358209 C101.761194,162 100.149254,162.985075 99.7910448,164.597015 L95.1940299,184.268657 L89.0746269,182.835821 L93.6716418,163.164179 C94.0597015,161.552239 93.0447761,159.940299 91.4328358,159.58209 C89.8208955,159.223881 88.2089552,160.208955 87.8507463,161.820896 L83.2537313,181.492537 L77.7313433,180.208955 L82.3283582,160.537313 C82.7164179,158.925373 81.7014925,157.313433 80.0895522,156.955224 C78.4776119,156.597015 76.8656716,157.58209 76.5074627,159.19403 L71.9402985,178.80597 L66.119403,177.432836 L70.7164179,157.761194 C71.1044776,156.149254 70.0895522,154.537313 68.4776119,154.179104 C66.8656716,153.820896 65.2537313,154.80597 64.8955224,156.41791 L60.2985075,176.089552 L57.4328358,175.432836 L64.2985075,146.358209 Z M115.731343,240.477612 C114.626866,240.656716 113.552239,240.835821 112.41791,240.985075 C112.38806,239.641791 111.522388,238.41791 110.179104,238.119403 C108.567164,237.761194 106.955224,238.746269 106.597015,240.358209 L106.298507,241.61194 C104.268657,241.671642 102.238806,241.761194 100.149254,241.761194 L100.80597,238.895522 C101.19403,237.283582 100.179104,235.671642 98.5671642,235.313433 C96.9850746,234.955224 95.3432836,235.940299 94.9850746,237.552239 L94.0597015,241.552239 C92.0298507,241.432836 90.0597015,241.223881 88.0597015,240.955224 L89.1641791,236.208955 C89.5522388,234.597015 88.5373134,232.985075 86.9253731,232.626866 C85.3134328,232.268657 83.7014925,233.253731 83.3432836,234.865672 L82.1492537,240.029851 C80.0895522,239.61194 78.0597015,239.134328 76.0597015,238.567164 L77.2537313,233.432836 C77.641791,231.820896 76.6268657,230.208955 75.0149254,229.850746 C73.4029851,229.492537 71.7910448,230.477612 71.4328358,232.089552 L70.3283582,236.80597 C68.5074627,236.179104 66.7164179,235.522388 64.9850746,234.776119 L65.9104478,230.776119 C66.2985075,229.164179 65.2835821,227.552239 63.6716418,227.19403 C62.0597015,226.835821 60.4477612,227.820896 60.0895522,229.432836 L59.4328358,232.238806 C57.5820896,231.313433 55.7910448,230.268657 54,229.253731 L54.2985075,228.029851 C54.6865672,226.41791 53.7014925,224.80597 52.0895522,224.41791 C50.7462687,224.089552 49.4328358,224.776119 48.8059701,225.940299 C47.880597,225.313433 46.9253731,224.746269 46.0298507,224.059701 L47.880597,216.149254 L117.58209,232.477612 L115.731343,240.477612 Z M116.119403,225.940299 L120.716418,206.268657 C121.104478,204.656716 120.089552,203.044776 118.477612,202.686567 C116.865672,202.298507 115.253731,203.313433 114.895522,204.925373 L110.298507,224.597015 L104.477612,223.223881 L109.074627,203.552239 C109.462687,201.940299 108.447761,200.328358 106.835821,199.970149 C105.223881,199.61194 103.61194,200.597015 103.253731,202.208955 L98.6567164,221.880597 L92.8358209,220.507463 L97.4328358,200.835821 C97.8208955,199.223881 96.8059701,197.61194 95.1940299,197.253731 C93.5820896,196.895522 91.9701493,197.880597 91.6119403,199.492537 L87.0149254,219.164179 L80.8955224,217.731343 L85.4925373,198.059701 C85.880597,196.447761 84.8656716,194.835821 83.2537313,194.477612 C81.641791,194.119403 80.0298507,195.104478 79.6716418,196.716418 L75.0746269,216.38806 L69.5522388,215.104478 L74.1492537,195.432836 C74.5373134,193.820896 73.5223881,192.208955 71.9104478,191.850746 C70.2985075,191.492537 68.6865672,192.477612 68.3283582,194.089552 L63.7313433,213.761194 L57.9104478,212.38806 L62.5074627,192.716418 C62.8955224,191.104478 61.880597,189.492537 60.2686567,189.134328 C58.6567164,188.776119 57.0447761,189.761194 56.6865672,191.373134 L52.0895522,211.044776 L49.1940299,210.358209 L56.119403,181.223881 L125.731343,197.522388 L118.985075,226.597015 L116.119403,225.940299 Z M122.179104,239.044776 L123.402985,233.761194 L126.358209,234.447761 C126.597015,234.507463 126.80597,234.537313 127.044776,234.537313 C128.38806,234.537313 129.641791,233.61194 129.940299,232.238806 C130.328358,230.626866 129.313433,229.014925 127.701493,228.656716 L124.746269,227.970149 L131.492537,198.895522 L134.507463,199.61194 C134.746269,199.671642 134.955224,199.701493 135.19403,199.701493 C136.537313,199.701493 137.761194,198.776119 138.089552,197.402985 C138.477612,195.791045 137.462687,194.179104 135.850746,193.820896 L132.835821,193.104478 L139.58209,164.029851 L142.656716,164.746269 C142.895522,164.80597 143.104478,164.835821 143.343284,164.835821 C144.686567,164.835821 145.910448,163.910448 146.238806,162.537313 C146.626866,160.925373 145.61194,159.313433 144,158.955224 L140.925373,158.238806 L147.820896,128.597015 L150.865672,129.283582 C151.074627,129.343284 151.313433,129.343284 151.522388,129.343284 C152.895522,129.343284 154.119403,128.41791 154.41791,127.014925 C154.776119,125.402985 153.761194,123.820896 152.179104,123.432836 L149.164179,122.746269 L156.179104,92.5671642 L159.104478,93.1940299 C159.313433,93.2537313 159.522388,93.2537313 159.731343,93.2537313 C161.104478,93.2537313 162.358209,92.2985075 162.656716,90.8955224 C163.014925,89.2835821 161.970149,87.7014925 160.358209,87.3432836 L157.552239,86.7462687 L159.044776,80.2686567 C179.791045,97.7313433 191.61194,122.985075 191.61194,150.238806 C191.671642,193.104478 162.029851,229.164179 122.179104,239.044776 Z M130.716418,32.6268657 L124.895522,31.2537313 L127.61194,19.641791 C127.970149,18.0298507 129.58209,17.0149254 131.19403,17.4029851 C132.80597,17.761194 133.820896,19.3731343 133.432836,20.9850746 L130.716418,32.6268657 Z" id="Shape"></path>
        </g>
    </g>
</svg>