<?xml version="1.0" encoding="UTF-8"?>
<svg width="196px" height="262px" viewBox="0 0 196 262" version="1.1" xmlns="http://www.w3.org/2000/svg" xmlns:xlink="http://www.w3.org/1999/xlink">
    <!-- Generator: Sketch 45.2 (43514) - http://www.bohemiancoding.com/sketch -->
    <title>stockholm</title>
    <desc>Created with Sketch.</desc>
    <defs></defs>
    <g id="Page-1" stroke="none" stroke-width="1" fill="none" fill-rule="evenodd">
        <g id="stockholm" fill-rule="nonzero" fill="#575757">
            <path d="M136.835821,74.638806 C135.331343,73.9940299 133.567164,74.680597 132.910448,76.1940299 C132.259701,77.7074627 132.952239,79.4626866 134.465672,80.119403 C168.002985,94.6328358 189.671642,127.61791 189.671642,164.155224 C189.671642,195.925373 173.39403,223.955224 148.746269,240.370149 L148.746269,173.283582 C150.689552,173.486567 152.671642,173.626866 154.716418,173.626866 C156.367164,173.626866 157.701493,172.292537 157.701493,170.641791 C157.701493,168.991045 156.367164,167.656716 154.716418,167.656716 C153.716418,167.656716 152.743284,167.608955 151.776119,167.552239 C151.767164,167.301493 151.740299,167.056716 151.671642,166.826866 C151.414925,164.976119 150.298507,163.4 148.746269,162.498507 L148.746269,125.865672 C148.746269,124.21791 147.41194,122.880597 145.761194,122.880597 C144.110448,122.880597 142.776119,124.21791 142.776119,125.865672 L142.776119,162.516418 C141.614925,163.19403 140.704478,164.235821 140.208955,165.498507 C128.889552,162.059701 121.880597,155.429851 121.880597,152.731343 L124.865672,152.731343 C126.516418,152.731343 127.850746,151.397015 127.850746,149.746269 L127.850746,140.791045 C127.850746,139.140299 126.516418,137.80597 124.865672,137.80597 L124.865672,93.0298507 C126.516418,93.0298507 127.850746,91.6925373 127.850746,90.0447761 C127.850746,88.3970149 126.516418,87.0597015 124.865672,87.0597015 L122.41194,87.0597015 C122.268657,87.0059701 122.095522,86.9373134 121.880597,86.8537313 L121.880597,84.0746269 C121.880597,82.4268657 120.546269,81.0895522 118.895522,81.0895522 C117.301493,81.0895522 116.032836,82.3432836 115.943284,83.9104478 C111.656716,81.3402985 106.955224,77.3432836 106.955224,72.1343284 C106.955224,69.5850746 107.570149,68.7164179 108.280597,67.7134328 C108.98209,66.7223881 109.940299,65.3641791 109.940299,63.1791045 L109.940299,60.1940299 C109.940299,57.5283582 107.776119,55.7880597 105.489552,53.9462687 C104,52.7492537 102.38806,51.4358209 101.555224,50.038806 C103.014925,48.9522388 103.970149,47.2298507 103.970149,45.2686567 C103.970149,42.2835821 102.477612,40.7910448 100.985075,39.6716418 L100.985075,29.319403 C102.979104,28.5283582 106.492537,27.358209 109.940299,27.358209 L115.910448,27.358209 C116.274627,27.358209 124.865672,27.1880597 124.865672,12.4328358 L127.850746,12.4328358 C129.501493,12.4328358 130.835821,11.0955224 130.835821,9.44776119 L130.835821,6.46268657 C130.835821,5.25671642 130.110448,4.16716418 128.997015,3.70447761 C127.880597,3.24179104 126.597015,3.49552239 125.743284,4.35223881 L125.686567,4.40895522 L124.552239,2.14328358 C123.537313,0.119402985 120.226866,0.119402985 119.21194,2.14328358 L118.077612,4.40895522 L118.020896,4.35223881 C117.167164,3.49850746 115.883582,3.24477612 114.767164,3.70447761 C113.650746,4.16716418 112.925373,5.25671642 112.925373,6.46268657 L112.925373,9.44776119 C112.925373,11.0955224 114.259701,12.4328358 115.910448,12.4328358 L118.895522,12.4328358 C118.895522,19.1880597 116.835821,21.2477612 115.910448,21.3880597 L109.940299,21.3880597 C106.662687,21.3880597 103.438806,22.1701493 100.985075,22.9731343 L100.985075,21.3880597 L103.970149,21.3880597 C105.620896,21.3880597 106.955224,20.0507463 106.955224,18.4029851 L106.955224,15.4179104 C106.955224,14.2119403 106.229851,13.1223881 105.113433,12.6597015 C103.997015,12.1970149 102.713433,12.4507463 101.859701,13.3074627 L101.802985,13.3641791 L100.668657,11.0985075 C99.6567164,9.07462687 96.3402985,9.07462687 95.3283582,11.0985075 L94.1970149,13.3641791 L94.1402985,13.3074627 C93.2835821,12.4537313 92.0029851,12.1970149 90.8865672,12.6597015 C89.7731343,13.1223881 89.0447761,14.2119403 89.0447761,15.4179104 L89.0447761,18.4029851 C89.0447761,20.0507463 90.3820896,21.3880597 92.0298507,21.3880597 L95.0149254,21.3880597 L95.0149254,22.9731343 C92.561194,22.1701493 89.3343284,21.3880597 86.0597015,21.3880597 L80.2567164,21.3940299 C79.1641791,21.2477612 77.1044776,19.1880597 77.1044776,12.4328358 L80.0895522,12.4328358 C81.7373134,12.4328358 83.0746269,11.0955224 83.0746269,9.44776119 L83.0746269,6.46268657 C83.0746269,5.25671642 82.3462687,4.16716418 81.2298507,3.70447761 C80.1104478,3.24179104 78.8298507,3.49552239 77.9761194,4.35223881 L77.919403,4.40895522 L76.7880597,2.14328358 C75.7761194,0.119402985 72.4597015,0.119402985 71.4477612,2.14328358 L70.3164179,4.40895522 L70.2597015,4.35223881 C69.4029851,3.49552239 68.1223881,3.24179104 67.0059701,3.70447761 C65.8925373,4.16716418 65.1641791,5.25671642 65.1641791,6.46268657 L65.1641791,9.44776119 C65.1641791,11.0955224 66.5014925,12.4328358 68.1492537,12.4328358 L71.1343284,12.4328358 C71.1343284,27.1880597 79.7223881,27.358209 80.0895522,27.358209 L86.0597015,27.358209 C89.5074627,27.358209 93.0208955,28.5283582 95.0149254,29.319403 L95.0149254,39.6716418 C93.5223881,40.7910448 92.0298507,42.2835821 92.0298507,45.2686567 C92.0298507,47.2298507 92.9850746,48.9522388 94.4447761,50.038806 C93.6149254,51.4328358 92,52.7462687 90.5104478,53.9462687 C88.2208955,55.7880597 86.0597015,57.5283582 86.0597015,60.1940299 L86.0597015,63.1791045 C86.0597015,65.3641791 87.0179104,66.7223881 87.719403,67.7134328 C88.4298507,68.7164179 89.0447761,69.5850746 89.0447761,72.1343284 C89.0447761,77.158209 84.519403,81.2358209 80.0626866,83.9402985 C79.9880597,82.358209 78.7044776,81.0895522 77.1044776,81.0895522 C75.4567164,81.0895522 74.119403,82.4268657 74.119403,84.0746269 L74.119403,86.8716418 C73.9343284,86.9432836 73.7731343,86.9970149 73.6059701,87.0597015 L71.1343284,87.0597015 C69.4865672,87.0597015 68.1492537,88.3970149 68.1492537,90.0447761 C68.1492537,91.6925373 69.4865672,93.0298507 71.1343284,93.0298507 L71.1343284,137.80597 C69.4865672,137.80597 68.1492537,139.140299 68.1492537,140.791045 L68.1492537,149.746269 C68.1492537,151.397015 69.4865672,152.731343 71.1343284,152.731343 L74.119403,152.731343 C74.119403,155.167164 66.3313433,161.614925 55.6477612,165.185075 C55.1313433,164.056716 54.2895522,163.116418 53.2238806,162.498507 L53.2238806,125.865672 C53.2238806,124.21791 51.8865672,122.880597 50.238806,122.880597 C48.5910448,122.880597 47.2537313,124.21791 47.2537313,125.865672 L47.2537313,162.516418 C45.5104478,163.531343 44.3253731,165.38806 44.280597,167.534328 C43.2895522,167.608955 42.2895522,167.653731 41.2835821,167.653731 C39.6358209,167.653731 38.2985075,168.98806 38.2985075,170.638806 C38.2985075,172.289552 39.6358209,173.623881 41.2835821,173.623881 C43.1820896,173.623881 45.1910448,173.456716 47.2537313,173.155224 L47.2537313,240.176119 C22.7731343,223.734328 6.62686567,195.79403 6.62686567,164.152239 C6.62686567,127.650746 28.2656716,94.6776119 61.758209,80.1492537 C63.2716418,79.4955224 63.9671642,77.7373134 63.3104478,76.2238806 C62.6567164,74.7104478 60.8925373,74.0149254 59.3850746,74.6716418 C23.7104478,90.1462687 0.659701493,125.271642 0.659701493,164.152239 C0.659701493,217.910448 44.3940299,261.644776 98.1522388,261.644776 C151.910448,261.644776 195.644776,217.910448 195.638806,164.152239 C195.638806,125.235821 172.558209,90.0985075 136.835821,74.638806 Z M74.119403,146.761194 L74.119403,143.776119 L77.1044776,143.776119 L77.1044776,146.761194 L74.119403,146.761194 Z M112.925373,146.761194 L109.940299,146.761194 L109.940299,143.776119 L112.925373,143.776119 L112.925373,146.761194 Z M103.970149,143.776119 L103.970149,146.761194 L100.985075,146.761194 L100.985075,143.776119 L103.970149,143.776119 Z M100.985075,137.80597 L100.985075,134.820896 L109.940299,134.820896 L109.940299,137.80597 L100.985075,137.80597 Z M98,122.880597 C96.3522388,122.880597 95.0149254,124.21791 95.0149254,125.865672 L95.0149254,128.850746 L86.0597015,128.850746 L86.0597015,104.970149 L92.0298507,104.970149 C92.0238806,107.301493 91.6179104,110.038806 91.1522388,111.071642 C89.9313433,111.444776 89.0447761,112.58209 89.0447761,113.925373 L89.0447761,116.910448 C89.0447761,118.558209 90.3820896,119.895522 92.0298507,119.895522 L103.970149,119.895522 C105.620896,119.895522 106.955224,118.558209 106.955224,116.910448 L106.955224,113.925373 C106.955224,112.58209 106.068657,111.444776 104.847761,111.071642 C104.38209,110.038806 103.973134,107.301493 103.970149,104.970149 L109.940299,104.970149 L109.940299,128.850746 L100.985075,128.850746 L100.985075,125.865672 C100.985075,124.21791 99.6477612,122.880597 98,122.880597 Z M99.5880597,113.925373 L96.4089552,113.925373 C97.2776119,112.220896 97.6925373,110.01791 97.8716418,107.955224 L98.1223881,107.955224 C98.3044776,110.01791 98.719403,112.220896 99.5880597,113.925373 Z M109.940299,99 L100.985075,99 C100.985075,97.3522388 99.6477612,96.0149254 98,96.0149254 C96.3522388,96.0149254 95.0149254,97.3522388 95.0149254,99 L86.0597015,99 L86.0597015,93.0298507 L109.940299,93.0298507 L109.940299,99 Z M86.0597015,134.820896 L95.0149254,134.820896 L95.0149254,137.80597 L86.0597015,137.80597 L86.0597015,134.820896 Z M83.0746269,143.776119 L86.0597015,143.776119 L86.0597015,146.761194 L83.0746269,146.761194 L83.0746269,143.776119 Z M92.0298507,143.776119 L95.0149254,143.776119 L95.0149254,146.761194 L92.0298507,146.761194 L92.0298507,143.776119 Z M100.985075,173.626866 L142.776119,173.626866 L142.776119,243.495522 C142.776119,243.662687 142.844776,243.80597 142.871642,243.964179 C130.41194,250.973134 116.161194,255.140299 100.985075,255.60597 L100.985075,173.626866 Z M129.510448,167.656716 L104.029851,167.656716 C104.029851,167.367164 103.98806,167.089552 103.910448,166.826866 C103.653731,164.976119 102.537313,163.4 100.985075,162.498507 L100.985075,152.731343 L115.910448,152.731343 C115.910448,157.313433 121.095522,163.274627 129.510448,167.656716 Z M121.880597,146.761194 L118.895522,146.761194 L118.895522,143.776119 L121.880597,143.776119 L121.880597,146.761194 Z M115.910448,137.80597 L115.910448,93.0298507 L118.895522,93.0298507 L118.895522,137.80597 L115.910448,137.80597 Z M95.0149254,72.1343284 C95.0149254,67.6895522 93.558209,65.6268657 92.5940299,64.2656716 C92.0477612,63.4925373 90.7223881,61.761194 92.0298507,60.558209 C93.3373134,59.3552239 93.5074627,59.2 94.2537313,58.6 C95.438806,57.6477612 96.8089552,56.5462687 98,55.2268657 C99.1940299,56.5462687 100.561194,57.6447761 101.746269,58.6 C102.495522,59.2 102.710448,59.3820896 103.970149,60.558209 C105.229851,61.7343284 103.949254,63.4925373 103.40597,64.2656716 C102.441791,65.6268657 100.985075,67.6895522 100.985075,72.1343284 C100.985075,78.7253731 105.265672,83.6597015 109.862687,87.0597015 L86.1343284,87.0597015 C90.7343284,83.6597015 95.0149254,78.7253731 95.0149254,72.1343284 Z M77.1044776,93.0298507 L80.0895522,93.0298507 L80.0895522,137.80597 L77.1044776,137.80597 L77.1044776,93.0298507 Z M80.0895522,152.731343 L95.0149254,152.731343 L95.0149254,162.516418 C93.238806,163.552239 92.0298507,165.456716 92.0298507,167.656716 L64.961194,167.656716 C73.4835821,163.585075 80.0895522,158.00597 80.0895522,152.731343 Z M53.2238806,173.626866 L95.0149254,173.626866 L95.0149254,255.597015 C79.8686567,255.083582 65.6507463,250.877612 53.2238806,243.844776 L53.2238806,173.626866 Z M133.820896,179.597015 L133.820896,194.522388 C133.820896,196.173134 132.486567,197.507463 130.835821,197.507463 C129.185075,197.507463 127.850746,196.173134 127.850746,194.522388 L127.850746,179.597015 C127.850746,177.946269 129.185075,176.61194 130.835821,176.61194 C132.486567,176.61194 133.820896,177.946269 133.820896,179.597015 Z M115.910448,179.597015 L115.910448,194.522388 C115.910448,196.173134 114.576119,197.507463 112.925373,197.507463 C111.274627,197.507463 109.940299,196.173134 109.940299,194.522388 L109.940299,179.597015 C109.940299,177.946269 111.274627,176.61194 112.925373,176.61194 C114.576119,176.61194 115.910448,177.946269 115.910448,179.597015 Z M86.0597015,179.597015 L86.0597015,194.522388 C86.0597015,196.173134 84.7223881,197.507463 83.0746269,197.507463 C81.4268657,197.507463 80.0895522,196.173134 80.0895522,194.522388 L80.0895522,179.597015 C80.0895522,177.946269 81.4268657,176.61194 83.0746269,176.61194 C84.7223881,176.61194 86.0597015,177.946269 86.0597015,179.597015 Z M68.1492537,179.597015 L68.1492537,194.522388 C68.1492537,196.173134 66.8119403,197.507463 65.1641791,197.507463 C63.5164179,197.507463 62.1791045,196.173134 62.1791045,194.522388 L62.1791045,179.597015 C62.1791045,177.946269 63.5164179,176.61194 65.1641791,176.61194 C66.8119403,176.61194 68.1492537,177.946269 68.1492537,179.597015 Z M86.0597015,206.462687 L86.0597015,212.432836 C86.0597015,214.083582 84.7223881,215.41791 83.0746269,215.41791 C81.4268657,215.41791 80.0895522,214.083582 80.0895522,212.432836 L80.0895522,206.462687 C80.0895522,204.81194 81.4268657,203.477612 83.0746269,203.477612 C84.7223881,203.477612 86.0597015,204.81194 86.0597015,206.462687 Z M77.1044776,224.373134 L77.1044776,230.343284 C77.1044776,231.99403 75.7671642,233.328358 74.119403,233.328358 C72.4716418,233.328358 71.1343284,231.99403 71.1343284,230.343284 L71.1343284,224.373134 C71.1343284,222.722388 72.4716418,221.38806 74.119403,221.38806 C75.7671642,221.38806 77.1044776,222.722388 77.1044776,224.373134 Z M68.1492537,206.462687 L68.1492537,212.432836 C68.1492537,214.083582 66.8119403,215.41791 65.1641791,215.41791 C63.5164179,215.41791 62.1791045,214.083582 62.1791045,212.432836 L62.1791045,206.462687 C62.1791045,204.81194 63.5164179,203.477612 65.1641791,203.477612 C66.8119403,203.477612 68.1492537,204.81194 68.1492537,206.462687 Z M86.0597015,242.283582 L86.0597015,245.268657 C86.0597015,246.919403 84.7223881,248.253731 83.0746269,248.253731 C81.4268657,248.253731 80.0895522,246.919403 80.0895522,245.268657 L80.0895522,242.283582 C80.0895522,240.632836 81.4268657,239.298507 83.0746269,239.298507 C84.7223881,239.298507 86.0597015,240.632836 86.0597015,242.283582 Z M68.1492537,242.283582 L68.1492537,245.268657 C68.1492537,246.919403 66.8119403,248.253731 65.1641791,248.253731 C63.5164179,248.253731 62.1791045,246.919403 62.1791045,245.268657 L62.1791045,242.283582 C62.1791045,240.632836 63.5164179,239.298507 65.1641791,239.298507 C66.8119403,239.298507 68.1492537,240.632836 68.1492537,242.283582 Z M133.820896,206.462687 L133.820896,212.432836 C133.820896,214.083582 132.486567,215.41791 130.835821,215.41791 C129.185075,215.41791 127.850746,214.083582 127.850746,212.432836 L127.850746,206.462687 C127.850746,204.81194 129.185075,203.477612 130.835821,203.477612 C132.486567,203.477612 133.820896,204.81194 133.820896,206.462687 Z M124.865672,224.373134 L124.865672,230.343284 C124.865672,231.99403 123.531343,233.328358 121.880597,233.328358 C120.229851,233.328358 118.895522,231.99403 118.895522,230.343284 L118.895522,224.373134 C118.895522,222.722388 120.229851,221.38806 121.880597,221.38806 C123.531343,221.38806 124.865672,222.722388 124.865672,224.373134 Z M115.910448,206.462687 L115.910448,212.432836 C115.910448,214.083582 114.576119,215.41791 112.925373,215.41791 C111.274627,215.41791 109.940299,214.083582 109.940299,212.432836 L109.940299,206.462687 C109.940299,204.81194 111.274627,203.477612 112.925373,203.477612 C114.576119,203.477612 115.910448,204.81194 115.910448,206.462687 Z M133.820896,242.283582 L133.820896,245.268657 C133.820896,246.919403 132.486567,248.253731 130.835821,248.253731 C129.185075,248.253731 127.850746,246.919403 127.850746,245.268657 L127.850746,242.283582 C127.850746,240.632836 129.185075,239.298507 130.835821,239.298507 C132.486567,239.298507 133.820896,240.632836 133.820896,242.283582 Z M115.910448,242.283582 L115.910448,245.268657 C115.910448,246.919403 114.576119,248.253731 112.925373,248.253731 C111.274627,248.253731 109.940299,246.919403 109.940299,245.268657 L109.940299,242.283582 C109.940299,240.632836 111.274627,239.298507 112.925373,239.298507 C114.576119,239.298507 115.910448,240.632836 115.910448,242.283582 Z" id="Shape"></path>
        </g>
    </g>
</svg>